<?xml version="1.0" encoding="UTF-8"?>
<!DOCTYPE svg PUBLIC "-//W3C//DTD SVG 1.1//EN" "http://www.w3.org/Graphics/SVG/1.1/DTD/svg11.dtd">
<svg xmlns="http://www.w3.org/2000/svg" version="1.1" width="640px" height="960px" style="shape-rendering:geometricPrecision; text-rendering:geometricPrecision; image-rendering:optimizeQuality; fill-rule:evenodd; clip-rule:evenodd" xmlns:xlink="http://www.w3.org/1999/xlink">
<g><path style="opacity:1" fill="#016a00" d="M 359.5,59.5 C 332.833,59.5 306.167,59.5 279.5,59.5C 279.5,52.8333 279.5,46.1667 279.5,39.5C 306.167,39.5 332.833,39.5 359.5,39.5C 359.5,46.1667 359.5,52.8333 359.5,59.5 Z"/></g>
<g><path style="opacity:1" fill="#016a00" d="M 279.5,59.5 C 279.5,66.1667 279.5,72.8333 279.5,79.5C 272.833,79.5 266.167,79.5 259.5,79.5C 259.5,72.8333 259.5,66.1667 259.5,59.5C 266.167,59.5 272.833,59.5 279.5,59.5 Z"/></g>
<g><path style="opacity:1" fill="#81912c" d="M 279.5,59.5 C 306.167,59.5 332.833,59.5 359.5,59.5C 359.5,66.1667 359.5,72.8333 359.5,79.5C 332.833,79.5 306.167,79.5 279.5,79.5C 279.5,72.8333 279.5,66.1667 279.5,59.5 Z"/></g>
<g><path style="opacity:1" fill="#016a00" d="M 359.5,59.5 C 366.167,59.5 372.833,59.5 379.5,59.5C 379.5,66.1667 379.5,72.8333 379.5,79.5C 372.833,79.5 366.167,79.5 359.5,79.5C 359.5,72.8333 359.5,66.1667 359.5,59.5 Z"/></g>
<g><path style="opacity:1" fill="#016a00" d="M 259.5,79.5 C 259.5,86.1667 259.5,92.8333 259.5,99.5C 252.833,99.5 246.167,99.5 239.5,99.5C 239.5,92.8333 239.5,86.1667 239.5,79.5C 246.167,79.5 252.833,79.5 259.5,79.5 Z"/></g>
<g><path style="opacity:1" fill="#81912c" d="M 259.5,79.5 C 266.167,79.5 272.833,79.5 279.5,79.5C 279.5,86.1667 279.5,92.8333 279.5,99.5C 272.833,99.5 266.167,99.5 259.5,99.5C 259.5,92.8333 259.5,86.1667 259.5,79.5 Z"/></g>
<g><path style="opacity:1" fill="#05e978" d="M 279.5,79.5 C 306.167,79.5 332.833,79.5 359.5,79.5C 359.5,86.1667 359.5,92.8333 359.5,99.5C 366.167,99.5 372.833,99.5 379.5,99.5C 379.5,106.167 379.5,112.833 379.5,119.5C 386.167,119.5 392.833,119.5 399.5,119.5C 399.5,132.833 399.5,146.167 399.5,159.5C 406.167,159.5 412.833,159.5 419.5,159.5C 426.167,159.5 432.833,159.5 439.5,159.5C 439.5,172.833 439.5,186.167 439.5,199.5C 446.167,199.5 452.833,199.5 459.5,199.5C 459.5,206.167 459.5,212.833 459.5,219.5C 366.167,219.5 272.833,219.5 179.5,219.5C 179.5,212.833 179.5,206.167 179.5,199.5C 186.167,199.5 192.833,199.5 199.5,199.5C 199.5,186.167 199.5,172.833 199.5,159.5C 206.167,159.5 212.833,159.5 219.5,159.5C 226.167,159.5 232.833,159.5 239.5,159.5C 239.5,146.167 239.5,132.833 239.5,119.5C 246.167,119.5 252.833,119.5 259.5,119.5C 259.5,112.833 259.5,106.167 259.5,99.5C 266.167,99.5 272.833,99.5 279.5,99.5C 279.5,92.8333 279.5,86.1667 279.5,79.5 Z"/></g>
<g><path style="opacity:1" fill="#81912c" d="M 359.5,79.5 C 366.167,79.5 372.833,79.5 379.5,79.5C 379.5,86.1667 379.5,92.8333 379.5,99.5C 372.833,99.5 366.167,99.5 359.5,99.5C 359.5,92.8333 359.5,86.1667 359.5,79.5 Z"/></g>
<g><path style="opacity:1" fill="#016a00" d="M 379.5,79.5 C 386.167,79.5 392.833,79.5 399.5,79.5C 399.5,86.1667 399.5,92.8333 399.5,99.5C 392.833,99.5 386.167,99.5 379.5,99.5C 379.5,92.8333 379.5,86.1667 379.5,79.5 Z"/></g>
<g><path style="opacity:1" fill="#016a00" d="M 239.5,99.5 C 239.5,106.167 239.5,112.833 239.5,119.5C 232.833,119.5 226.167,119.5 219.5,119.5C 219.5,112.833 219.5,106.167 219.5,99.5C 226.167,99.5 232.833,99.5 239.5,99.5 Z"/></g>
<g><path style="opacity:1" fill="#81912c" d="M 239.5,99.5 C 246.167,99.5 252.833,99.5 259.5,99.5C 259.5,106.167 259.5,112.833 259.5,119.5C 252.833,119.5 246.167,119.5 239.5,119.5C 239.5,112.833 239.5,106.167 239.5,99.5 Z"/></g>
<g><path style="opacity:1" fill="#81912c" d="M 379.5,99.5 C 386.167,99.5 392.833,99.5 399.5,99.5C 399.5,106.167 399.5,112.833 399.5,119.5C 392.833,119.5 386.167,119.5 379.5,119.5C 379.5,112.833 379.5,106.167 379.5,99.5 Z"/></g>
<g><path style="opacity:1" fill="#016a00" d="M 399.5,99.5 C 406.167,99.5 412.833,99.5 419.5,99.5C 419.5,106.167 419.5,112.833 419.5,119.5C 412.833,119.5 406.167,119.5 399.5,119.5C 399.5,112.833 399.5,106.167 399.5,99.5 Z"/></g>
<g><path style="opacity:1" fill="#016a00" d="M 219.5,119.5 C 219.5,132.833 219.5,146.167 219.5,159.5C 212.833,159.5 206.167,159.5 199.5,159.5C 199.5,146.167 199.5,132.833 199.5,119.5C 206.167,119.5 212.833,119.5 219.5,119.5 Z"/></g>
<g><path style="opacity:1" fill="#81912c" d="M 219.5,119.5 C 226.167,119.5 232.833,119.5 239.5,119.5C 239.5,132.833 239.5,146.167 239.5,159.5C 232.833,159.5 226.167,159.5 219.5,159.5C 219.5,146.167 219.5,132.833 219.5,119.5 Z"/></g>
<g><path style="opacity:1" fill="#81912c" d="M 399.5,119.5 C 406.167,119.5 412.833,119.5 419.5,119.5C 419.5,132.833 419.5,146.167 419.5,159.5C 412.833,159.5 406.167,159.5 399.5,159.5C 399.5,146.167 399.5,132.833 399.5,119.5 Z"/></g>
<g><path style="opacity:1" fill="#016a00" d="M 419.5,119.5 C 426.167,119.5 432.833,119.5 439.5,119.5C 439.5,132.833 439.5,146.167 439.5,159.5C 432.833,159.5 426.167,159.5 419.5,159.5C 419.5,146.167 419.5,132.833 419.5,119.5 Z"/></g>
<g><path style="opacity:1" fill="#016a00" d="M 199.5,159.5 C 199.5,172.833 199.5,186.167 199.5,199.5C 192.833,199.5 186.167,199.5 179.5,199.5C 179.5,186.167 179.5,172.833 179.5,159.5C 186.167,159.5 192.833,159.5 199.5,159.5 Z"/></g>
<g><path style="opacity:1" fill="#016a00" d="M 439.5,159.5 C 446.167,159.5 452.833,159.5 459.5,159.5C 459.5,172.833 459.5,186.167 459.5,199.5C 452.833,199.5 446.167,199.5 439.5,199.5C 439.5,186.167 439.5,172.833 439.5,159.5 Z"/></g>
<g><path style="opacity:1" fill="#016a00" d="M 179.5,199.5 C 179.5,206.167 179.5,212.833 179.5,219.5C 179.5,332.833 179.5,446.167 179.5,559.5C 179.5,566.167 179.5,572.833 179.5,579.5C 212.833,579.5 246.167,579.5 279.5,579.5C 279.5,566.167 279.5,552.833 279.5,539.5C 286.167,539.5 292.833,539.5 299.5,539.5C 299.5,546.167 299.5,552.833 299.5,559.5C 299.5,606.167 299.5,652.833 299.5,699.5C 299.5,712.833 299.5,726.167 299.5,739.5C 292.833,739.5 286.167,739.5 279.5,739.5C 279.5,726.167 279.5,712.833 279.5,699.5C 272.833,699.5 266.167,699.5 259.5,699.5C 252.833,699.5 246.167,699.5 239.5,699.5C 219.5,699.5 199.5,699.5 179.5,699.5C 179.5,692.833 179.5,686.167 179.5,679.5C 172.833,679.5 166.167,679.5 159.5,679.5C 159.5,626.167 159.5,572.833 159.5,519.5C 152.833,519.5 146.167,519.5 139.5,519.5C 132.833,519.5 126.167,519.5 119.5,519.5C 119.5,512.833 119.5,506.167 119.5,499.5C 132.833,499.5 146.167,499.5 159.5,499.5C 159.5,399.5 159.5,299.5 159.5,199.5C 166.167,199.5 172.833,199.5 179.5,199.5 Z"/></g>
<g><path style="opacity:1" fill="#016a00" d="M 459.5,199.5 C 466.167,199.5 472.833,199.5 479.5,199.5C 479.5,299.5 479.5,399.5 479.5,499.5C 492.833,499.5 506.167,499.5 519.5,499.5C 519.5,506.167 519.5,512.833 519.5,519.5C 512.833,519.5 506.167,519.5 499.5,519.5C 492.833,519.5 486.167,519.5 479.5,519.5C 479.5,572.833 479.5,626.167 479.5,679.5C 472.833,679.5 466.167,679.5 459.5,679.5C 459.5,686.167 459.5,692.833 459.5,699.5C 439.5,699.5 419.5,699.5 399.5,699.5C 392.833,699.5 386.167,699.5 379.5,699.5C 372.833,699.5 366.167,699.5 359.5,699.5C 359.5,712.833 359.5,726.167 359.5,739.5C 352.833,739.5 346.167,739.5 339.5,739.5C 339.5,726.167 339.5,712.833 339.5,699.5C 339.5,652.833 339.5,606.167 339.5,559.5C 339.5,552.833 339.5,546.167 339.5,539.5C 346.167,539.5 352.833,539.5 359.5,539.5C 359.5,552.833 359.5,566.167 359.5,579.5C 392.833,579.5 426.167,579.5 459.5,579.5C 459.5,572.833 459.5,566.167 459.5,559.5C 459.5,446.167 459.5,332.833 459.5,219.5C 459.5,212.833 459.5,206.167 459.5,199.5 Z"/></g>
<g><path style="opacity:1" fill="#6300d9" d="M 179.5,219.5 C 272.833,219.5 366.167,219.5 459.5,219.5C 459.5,332.833 459.5,446.167 459.5,559.5C 432.833,559.5 406.167,559.5 379.5,559.5C 379.5,552.833 379.5,546.167 379.5,539.5C 372.833,539.5 366.167,539.5 359.5,539.5C 359.5,532.833 359.5,526.167 359.5,519.5C 352.833,519.5 346.167,519.5 339.5,519.5C 339.5,512.833 339.5,506.167 339.5,499.5C 326.167,499.5 312.833,499.5 299.5,499.5C 299.5,506.167 299.5,512.833 299.5,519.5C 292.833,519.5 286.167,519.5 279.5,519.5C 279.5,526.167 279.5,532.833 279.5,539.5C 279.5,552.833 279.5,566.167 279.5,579.5C 246.167,579.5 212.833,579.5 179.5,579.5C 179.5,572.833 179.5,566.167 179.5,559.5C 179.5,446.167 179.5,332.833 179.5,219.5 Z"/></g>
<g><path style="opacity:1" fill="#016a00" d="M 359.5,279.5 C 332.833,279.5 306.167,279.5 279.5,279.5C 279.5,272.833 279.5,266.167 279.5,259.5C 306.167,259.5 332.833,259.5 359.5,259.5C 359.5,266.167 359.5,272.833 359.5,279.5 Z"/></g>
<g><path style="opacity:1" fill="#016a00" d="M 279.5,279.5 C 279.5,286.167 279.5,292.833 279.5,299.5C 272.833,299.5 266.167,299.5 259.5,299.5C 259.5,292.833 259.5,286.167 259.5,279.5C 266.167,279.5 272.833,279.5 279.5,279.5 Z"/></g>
<g><path style="opacity:1" fill="#d37ae5" d="M 279.5,279.5 C 306.167,279.5 332.833,279.5 359.5,279.5C 359.5,286.167 359.5,292.833 359.5,299.5C 366.167,299.5 372.833,299.5 379.5,299.5C 379.5,326.167 379.5,352.833 379.5,379.5C 372.833,379.5 366.167,379.5 359.5,379.5C 359.5,386.167 359.5,392.833 359.5,399.5C 332.833,399.5 306.167,399.5 279.5,399.5C 279.5,392.833 279.5,386.167 279.5,379.5C 272.833,379.5 266.167,379.5 259.5,379.5C 259.5,352.833 259.5,326.167 259.5,299.5C 266.167,299.5 272.833,299.5 279.5,299.5C 279.5,292.833 279.5,286.167 279.5,279.5 Z"/></g>
<g><path style="opacity:1" fill="#016a00" d="M 359.5,279.5 C 366.167,279.5 372.833,279.5 379.5,279.5C 379.5,286.167 379.5,292.833 379.5,299.5C 372.833,299.5 366.167,299.5 359.5,299.5C 359.5,292.833 359.5,286.167 359.5,279.5 Z"/></g>
<g><path style="opacity:1" fill="#016a00" d="M 259.5,299.5 C 259.5,326.167 259.5,352.833 259.5,379.5C 252.833,379.5 246.167,379.5 239.5,379.5C 239.5,352.833 239.5,326.167 239.5,299.5C 246.167,299.5 252.833,299.5 259.5,299.5 Z"/></g>
<g><path style="opacity:1" fill="#004b7d" d="M 359.5,299.5 C 359.5,312.833 359.5,326.167 359.5,339.5C 352.833,339.5 346.167,339.5 339.5,339.5C 339.5,332.833 339.5,326.167 339.5,319.5C 332.833,319.5 326.167,319.5 319.5,319.5C 319.5,312.833 319.5,306.167 319.5,299.5C 332.833,299.5 346.167,299.5 359.5,299.5 Z"/></g>
<g><path style="opacity:1" fill="#016a00" d="M 379.5,299.5 C 386.167,299.5 392.833,299.5 399.5,299.5C 399.5,326.167 399.5,352.833 399.5,379.5C 392.833,379.5 386.167,379.5 379.5,379.5C 379.5,352.833 379.5,326.167 379.5,299.5 Z"/></g>
<g><path style="opacity:1" fill="#004b7d" d="M 279.5,379.5 C 279.5,372.833 279.5,366.167 279.5,359.5C 286.167,359.5 292.833,359.5 299.5,359.5C 299.5,366.167 299.5,372.833 299.5,379.5C 292.833,379.5 286.167,379.5 279.5,379.5 Z"/></g>
<g><path style="opacity:1" fill="#016a00" d="M 259.5,379.5 C 266.167,379.5 272.833,379.5 279.5,379.5C 279.5,386.167 279.5,392.833 279.5,399.5C 272.833,399.5 266.167,399.5 259.5,399.5C 259.5,392.833 259.5,386.167 259.5,379.5 Z"/></g>
<g><path style="opacity:1" fill="#016a00" d="M 379.5,379.5 C 379.5,386.167 379.5,392.833 379.5,399.5C 372.833,399.5 366.167,399.5 359.5,399.5C 359.5,392.833 359.5,386.167 359.5,379.5C 366.167,379.5 372.833,379.5 379.5,379.5 Z"/></g>
<g><path style="opacity:1" fill="#016a00" d="M 279.5,399.5 C 306.167,399.5 332.833,399.5 359.5,399.5C 359.5,406.167 359.5,412.833 359.5,419.5C 332.833,419.5 306.167,419.5 279.5,419.5C 279.5,412.833 279.5,406.167 279.5,399.5 Z"/></g>
<g><path style="opacity:1" fill="#004b7d" d="M 339.5,519.5 C 326.167,519.5 312.833,519.5 299.5,519.5C 299.5,512.833 299.5,506.167 299.5,499.5C 312.833,499.5 326.167,499.5 339.5,499.5C 339.5,506.167 339.5,512.833 339.5,519.5 Z"/></g>
<g><path style="opacity:1" fill="#016a00" d="M 119.5,519.5 C 119.5,526.167 119.5,532.833 119.5,539.5C 112.833,539.5 106.167,539.5 99.5,539.5C 99.5,532.833 99.5,526.167 99.5,519.5C 106.167,519.5 112.833,519.5 119.5,519.5 Z"/></g>
<g><path style="opacity:1" fill="#05e978" d="M 119.5,519.5 C 126.167,519.5 132.833,519.5 139.5,519.5C 139.5,566.167 139.5,612.833 139.5,659.5C 132.833,659.5 126.167,659.5 119.5,659.5C 119.5,666.167 119.5,672.833 119.5,679.5C 112.833,679.5 106.167,679.5 99.5,679.5C 99.5,686.167 99.5,692.833 99.5,699.5C 86.1667,699.5 72.8333,699.5 59.5,699.5C 59.5,679.5 59.5,659.5 59.5,639.5C 66.1667,639.5 72.8333,639.5 79.5,639.5C 79.5,626.167 79.5,612.833 79.5,599.5C 86.1667,599.5 92.8333,599.5 99.5,599.5C 99.5,586.167 99.5,572.833 99.5,559.5C 106.167,559.5 112.833,559.5 119.5,559.5C 119.5,552.833 119.5,546.167 119.5,539.5C 119.5,532.833 119.5,526.167 119.5,519.5 Z"/></g>
<g><path style="opacity:1" fill="#01b584" d="M 139.5,519.5 C 146.167,519.5 152.833,519.5 159.5,519.5C 159.5,572.833 159.5,626.167 159.5,679.5C 152.833,679.5 146.167,679.5 139.5,679.5C 139.5,686.167 139.5,692.833 139.5,699.5C 132.833,699.5 126.167,699.5 119.5,699.5C 119.5,712.833 119.5,726.167 119.5,739.5C 99.5,739.5 79.5,739.5 59.5,739.5C 59.5,726.167 59.5,712.833 59.5,699.5C 72.8333,699.5 86.1667,699.5 99.5,699.5C 99.5,692.833 99.5,686.167 99.5,679.5C 106.167,679.5 112.833,679.5 119.5,679.5C 119.5,672.833 119.5,666.167 119.5,659.5C 126.167,659.5 132.833,659.5 139.5,659.5C 139.5,612.833 139.5,566.167 139.5,519.5 Z"/></g>
<g><path style="opacity:1" fill="#004b7d" d="M 299.5,519.5 C 299.5,526.167 299.5,532.833 299.5,539.5C 292.833,539.5 286.167,539.5 279.5,539.5C 279.5,532.833 279.5,526.167 279.5,519.5C 286.167,519.5 292.833,519.5 299.5,519.5 Z"/></g>
<g><path style="opacity:1" fill="#016a00" d="M 299.5,519.5 C 312.833,519.5 326.167,519.5 339.5,519.5C 339.5,526.167 339.5,532.833 339.5,539.5C 326.167,539.5 312.833,539.5 299.5,539.5C 299.5,532.833 299.5,526.167 299.5,519.5 Z"/></g>
<g><path style="opacity:1" fill="#004b7d" d="M 339.5,519.5 C 346.167,519.5 352.833,519.5 359.5,519.5C 359.5,526.167 359.5,532.833 359.5,539.5C 352.833,539.5 346.167,539.5 339.5,539.5C 339.5,532.833 339.5,526.167 339.5,519.5 Z"/></g>
<g><path style="opacity:1" fill="#01b584" d="M 499.5,519.5 C 499.5,566.167 499.5,612.833 499.5,659.5C 506.167,659.5 512.833,659.5 519.5,659.5C 519.5,666.167 519.5,672.833 519.5,679.5C 526.167,679.5 532.833,679.5 539.5,679.5C 539.5,686.167 539.5,692.833 539.5,699.5C 552.833,699.5 566.167,699.5 579.5,699.5C 579.5,712.833 579.5,726.167 579.5,739.5C 559.5,739.5 539.5,739.5 519.5,739.5C 519.5,726.167 519.5,712.833 519.5,699.5C 512.833,699.5 506.167,699.5 499.5,699.5C 499.5,692.833 499.5,686.167 499.5,679.5C 492.833,679.5 486.167,679.5 479.5,679.5C 479.5,626.167 479.5,572.833 479.5,519.5C 486.167,519.5 492.833,519.5 499.5,519.5 Z"/></g>
<g><path style="opacity:1" fill="#05e978" d="M 499.5,519.5 C 506.167,519.5 512.833,519.5 519.5,519.5C 519.5,526.167 519.5,532.833 519.5,539.5C 519.5,546.167 519.5,552.833 519.5,559.5C 526.167,559.5 532.833,559.5 539.5,559.5C 539.5,572.833 539.5,586.167 539.5,599.5C 546.167,599.5 552.833,599.5 559.5,599.5C 559.5,612.833 559.5,626.167 559.5,639.5C 566.167,639.5 572.833,639.5 579.5,639.5C 579.5,659.5 579.5,679.5 579.5,699.5C 566.167,699.5 552.833,699.5 539.5,699.5C 539.5,692.833 539.5,686.167 539.5,679.5C 532.833,679.5 526.167,679.5 519.5,679.5C 519.5,672.833 519.5,666.167 519.5,659.5C 512.833,659.5 506.167,659.5 499.5,659.5C 499.5,612.833 499.5,566.167 499.5,519.5 Z"/></g>
<g><path style="opacity:1" fill="#016a00" d="M 519.5,519.5 C 526.167,519.5 532.833,519.5 539.5,519.5C 539.5,526.167 539.5,532.833 539.5,539.5C 532.833,539.5 526.167,539.5 519.5,539.5C 519.5,532.833 519.5,526.167 519.5,519.5 Z"/></g>
<g><path style="opacity:1" fill="#016a00" d="M 99.5,539.5 C 99.5,546.167 99.5,552.833 99.5,559.5C 92.8333,559.5 86.1667,559.5 79.5,559.5C 79.5,552.833 79.5,546.167 79.5,539.5C 86.1667,539.5 92.8333,539.5 99.5,539.5 Z"/></g>
<g><path style="opacity:1" fill="#81912c" d="M 99.5,539.5 C 106.167,539.5 112.833,539.5 119.5,539.5C 119.5,546.167 119.5,552.833 119.5,559.5C 112.833,559.5 106.167,559.5 99.5,559.5C 99.5,552.833 99.5,546.167 99.5,539.5 Z"/></g>
<g><path style="opacity:1" fill="#004b7d" d="M 279.5,539.5 C 279.5,552.833 279.5,566.167 279.5,579.5C 246.167,579.5 212.833,579.5 179.5,579.5C 179.5,572.833 179.5,566.167 179.5,559.5C 206.167,559.5 232.833,559.5 259.5,559.5C 259.5,552.833 259.5,546.167 259.5,539.5C 266.167,539.5 272.833,539.5 279.5,539.5 Z"/></g>
<g><path style="opacity:1" fill="#81912c" d="M 299.5,539.5 C 312.833,539.5 326.167,539.5 339.5,539.5C 339.5,546.167 339.5,552.833 339.5,559.5C 326.167,559.5 312.833,559.5 299.5,559.5C 299.5,552.833 299.5,546.167 299.5,539.5 Z"/></g>
<g><path style="opacity:1" fill="#004b7d" d="M 359.5,539.5 C 366.167,539.5 372.833,539.5 379.5,539.5C 379.5,546.167 379.5,552.833 379.5,559.5C 406.167,559.5 432.833,559.5 459.5,559.5C 459.5,566.167 459.5,572.833 459.5,579.5C 426.167,579.5 392.833,579.5 359.5,579.5C 359.5,566.167 359.5,552.833 359.5,539.5 Z"/></g>
<g><path style="opacity:1" fill="#81912c" d="M 519.5,539.5 C 526.167,539.5 532.833,539.5 539.5,539.5C 539.5,546.167 539.5,552.833 539.5,559.5C 532.833,559.5 526.167,559.5 519.5,559.5C 519.5,552.833 519.5,546.167 519.5,539.5 Z"/></g>
<g><path style="opacity:1" fill="#016a00" d="M 539.5,539.5 C 546.167,539.5 552.833,539.5 559.5,539.5C 559.5,546.167 559.5,552.833 559.5,559.5C 552.833,559.5 546.167,559.5 539.5,559.5C 539.5,552.833 539.5,546.167 539.5,539.5 Z"/></g>
<g><path style="opacity:1" fill="#016a00" d="M 79.5,559.5 C 79.5,572.833 79.5,586.167 79.5,599.5C 72.8333,599.5 66.1667,599.5 59.5,599.5C 59.5,586.167 59.5,572.833 59.5,559.5C 66.1667,559.5 72.8333,559.5 79.5,559.5 Z"/></g>
<g><path style="opacity:1" fill="#81912c" d="M 79.5,559.5 C 86.1667,559.5 92.8333,559.5 99.5,559.5C 99.5,572.833 99.5,586.167 99.5,599.5C 92.8333,599.5 86.1667,599.5 79.5,599.5C 79.5,586.167 79.5,572.833 79.5,559.5 Z"/></g>
<g><path style="opacity:1" fill="#05e978" d="M 299.5,559.5 C 312.833,559.5 326.167,559.5 339.5,559.5C 339.5,606.167 339.5,652.833 339.5,699.5C 326.167,699.5 312.833,699.5 299.5,699.5C 299.5,652.833 299.5,606.167 299.5,559.5 Z"/></g>
<g><path style="opacity:1" fill="#81912c" d="M 539.5,559.5 C 546.167,559.5 552.833,559.5 559.5,559.5C 559.5,572.833 559.5,586.167 559.5,599.5C 552.833,599.5 546.167,599.5 539.5,599.5C 539.5,586.167 539.5,572.833 539.5,559.5 Z"/></g>
<g><path style="opacity:1" fill="#016a00" d="M 559.5,559.5 C 566.167,559.5 572.833,559.5 579.5,559.5C 579.5,572.833 579.5,586.167 579.5,599.5C 572.833,599.5 566.167,599.5 559.5,599.5C 559.5,586.167 559.5,572.833 559.5,559.5 Z"/></g>
<g><path style="opacity:1" fill="#016a00" d="M 59.5,599.5 C 59.5,612.833 59.5,626.167 59.5,639.5C 59.5,659.5 59.5,679.5 59.5,699.5C 59.5,712.833 59.5,726.167 59.5,739.5C 52.8333,739.5 46.1667,739.5 39.5,739.5C 39.5,692.833 39.5,646.167 39.5,599.5C 46.1667,599.5 52.8333,599.5 59.5,599.5 Z"/></g>
<g><path style="opacity:1" fill="#81912c" d="M 59.5,599.5 C 66.1667,599.5 72.8333,599.5 79.5,599.5C 79.5,612.833 79.5,626.167 79.5,639.5C 72.8333,639.5 66.1667,639.5 59.5,639.5C 59.5,626.167 59.5,612.833 59.5,599.5 Z"/></g>
<g><path style="opacity:1" fill="#05e978" d="M 259.5,599.5 C 259.5,606.167 259.5,612.833 259.5,619.5C 232.833,619.5 206.167,619.5 179.5,619.5C 179.5,612.833 179.5,606.167 179.5,599.5C 206.167,599.5 232.833,599.5 259.5,599.5 Z"/></g>
<g><path style="opacity:1" fill="#01b584" d="M 259.5,599.5 C 266.167,599.5 272.833,599.5 279.5,599.5C 279.5,612.833 279.5,626.167 279.5,639.5C 246.167,639.5 212.833,639.5 179.5,639.5C 179.5,632.833 179.5,626.167 179.5,619.5C 206.167,619.5 232.833,619.5 259.5,619.5C 259.5,612.833 259.5,606.167 259.5,599.5 Z"/></g>
<g><path style="opacity:1" fill="#01b584" d="M 379.5,599.5 C 379.5,606.167 379.5,612.833 379.5,619.5C 406.167,619.5 432.833,619.5 459.5,619.5C 459.5,626.167 459.5,632.833 459.5,639.5C 426.167,639.5 392.833,639.5 359.5,639.5C 359.5,626.167 359.5,612.833 359.5,599.5C 366.167,599.5 372.833,599.5 379.5,599.5 Z"/></g>
<g><path style="opacity:1" fill="#05e978" d="M 379.5,599.5 C 406.167,599.5 432.833,599.5 459.5,599.5C 459.5,606.167 459.5,612.833 459.5,619.5C 432.833,619.5 406.167,619.5 379.5,619.5C 379.5,612.833 379.5,606.167 379.5,599.5 Z"/></g>
<g><path style="opacity:1" fill="#81912c" d="M 559.5,599.5 C 566.167,599.5 572.833,599.5 579.5,599.5C 579.5,612.833 579.5,626.167 579.5,639.5C 572.833,639.5 566.167,639.5 559.5,639.5C 559.5,626.167 559.5,612.833 559.5,599.5 Z"/></g>
<g><path style="opacity:1" fill="#016a00" d="M 579.5,599.5 C 586.167,599.5 592.833,599.5 599.5,599.5C 599.5,646.167 599.5,692.833 599.5,739.5C 592.833,739.5 586.167,739.5 579.5,739.5C 579.5,726.167 579.5,712.833 579.5,699.5C 579.5,679.5 579.5,659.5 579.5,639.5C 579.5,626.167 579.5,612.833 579.5,599.5 Z"/></g>
<g><path style="opacity:1" fill="#00391c" d="M 179.5,679.5 C 179.5,672.833 179.5,666.167 179.5,659.5C 212.833,659.5 246.167,659.5 279.5,659.5C 279.5,666.167 279.5,672.833 279.5,679.5C 246.167,679.5 212.833,679.5 179.5,679.5 Z"/></g>
<g><path style="opacity:1" fill="#00391c" d="M 459.5,679.5 C 426.167,679.5 392.833,679.5 359.5,679.5C 359.5,672.833 359.5,666.167 359.5,659.5C 392.833,659.5 426.167,659.5 459.5,659.5C 459.5,666.167 459.5,672.833 459.5,679.5 Z"/></g>
<g><path style="opacity:1" fill="#016a00" d="M 159.5,679.5 C 159.5,686.167 159.5,692.833 159.5,699.5C 152.833,699.5 146.167,699.5 139.5,699.5C 139.5,692.833 139.5,686.167 139.5,679.5C 146.167,679.5 152.833,679.5 159.5,679.5 Z"/></g>
<g><path style="opacity:1" fill="#016a00" d="M 479.5,679.5 C 486.167,679.5 492.833,679.5 499.5,679.5C 499.5,686.167 499.5,692.833 499.5,699.5C 492.833,699.5 486.167,699.5 479.5,699.5C 479.5,692.833 479.5,686.167 479.5,679.5 Z"/></g>
<g><path style="opacity:1" fill="#016a00" d="M 139.5,699.5 C 139.5,712.833 139.5,726.167 139.5,739.5C 132.833,739.5 126.167,739.5 119.5,739.5C 119.5,726.167 119.5,712.833 119.5,699.5C 126.167,699.5 132.833,699.5 139.5,699.5 Z"/></g>
<g><path style="opacity:1" fill="#34c100" d="M 239.5,699.5 C 246.167,699.5 252.833,699.5 259.5,699.5C 259.5,712.833 259.5,726.167 259.5,739.5C 252.833,739.5 246.167,739.5 239.5,739.5C 239.5,772.833 239.5,806.167 239.5,839.5C 246.167,839.5 252.833,839.5 259.5,839.5C 259.5,846.167 259.5,852.833 259.5,859.5C 266.167,859.5 272.833,859.5 279.5,859.5C 279.5,866.167 279.5,872.833 279.5,879.5C 286.167,879.5 292.833,879.5 299.5,879.5C 299.5,886.167 299.5,892.833 299.5,899.5C 312.833,899.5 326.167,899.5 339.5,899.5C 339.5,892.833 339.5,886.167 339.5,879.5C 346.167,879.5 352.833,879.5 359.5,879.5C 359.5,872.833 359.5,866.167 359.5,859.5C 366.167,859.5 372.833,859.5 379.5,859.5C 379.5,852.833 379.5,846.167 379.5,839.5C 386.167,839.5 392.833,839.5 399.5,839.5C 399.5,806.167 399.5,772.833 399.5,739.5C 392.833,739.5 386.167,739.5 379.5,739.5C 379.5,726.167 379.5,712.833 379.5,699.5C 386.167,699.5 392.833,699.5 399.5,699.5C 399.5,706.167 399.5,712.833 399.5,719.5C 406.167,719.5 412.833,719.5 419.5,719.5C 419.5,732.833 419.5,746.167 419.5,759.5C 426.167,759.5 432.833,759.5 439.5,759.5C 439.5,779.5 439.5,799.5 439.5,819.5C 432.833,819.5 426.167,819.5 419.5,819.5C 419.5,832.833 419.5,846.167 419.5,859.5C 412.833,859.5 406.167,859.5 399.5,859.5C 399.5,866.167 399.5,872.833 399.5,879.5C 392.833,879.5 386.167,879.5 379.5,879.5C 379.5,886.167 379.5,892.833 379.5,899.5C 372.833,899.5 366.167,899.5 359.5,899.5C 359.5,906.167 359.5,912.833 359.5,919.5C 332.833,919.5 306.167,919.5 279.5,919.5C 279.5,912.833 279.5,906.167 279.5,899.5C 272.833,899.5 266.167,899.5 259.5,899.5C 259.5,892.833 259.5,886.167 259.5,879.5C 252.833,879.5 246.167,879.5 239.5,879.5C 239.5,872.833 239.5,866.167 239.5,859.5C 232.833,859.5 226.167,859.5 219.5,859.5C 219.5,846.167 219.5,832.833 219.5,819.5C 212.833,819.5 206.167,819.5 199.5,819.5C 199.5,799.5 199.5,779.5 199.5,759.5C 206.167,759.5 212.833,759.5 219.5,759.5C 219.5,746.167 219.5,732.833 219.5,719.5C 226.167,719.5 232.833,719.5 239.5,719.5C 239.5,712.833 239.5,706.167 239.5,699.5 Z"/></g>
<g><path style="opacity:1" fill="#8c1c62" d="M 259.5,699.5 C 266.167,699.5 272.833,699.5 279.5,699.5C 279.5,712.833 279.5,726.167 279.5,739.5C 279.5,746.167 279.5,752.833 279.5,759.5C 272.833,759.5 266.167,759.5 259.5,759.5C 259.5,779.5 259.5,799.5 259.5,819.5C 266.167,819.5 272.833,819.5 279.5,819.5C 279.5,826.167 279.5,832.833 279.5,839.5C 286.167,839.5 292.833,839.5 299.5,839.5C 299.5,846.167 299.5,852.833 299.5,859.5C 312.833,859.5 326.167,859.5 339.5,859.5C 339.5,852.833 339.5,846.167 339.5,839.5C 346.167,839.5 352.833,839.5 359.5,839.5C 359.5,832.833 359.5,826.167 359.5,819.5C 366.167,819.5 372.833,819.5 379.5,819.5C 379.5,799.5 379.5,779.5 379.5,759.5C 372.833,759.5 366.167,759.5 359.5,759.5C 359.5,752.833 359.5,746.167 359.5,739.5C 359.5,726.167 359.5,712.833 359.5,699.5C 366.167,699.5 372.833,699.5 379.5,699.5C 379.5,712.833 379.5,726.167 379.5,739.5C 386.167,739.5 392.833,739.5 399.5,739.5C 399.5,772.833 399.5,806.167 399.5,839.5C 392.833,839.5 386.167,839.5 379.5,839.5C 379.5,846.167 379.5,852.833 379.5,859.5C 372.833,859.5 366.167,859.5 359.5,859.5C 359.5,866.167 359.5,872.833 359.5,879.5C 352.833,879.5 346.167,879.5 339.5,879.5C 339.5,886.167 339.5,892.833 339.5,899.5C 326.167,899.5 312.833,899.5 299.5,899.5C 299.5,892.833 299.5,886.167 299.5,879.5C 292.833,879.5 286.167,879.5 279.5,879.5C 279.5,872.833 279.5,866.167 279.5,859.5C 272.833,859.5 266.167,859.5 259.5,859.5C 259.5,852.833 259.5,846.167 259.5,839.5C 252.833,839.5 246.167,839.5 239.5,839.5C 239.5,806.167 239.5,772.833 239.5,739.5C 246.167,739.5 252.833,739.5 259.5,739.5C 259.5,726.167 259.5,712.833 259.5,699.5 Z"/></g>
<g><path style="opacity:1" fill="#01b584" d="M 299.5,699.5 C 312.833,699.5 326.167,699.5 339.5,699.5C 339.5,712.833 339.5,726.167 339.5,739.5C 326.167,739.5 312.833,739.5 299.5,739.5C 299.5,726.167 299.5,712.833 299.5,699.5 Z"/></g>
<g><path style="opacity:1" fill="#016a00" d="M 499.5,699.5 C 506.167,699.5 512.833,699.5 519.5,699.5C 519.5,712.833 519.5,726.167 519.5,739.5C 512.833,739.5 506.167,739.5 499.5,739.5C 499.5,726.167 499.5,712.833 499.5,699.5 Z"/></g>
<g><path style="opacity:1" fill="#016a00" d="M 59.5,739.5 C 79.5,739.5 99.5,739.5 119.5,739.5C 119.5,746.167 119.5,752.833 119.5,759.5C 99.5,759.5 79.5,759.5 59.5,759.5C 59.5,752.833 59.5,746.167 59.5,739.5 Z"/></g>
<g><path style="opacity:1" fill="#9c1b01" d="M 279.5,739.5 C 286.167,739.5 292.833,739.5 299.5,739.5C 299.5,746.167 299.5,752.833 299.5,759.5C 312.833,759.5 326.167,759.5 339.5,759.5C 339.5,752.833 339.5,746.167 339.5,739.5C 346.167,739.5 352.833,739.5 359.5,739.5C 359.5,746.167 359.5,752.833 359.5,759.5C 366.167,759.5 372.833,759.5 379.5,759.5C 379.5,779.5 379.5,799.5 379.5,819.5C 372.833,819.5 366.167,819.5 359.5,819.5C 359.5,826.167 359.5,832.833 359.5,839.5C 352.833,839.5 346.167,839.5 339.5,839.5C 339.5,846.167 339.5,852.833 339.5,859.5C 326.167,859.5 312.833,859.5 299.5,859.5C 299.5,852.833 299.5,846.167 299.5,839.5C 292.833,839.5 286.167,839.5 279.5,839.5C 279.5,832.833 279.5,826.167 279.5,819.5C 272.833,819.5 266.167,819.5 259.5,819.5C 259.5,799.5 259.5,779.5 259.5,759.5C 266.167,759.5 272.833,759.5 279.5,759.5C 279.5,752.833 279.5,746.167 279.5,739.5 Z"/></g>
<g><path style="opacity:1" fill="#016a00" d="M 299.5,739.5 C 312.833,739.5 326.167,739.5 339.5,739.5C 339.5,746.167 339.5,752.833 339.5,759.5C 326.167,759.5 312.833,759.5 299.5,759.5C 299.5,752.833 299.5,746.167 299.5,739.5 Z"/></g>
<g><path style="opacity:1" fill="#016a00" d="M 519.5,739.5 C 539.5,739.5 559.5,739.5 579.5,739.5C 579.5,746.167 579.5,752.833 579.5,759.5C 559.5,759.5 539.5,759.5 519.5,759.5C 519.5,752.833 519.5,746.167 519.5,739.5 Z"/></g>
</svg>
