<?xml version="1.0" encoding="UTF-8"?>
<!DOCTYPE svg PUBLIC "-//W3C//DTD SVG 1.1//EN" "http://www.w3.org/Graphics/SVG/1.1/DTD/svg11.dtd">
<svg xmlns="http://www.w3.org/2000/svg" version="1.1" width="640px" height="960px" style="shape-rendering:geometricPrecision; text-rendering:geometricPrecision; image-rendering:optimizeQuality; fill-rule:evenodd; clip-rule:evenodd" xmlns:xlink="http://www.w3.org/1999/xlink">
<g><path style="opacity:1" fill="#b12dfe" d="M 299.5,-0.5 C 319.5,-0.5 339.5,-0.5 359.5,-0.5C 359.5,6.16667 359.5,12.8333 359.5,19.5C 372.833,19.5 386.167,19.5 399.5,19.5C 399.5,32.8333 399.5,46.1667 399.5,59.5C 392.833,59.5 386.167,59.5 379.5,59.5C 379.5,52.8333 379.5,46.1667 379.5,39.5C 366.167,39.5 352.833,39.5 339.5,39.5C 339.5,32.8333 339.5,26.1667 339.5,19.5C 326.167,19.5 312.833,19.5 299.5,19.5C 299.5,12.8333 299.5,6.16667 299.5,-0.5 Z"/></g>
<g><path style="opacity:1" fill="#b12dfe" d="M 299.5,19.5 C 299.5,26.1667 299.5,32.8333 299.5,39.5C 292.833,39.5 286.167,39.5 279.5,39.5C 279.5,32.8333 279.5,26.1667 279.5,19.5C 286.167,19.5 292.833,19.5 299.5,19.5 Z"/></g>
<g><path style="opacity:1" fill="#6050fe" d="M 299.5,19.5 C 312.833,19.5 326.167,19.5 339.5,19.5C 339.5,26.1667 339.5,32.8333 339.5,39.5C 352.833,39.5 366.167,39.5 379.5,39.5C 379.5,46.1667 379.5,52.8333 379.5,59.5C 359.5,59.5 339.5,59.5 319.5,59.5C 319.5,52.8333 319.5,46.1667 319.5,39.5C 312.833,39.5 306.167,39.5 299.5,39.5C 299.5,32.8333 299.5,26.1667 299.5,19.5 Z"/></g>
<g><path style="opacity:1" fill="#b12dfe" d="M 279.5,39.5 C 279.5,46.1667 279.5,52.8333 279.5,59.5C 272.833,59.5 266.167,59.5 259.5,59.5C 259.5,52.8333 259.5,46.1667 259.5,39.5C 266.167,39.5 272.833,39.5 279.5,39.5 Z"/></g>
<g><path style="opacity:1" fill="#6050fe" d="M 279.5,39.5 C 286.167,39.5 292.833,39.5 299.5,39.5C 299.5,46.1667 299.5,52.8333 299.5,59.5C 292.833,59.5 286.167,59.5 279.5,59.5C 279.5,52.8333 279.5,46.1667 279.5,39.5 Z"/></g>
<g><path style="opacity:1" fill="#e094cb" d="M 299.5,39.5 C 306.167,39.5 312.833,39.5 319.5,39.5C 319.5,46.1667 319.5,52.8333 319.5,59.5C 339.5,59.5 359.5,59.5 379.5,59.5C 379.5,66.1667 379.5,72.8333 379.5,79.5C 386.167,79.5 392.833,79.5 399.5,79.5C 399.5,86.1667 399.5,92.8333 399.5,99.5C 406.167,99.5 412.833,99.5 419.5,99.5C 419.5,112.833 419.5,126.167 419.5,139.5C 426.167,139.5 432.833,139.5 439.5,139.5C 446.167,139.5 452.833,139.5 459.5,139.5C 459.5,146.167 459.5,152.833 459.5,159.5C 459.5,172.833 459.5,186.167 459.5,199.5C 466.167,199.5 472.833,199.5 479.5,199.5C 479.5,206.167 479.5,212.833 479.5,219.5C 466.167,219.5 452.833,219.5 439.5,219.5C 439.5,212.833 439.5,206.167 439.5,199.5C 372.833,199.5 306.167,199.5 239.5,199.5C 239.5,192.833 239.5,186.167 239.5,179.5C 226.167,179.5 212.833,179.5 199.5,179.5C 199.5,172.833 199.5,166.167 199.5,159.5C 206.167,159.5 212.833,159.5 219.5,159.5C 219.5,146.167 219.5,132.833 219.5,119.5C 226.167,119.5 232.833,119.5 239.5,119.5C 246.167,119.5 252.833,119.5 259.5,119.5C 259.5,106.167 259.5,92.8333 259.5,79.5C 266.167,79.5 272.833,79.5 279.5,79.5C 279.5,72.8333 279.5,66.1667 279.5,59.5C 286.167,59.5 292.833,59.5 299.5,59.5C 299.5,52.8333 299.5,46.1667 299.5,39.5 Z"/></g>
<g><path style="opacity:1" fill="#b12dfe" d="M 259.5,59.5 C 259.5,66.1667 259.5,72.8333 259.5,79.5C 252.833,79.5 246.167,79.5 239.5,79.5C 239.5,72.8333 239.5,66.1667 239.5,59.5C 246.167,59.5 252.833,59.5 259.5,59.5 Z"/></g>
<g><path style="opacity:1" fill="#6050fe" d="M 259.5,59.5 C 266.167,59.5 272.833,59.5 279.5,59.5C 279.5,66.1667 279.5,72.8333 279.5,79.5C 272.833,79.5 266.167,79.5 259.5,79.5C 259.5,72.8333 259.5,66.1667 259.5,59.5 Z"/></g>
<g><path style="opacity:1" fill="#6050fe" d="M 379.5,59.5 C 386.167,59.5 392.833,59.5 399.5,59.5C 399.5,66.1667 399.5,72.8333 399.5,79.5C 392.833,79.5 386.167,79.5 379.5,79.5C 379.5,72.8333 379.5,66.1667 379.5,59.5 Z"/></g>
<g><path style="opacity:1" fill="#b12dfe" d="M 399.5,59.5 C 406.167,59.5 412.833,59.5 419.5,59.5C 419.5,66.1667 419.5,72.8333 419.5,79.5C 412.833,79.5 406.167,79.5 399.5,79.5C 399.5,72.8333 399.5,66.1667 399.5,59.5 Z"/></g>
<g><path style="opacity:1" fill="#b12dfe" d="M 239.5,79.5 C 239.5,92.8333 239.5,106.167 239.5,119.5C 232.833,119.5 226.167,119.5 219.5,119.5C 219.5,106.167 219.5,92.8333 219.5,79.5C 226.167,79.5 232.833,79.5 239.5,79.5 Z"/></g>
<g><path style="opacity:1" fill="#6050fe" d="M 239.5,79.5 C 246.167,79.5 252.833,79.5 259.5,79.5C 259.5,92.8333 259.5,106.167 259.5,119.5C 252.833,119.5 246.167,119.5 239.5,119.5C 239.5,106.167 239.5,92.8333 239.5,79.5 Z"/></g>
<g><path style="opacity:1" fill="#6050fe" d="M 399.5,79.5 C 406.167,79.5 412.833,79.5 419.5,79.5C 419.5,86.1667 419.5,92.8333 419.5,99.5C 412.833,99.5 406.167,99.5 399.5,99.5C 399.5,92.8333 399.5,86.1667 399.5,79.5 Z"/></g>
<g><path style="opacity:1" fill="#b12dfe" d="M 419.5,79.5 C 426.167,79.5 432.833,79.5 439.5,79.5C 439.5,86.1667 439.5,92.8333 439.5,99.5C 432.833,99.5 426.167,99.5 419.5,99.5C 419.5,92.8333 419.5,86.1667 419.5,79.5 Z"/></g>
<g><path style="opacity:1" fill="#6050fe" d="M 419.5,99.5 C 426.167,99.5 432.833,99.5 439.5,99.5C 439.5,112.833 439.5,126.167 439.5,139.5C 432.833,139.5 426.167,139.5 419.5,139.5C 419.5,126.167 419.5,112.833 419.5,99.5 Z"/></g>
<g><path style="opacity:1" fill="#b12dfe" d="M 439.5,99.5 C 446.167,99.5 452.833,99.5 459.5,99.5C 459.5,112.833 459.5,126.167 459.5,139.5C 452.833,139.5 446.167,139.5 439.5,139.5C 439.5,126.167 439.5,112.833 439.5,99.5 Z"/></g>
<g><path style="opacity:1" fill="#b12dfe" d="M 219.5,119.5 C 219.5,132.833 219.5,146.167 219.5,159.5C 212.833,159.5 206.167,159.5 199.5,159.5C 199.5,146.167 199.5,132.833 199.5,119.5C 206.167,119.5 212.833,119.5 219.5,119.5 Z"/></g>
<g><path style="opacity:1" fill="#b12dfe" d="M 199.5,159.5 C 199.5,166.167 199.5,172.833 199.5,179.5C 192.833,179.5 186.167,179.5 179.5,179.5C 179.5,172.833 179.5,166.167 179.5,159.5C 186.167,159.5 192.833,159.5 199.5,159.5 Z"/></g>
<g><path style="opacity:1" fill="#b12dfe" d="M 459.5,159.5 C 466.167,159.5 472.833,159.5 479.5,159.5C 479.5,172.833 479.5,186.167 479.5,199.5C 472.833,199.5 466.167,199.5 459.5,199.5C 459.5,186.167 459.5,172.833 459.5,159.5 Z"/></g>
<g><path style="opacity:1" fill="#b12dfe" d="M 179.5,179.5 C 179.5,266.167 179.5,352.833 179.5,439.5C 172.833,439.5 166.167,439.5 159.5,439.5C 159.5,472.833 159.5,506.167 159.5,539.5C 159.5,546.167 159.5,552.833 159.5,559.5C 172.833,559.5 186.167,559.5 199.5,559.5C 199.5,566.167 199.5,572.833 199.5,579.5C 219.5,579.5 239.5,579.5 259.5,579.5C 259.5,566.167 259.5,552.833 259.5,539.5C 266.167,539.5 272.833,539.5 279.5,539.5C 279.5,546.167 279.5,552.833 279.5,559.5C 279.5,606.167 279.5,652.833 279.5,699.5C 279.5,712.833 279.5,726.167 279.5,739.5C 272.833,739.5 266.167,739.5 259.5,739.5C 259.5,726.167 259.5,712.833 259.5,699.5C 226.167,699.5 192.833,699.5 159.5,699.5C 159.5,692.833 159.5,686.167 159.5,679.5C 139.5,679.5 119.5,679.5 99.5,679.5C 99.5,672.833 99.5,666.167 99.5,659.5C 112.833,659.5 126.167,659.5 139.5,659.5C 139.5,606.167 139.5,552.833 139.5,499.5C 132.833,499.5 126.167,499.5 119.5,499.5C 112.833,499.5 106.167,499.5 99.5,499.5C 99.5,492.833 99.5,486.167 99.5,479.5C 112.833,479.5 126.167,479.5 139.5,479.5C 139.5,459.5 139.5,439.5 139.5,419.5C 146.167,419.5 152.833,419.5 159.5,419.5C 159.5,339.5 159.5,259.5 159.5,179.5C 166.167,179.5 172.833,179.5 179.5,179.5 Z"/></g>
<g><path style="opacity:1" fill="#6c3cb4" d="M 179.5,179.5 C 186.167,179.5 192.833,179.5 199.5,179.5C 212.833,179.5 226.167,179.5 239.5,179.5C 239.5,186.167 239.5,192.833 239.5,199.5C 306.167,199.5 372.833,199.5 439.5,199.5C 439.5,206.167 439.5,212.833 439.5,219.5C 452.833,219.5 466.167,219.5 479.5,219.5C 479.5,259.5 479.5,299.5 479.5,339.5C 472.833,339.5 466.167,339.5 459.5,339.5C 459.5,419.5 459.5,499.5 459.5,579.5C 446.167,579.5 432.833,579.5 419.5,579.5C 419.5,572.833 419.5,566.167 419.5,559.5C 406.167,559.5 392.833,559.5 379.5,559.5C 379.5,552.833 379.5,546.167 379.5,539.5C 372.833,539.5 366.167,539.5 359.5,539.5C 359.5,532.833 359.5,526.167 359.5,519.5C 352.833,519.5 346.167,519.5 339.5,519.5C 339.5,512.833 339.5,506.167 339.5,499.5C 319.5,499.5 299.5,499.5 279.5,499.5C 279.5,506.167 279.5,512.833 279.5,519.5C 272.833,519.5 266.167,519.5 259.5,519.5C 259.5,526.167 259.5,532.833 259.5,539.5C 252.833,539.5 246.167,539.5 239.5,539.5C 239.5,546.167 239.5,552.833 239.5,559.5C 232.833,559.5 226.167,559.5 219.5,559.5C 219.5,552.833 219.5,546.167 219.5,539.5C 199.5,539.5 179.5,539.5 159.5,539.5C 159.5,506.167 159.5,472.833 159.5,439.5C 166.167,439.5 172.833,439.5 179.5,439.5C 179.5,352.833 179.5,266.167 179.5,179.5 Z"/></g>
<g><path style="opacity:1" fill="#b12dfe" d="M 479.5,199.5 C 486.167,199.5 492.833,199.5 499.5,199.5C 499.5,252.833 499.5,306.167 499.5,359.5C 492.833,359.5 486.167,359.5 479.5,359.5C 479.5,412.833 479.5,466.167 479.5,519.5C 492.833,519.5 506.167,519.5 519.5,519.5C 519.5,526.167 519.5,532.833 519.5,539.5C 512.833,539.5 506.167,539.5 499.5,539.5C 492.833,539.5 486.167,539.5 479.5,539.5C 479.5,559.5 479.5,579.5 479.5,599.5C 472.833,599.5 466.167,599.5 459.5,599.5C 459.5,592.833 459.5,586.167 459.5,579.5C 459.5,499.5 459.5,419.5 459.5,339.5C 466.167,339.5 472.833,339.5 479.5,339.5C 479.5,299.5 479.5,259.5 479.5,219.5C 479.5,212.833 479.5,206.167 479.5,199.5 Z"/></g>
<g><path style="opacity:1" fill="#b12dfe" d="M 379.5,259.5 C 346.167,259.5 312.833,259.5 279.5,259.5C 279.5,252.833 279.5,246.167 279.5,239.5C 312.833,239.5 346.167,239.5 379.5,239.5C 379.5,246.167 379.5,252.833 379.5,259.5 Z"/></g>
<g><path style="opacity:1" fill="#b12dfe" d="M 279.5,259.5 C 279.5,266.167 279.5,272.833 279.5,279.5C 272.833,279.5 266.167,279.5 259.5,279.5C 259.5,272.833 259.5,266.167 259.5,259.5C 266.167,259.5 272.833,259.5 279.5,259.5 Z"/></g>
<g><path style="opacity:1" fill="#a248ae" d="M 279.5,259.5 C 312.833,259.5 346.167,259.5 379.5,259.5C 379.5,299.5 379.5,339.5 379.5,379.5C 372.833,379.5 366.167,379.5 359.5,379.5C 359.5,386.167 359.5,392.833 359.5,399.5C 346.167,399.5 332.833,399.5 319.5,399.5C 319.5,392.833 319.5,386.167 319.5,379.5C 306.167,379.5 292.833,379.5 279.5,379.5C 279.5,372.833 279.5,366.167 279.5,359.5C 272.833,359.5 266.167,359.5 259.5,359.5C 259.5,332.833 259.5,306.167 259.5,279.5C 266.167,279.5 272.833,279.5 279.5,279.5C 279.5,272.833 279.5,266.167 279.5,259.5 Z"/></g>
<g><path style="opacity:1" fill="#b12dfe" d="M 379.5,259.5 C 386.167,259.5 392.833,259.5 399.5,259.5C 399.5,299.5 399.5,339.5 399.5,379.5C 392.833,379.5 386.167,379.5 379.5,379.5C 379.5,339.5 379.5,299.5 379.5,259.5 Z"/></g>
<g><path style="opacity:1" fill="#b12dfe" d="M 259.5,279.5 C 259.5,306.167 259.5,332.833 259.5,359.5C 252.833,359.5 246.167,359.5 239.5,359.5C 239.5,332.833 239.5,306.167 239.5,279.5C 246.167,279.5 252.833,279.5 259.5,279.5 Z"/></g>
<g><path style="opacity:1" fill="#4f0fa8" d="M 319.5,279.5 C 332.833,279.5 346.167,279.5 359.5,279.5C 359.5,292.833 359.5,306.167 359.5,319.5C 352.833,319.5 346.167,319.5 339.5,319.5C 339.5,312.833 339.5,306.167 339.5,299.5C 332.833,299.5 326.167,299.5 319.5,299.5C 319.5,292.833 319.5,286.167 319.5,279.5 Z"/></g>
<g><path style="opacity:1" fill="#4f0fa8" d="M 279.5,359.5 C 279.5,352.833 279.5,346.167 279.5,339.5C 286.167,339.5 292.833,339.5 299.5,339.5C 299.5,346.167 299.5,352.833 299.5,359.5C 292.833,359.5 286.167,359.5 279.5,359.5 Z"/></g>
<g><path style="opacity:1" fill="#b12dfe" d="M 259.5,359.5 C 266.167,359.5 272.833,359.5 279.5,359.5C 279.5,366.167 279.5,372.833 279.5,379.5C 272.833,379.5 266.167,379.5 259.5,379.5C 259.5,372.833 259.5,366.167 259.5,359.5 Z"/></g>
<g><path style="opacity:1" fill="#b12dfe" d="M 279.5,379.5 C 292.833,379.5 306.167,379.5 319.5,379.5C 319.5,386.167 319.5,392.833 319.5,399.5C 332.833,399.5 346.167,399.5 359.5,399.5C 359.5,406.167 359.5,412.833 359.5,419.5C 339.5,419.5 319.5,419.5 299.5,419.5C 299.5,412.833 299.5,406.167 299.5,399.5C 292.833,399.5 286.167,399.5 279.5,399.5C 279.5,392.833 279.5,386.167 279.5,379.5 Z"/></g>
<g><path style="opacity:1" fill="#b12dfe" d="M 379.5,379.5 C 379.5,386.167 379.5,392.833 379.5,399.5C 372.833,399.5 366.167,399.5 359.5,399.5C 359.5,392.833 359.5,386.167 359.5,379.5C 366.167,379.5 372.833,379.5 379.5,379.5 Z"/></g>
<g><path style="opacity:1" fill="#b12dfe" d="M 99.5,499.5 C 99.5,506.167 99.5,512.833 99.5,519.5C 92.8333,519.5 86.1667,519.5 79.5,519.5C 79.5,512.833 79.5,506.167 79.5,499.5C 86.1667,499.5 92.8333,499.5 99.5,499.5 Z"/></g>
<g><path style="opacity:1" fill="#e094cb" d="M 99.5,499.5 C 106.167,499.5 112.833,499.5 119.5,499.5C 119.5,546.167 119.5,592.833 119.5,639.5C 112.833,639.5 106.167,639.5 99.5,639.5C 99.5,646.167 99.5,652.833 99.5,659.5C 86.1667,659.5 72.8333,659.5 59.5,659.5C 59.5,666.167 59.5,672.833 59.5,679.5C 46.1667,679.5 32.8333,679.5 19.5,679.5C 19.5,659.5 19.5,639.5 19.5,619.5C 26.1667,619.5 32.8333,619.5 39.5,619.5C 46.1667,619.5 52.8333,619.5 59.5,619.5C 59.5,606.167 59.5,592.833 59.5,579.5C 66.1667,579.5 72.8333,579.5 79.5,579.5C 79.5,566.167 79.5,552.833 79.5,539.5C 86.1667,539.5 92.8333,539.5 99.5,539.5C 99.5,532.833 99.5,526.167 99.5,519.5C 99.5,512.833 99.5,506.167 99.5,499.5 Z"/></g>
<g><path style="opacity:1" fill="#f57eda" d="M 119.5,499.5 C 126.167,499.5 132.833,499.5 139.5,499.5C 139.5,552.833 139.5,606.167 139.5,659.5C 126.167,659.5 112.833,659.5 99.5,659.5C 99.5,652.833 99.5,646.167 99.5,639.5C 106.167,639.5 112.833,639.5 119.5,639.5C 119.5,592.833 119.5,546.167 119.5,499.5 Z"/></g>
<g><path style="opacity:1" fill="#4f0fa8" d="M 459.5,579.5 C 459.5,586.167 459.5,592.833 459.5,599.5C 439.5,599.5 419.5,599.5 399.5,599.5C 399.5,592.833 399.5,586.167 399.5,579.5C 379.5,579.5 359.5,579.5 339.5,579.5C 339.5,566.167 339.5,552.833 339.5,539.5C 332.833,539.5 326.167,539.5 319.5,539.5C 319.5,532.833 319.5,526.167 319.5,519.5C 306.167,519.5 292.833,519.5 279.5,519.5C 279.5,512.833 279.5,506.167 279.5,499.5C 299.5,499.5 319.5,499.5 339.5,499.5C 339.5,506.167 339.5,512.833 339.5,519.5C 346.167,519.5 352.833,519.5 359.5,519.5C 359.5,526.167 359.5,532.833 359.5,539.5C 366.167,539.5 372.833,539.5 379.5,539.5C 379.5,546.167 379.5,552.833 379.5,559.5C 392.833,559.5 406.167,559.5 419.5,559.5C 419.5,566.167 419.5,572.833 419.5,579.5C 432.833,579.5 446.167,579.5 459.5,579.5 Z"/></g>
<g><path style="opacity:1" fill="#b12dfe" d="M 79.5,519.5 C 79.5,526.167 79.5,532.833 79.5,539.5C 72.8333,539.5 66.1667,539.5 59.5,539.5C 59.5,532.833 59.5,526.167 59.5,519.5C 66.1667,519.5 72.8333,519.5 79.5,519.5 Z"/></g>
<g><path style="opacity:1" fill="#6050fe" d="M 79.5,519.5 C 86.1667,519.5 92.8333,519.5 99.5,519.5C 99.5,526.167 99.5,532.833 99.5,539.5C 92.8333,539.5 86.1667,539.5 79.5,539.5C 79.5,532.833 79.5,526.167 79.5,519.5 Z"/></g>
<g><path style="opacity:1" fill="#4f0fa8" d="M 279.5,519.5 C 279.5,526.167 279.5,532.833 279.5,539.5C 272.833,539.5 266.167,539.5 259.5,539.5C 259.5,532.833 259.5,526.167 259.5,519.5C 266.167,519.5 272.833,519.5 279.5,519.5 Z"/></g>
<g><path style="opacity:1" fill="#b12dfe" d="M 279.5,519.5 C 292.833,519.5 306.167,519.5 319.5,519.5C 319.5,526.167 319.5,532.833 319.5,539.5C 306.167,539.5 292.833,539.5 279.5,539.5C 279.5,532.833 279.5,526.167 279.5,519.5 Z"/></g>
<g><path style="opacity:1" fill="#b12dfe" d="M 59.5,539.5 C 59.5,552.833 59.5,566.167 59.5,579.5C 52.8333,579.5 46.1667,579.5 39.5,579.5C 39.5,566.167 39.5,552.833 39.5,539.5C 46.1667,539.5 52.8333,539.5 59.5,539.5 Z"/></g>
<g><path style="opacity:1" fill="#6050fe" d="M 59.5,539.5 C 66.1667,539.5 72.8333,539.5 79.5,539.5C 79.5,552.833 79.5,566.167 79.5,579.5C 72.8333,579.5 66.1667,579.5 59.5,579.5C 59.5,566.167 59.5,552.833 59.5,539.5 Z"/></g>
<g><path style="opacity:1" fill="#4f0fa8" d="M 159.5,539.5 C 179.5,539.5 199.5,539.5 219.5,539.5C 219.5,546.167 219.5,552.833 219.5,559.5C 226.167,559.5 232.833,559.5 239.5,559.5C 239.5,552.833 239.5,546.167 239.5,539.5C 246.167,539.5 252.833,539.5 259.5,539.5C 259.5,552.833 259.5,566.167 259.5,579.5C 239.5,579.5 219.5,579.5 199.5,579.5C 199.5,572.833 199.5,566.167 199.5,559.5C 186.167,559.5 172.833,559.5 159.5,559.5C 159.5,552.833 159.5,546.167 159.5,539.5 Z"/></g>
<g><path style="opacity:1" fill="#6050fe" d="M 279.5,539.5 C 292.833,539.5 306.167,539.5 319.5,539.5C 319.5,546.167 319.5,552.833 319.5,559.5C 306.167,559.5 292.833,559.5 279.5,559.5C 279.5,552.833 279.5,546.167 279.5,539.5 Z"/></g>
<g><path style="opacity:1" fill="#b12dfe" d="M 319.5,539.5 C 326.167,539.5 332.833,539.5 339.5,539.5C 339.5,552.833 339.5,566.167 339.5,579.5C 359.5,579.5 379.5,579.5 399.5,579.5C 399.5,586.167 399.5,592.833 399.5,599.5C 419.5,599.5 439.5,599.5 459.5,599.5C 459.5,632.833 459.5,666.167 459.5,699.5C 452.833,699.5 446.167,699.5 439.5,699.5C 439.5,706.167 439.5,712.833 439.5,719.5C 406.167,719.5 372.833,719.5 339.5,719.5C 339.5,732.833 339.5,746.167 339.5,759.5C 332.833,759.5 326.167,759.5 319.5,759.5C 319.5,739.5 319.5,719.5 319.5,699.5C 319.5,652.833 319.5,606.167 319.5,559.5C 319.5,552.833 319.5,546.167 319.5,539.5 Z"/></g>
<g><path style="opacity:1" fill="#f57eda" d="M 499.5,539.5 C 499.5,566.167 499.5,592.833 499.5,619.5C 492.833,619.5 486.167,619.5 479.5,619.5C 479.5,639.5 479.5,659.5 479.5,679.5C 486.167,679.5 492.833,679.5 499.5,679.5C 499.5,686.167 499.5,692.833 499.5,699.5C 506.167,699.5 512.833,699.5 519.5,699.5C 519.5,712.833 519.5,726.167 519.5,739.5C 532.833,739.5 546.167,739.5 559.5,739.5C 559.5,752.833 559.5,766.167 559.5,779.5C 539.5,779.5 519.5,779.5 499.5,779.5C 499.5,772.833 499.5,766.167 499.5,759.5C 499.5,746.167 499.5,732.833 499.5,719.5C 492.833,719.5 486.167,719.5 479.5,719.5C 479.5,712.833 479.5,706.167 479.5,699.5C 472.833,699.5 466.167,699.5 459.5,699.5C 459.5,666.167 459.5,632.833 459.5,599.5C 466.167,599.5 472.833,599.5 479.5,599.5C 479.5,579.5 479.5,559.5 479.5,539.5C 486.167,539.5 492.833,539.5 499.5,539.5 Z"/></g>
<g><path style="opacity:1" fill="#e094cb" d="M 499.5,539.5 C 506.167,539.5 512.833,539.5 519.5,539.5C 519.5,546.167 519.5,552.833 519.5,559.5C 519.5,566.167 519.5,572.833 519.5,579.5C 526.167,579.5 532.833,579.5 539.5,579.5C 539.5,592.833 539.5,606.167 539.5,619.5C 546.167,619.5 552.833,619.5 559.5,619.5C 559.5,632.833 559.5,646.167 559.5,659.5C 559.5,686.167 559.5,712.833 559.5,739.5C 546.167,739.5 532.833,739.5 519.5,739.5C 519.5,726.167 519.5,712.833 519.5,699.5C 512.833,699.5 506.167,699.5 499.5,699.5C 499.5,692.833 499.5,686.167 499.5,679.5C 492.833,679.5 486.167,679.5 479.5,679.5C 479.5,659.5 479.5,639.5 479.5,619.5C 486.167,619.5 492.833,619.5 499.5,619.5C 499.5,592.833 499.5,566.167 499.5,539.5 Z"/></g>
<g><path style="opacity:1" fill="#b12dfe" d="M 519.5,539.5 C 526.167,539.5 532.833,539.5 539.5,539.5C 539.5,546.167 539.5,552.833 539.5,559.5C 532.833,559.5 526.167,559.5 519.5,559.5C 519.5,552.833 519.5,546.167 519.5,539.5 Z"/></g>
<g><path style="opacity:1" fill="#e094cb" d="M 279.5,559.5 C 292.833,559.5 306.167,559.5 319.5,559.5C 319.5,606.167 319.5,652.833 319.5,699.5C 306.167,699.5 292.833,699.5 279.5,699.5C 279.5,652.833 279.5,606.167 279.5,559.5 Z"/></g>
<g><path style="opacity:1" fill="#6050fe" d="M 519.5,559.5 C 526.167,559.5 532.833,559.5 539.5,559.5C 539.5,566.167 539.5,572.833 539.5,579.5C 532.833,579.5 526.167,579.5 519.5,579.5C 519.5,572.833 519.5,566.167 519.5,559.5 Z"/></g>
<g><path style="opacity:1" fill="#b12dfe" d="M 539.5,559.5 C 546.167,559.5 552.833,559.5 559.5,559.5C 559.5,566.167 559.5,572.833 559.5,579.5C 552.833,579.5 546.167,579.5 539.5,579.5C 539.5,572.833 539.5,566.167 539.5,559.5 Z"/></g>
<g><path style="opacity:1" fill="#b12dfe" d="M 39.5,579.5 C 39.5,592.833 39.5,606.167 39.5,619.5C 32.8333,619.5 26.1667,619.5 19.5,619.5C 19.5,606.167 19.5,592.833 19.5,579.5C 26.1667,579.5 32.8333,579.5 39.5,579.5 Z"/></g>
<g><path style="opacity:1" fill="#6050fe" d="M 39.5,579.5 C 46.1667,579.5 52.8333,579.5 59.5,579.5C 59.5,592.833 59.5,606.167 59.5,619.5C 52.8333,619.5 46.1667,619.5 39.5,619.5C 39.5,606.167 39.5,592.833 39.5,579.5 Z"/></g>
<g><path style="opacity:1" fill="#e094cb" d="M 199.5,579.5 C 199.5,586.167 199.5,592.833 199.5,599.5C 212.833,599.5 226.167,599.5 239.5,599.5C 239.5,606.167 239.5,612.833 239.5,619.5C 219.5,619.5 199.5,619.5 179.5,619.5C 179.5,612.833 179.5,606.167 179.5,599.5C 172.833,599.5 166.167,599.5 159.5,599.5C 159.5,592.833 159.5,586.167 159.5,579.5C 172.833,579.5 186.167,579.5 199.5,579.5 Z"/></g>
<g><path style="opacity:1" fill="#6050fe" d="M 539.5,579.5 C 546.167,579.5 552.833,579.5 559.5,579.5C 559.5,592.833 559.5,606.167 559.5,619.5C 552.833,619.5 546.167,619.5 539.5,619.5C 539.5,606.167 539.5,592.833 539.5,579.5 Z"/></g>
<g><path style="opacity:1" fill="#b12dfe" d="M 559.5,579.5 C 566.167,579.5 572.833,579.5 579.5,579.5C 579.5,592.833 579.5,606.167 579.5,619.5C 572.833,619.5 566.167,619.5 559.5,619.5C 559.5,606.167 559.5,592.833 559.5,579.5 Z"/></g>
<g><path style="opacity:1" fill="#f57eda" d="M 159.5,599.5 C 166.167,599.5 172.833,599.5 179.5,599.5C 179.5,606.167 179.5,612.833 179.5,619.5C 172.833,619.5 166.167,619.5 159.5,619.5C 159.5,612.833 159.5,606.167 159.5,599.5 Z"/></g>
<g><path style="opacity:1" fill="#f57eda" d="M 239.5,599.5 C 246.167,599.5 252.833,599.5 259.5,599.5C 259.5,612.833 259.5,626.167 259.5,639.5C 232.833,639.5 206.167,639.5 179.5,639.5C 179.5,632.833 179.5,626.167 179.5,619.5C 199.5,619.5 219.5,619.5 239.5,619.5C 239.5,612.833 239.5,606.167 239.5,599.5 Z"/></g>
<g><path style="opacity:1" fill="#f57eda" d="M 359.5,599.5 C 359.5,606.167 359.5,612.833 359.5,619.5C 366.167,619.5 372.833,619.5 379.5,619.5C 379.5,626.167 379.5,632.833 379.5,639.5C 399.5,639.5 419.5,639.5 439.5,639.5C 439.5,646.167 439.5,652.833 439.5,659.5C 412.833,659.5 386.167,659.5 359.5,659.5C 359.5,652.833 359.5,646.167 359.5,639.5C 352.833,639.5 346.167,639.5 339.5,639.5C 339.5,626.167 339.5,612.833 339.5,599.5C 346.167,599.5 352.833,599.5 359.5,599.5 Z"/></g>
<g><path style="opacity:1" fill="#e094cb" d="M 359.5,599.5 C 366.167,599.5 372.833,599.5 379.5,599.5C 379.5,606.167 379.5,612.833 379.5,619.5C 379.5,612.833 379.5,606.167 379.5,599.5C 372.833,599.5 366.167,599.5 359.5,599.5 Z"/></g>
<g><path style="opacity:1" fill="#b12dfe" d="M -0.5,619.5 C 6.16667,619.5 12.8333,619.5 19.5,619.5C 19.5,639.5 19.5,659.5 19.5,679.5C 19.5,692.833 19.5,706.167 19.5,719.5C 12.8333,719.5 6.16667,719.5 -0.5,719.5C -0.5,686.167 -0.5,652.833 -0.5,619.5 Z"/></g>
<g><path style="opacity:1" fill="#e094cb" d="M 379.5,619.5 C 399.5,619.5 419.5,619.5 439.5,619.5C 439.5,626.167 439.5,632.833 439.5,639.5C 419.5,639.5 399.5,639.5 379.5,639.5C 379.5,632.833 379.5,626.167 379.5,619.5 Z"/></g>
<g><path style="opacity:1" fill="#6050fe" d="M 559.5,619.5 C 566.167,619.5 572.833,619.5 579.5,619.5C 579.5,626.167 579.5,632.833 579.5,639.5C 579.5,646.167 579.5,652.833 579.5,659.5C 572.833,659.5 566.167,659.5 559.5,659.5C 559.5,646.167 559.5,632.833 559.5,619.5 Z"/></g>
<g><path style="opacity:1" fill="#b12dfe" d="M 579.5,639.5 C 586.167,639.5 592.833,639.5 599.5,639.5C 599.5,652.833 599.5,666.167 599.5,679.5C 592.833,679.5 586.167,679.5 579.5,679.5C 579.5,712.833 579.5,746.167 579.5,779.5C 572.833,779.5 566.167,779.5 559.5,779.5C 559.5,766.167 559.5,752.833 559.5,739.5C 559.5,712.833 559.5,686.167 559.5,659.5C 566.167,659.5 572.833,659.5 579.5,659.5C 579.5,652.833 579.5,646.167 579.5,639.5 Z"/></g>
<g><path style="opacity:1" fill="#f57eda" d="M 99.5,659.5 C 99.5,666.167 99.5,672.833 99.5,679.5C 92.8333,679.5 86.1667,679.5 79.5,679.5C 79.5,692.833 79.5,706.167 79.5,719.5C 59.5,719.5 39.5,719.5 19.5,719.5C 19.5,706.167 19.5,692.833 19.5,679.5C 32.8333,679.5 46.1667,679.5 59.5,679.5C 59.5,672.833 59.5,666.167 59.5,659.5C 72.8333,659.5 86.1667,659.5 99.5,659.5 Z"/></g>
<g><path style="opacity:1" fill="#fd80e5" d="M 159.5,679.5 C 159.5,672.833 159.5,666.167 159.5,659.5C 192.833,659.5 226.167,659.5 259.5,659.5C 259.5,666.167 259.5,672.833 259.5,679.5C 226.167,679.5 192.833,679.5 159.5,679.5 Z"/></g>
<g><path style="opacity:1" fill="#fd80e5" d="M 359.5,659.5 C 359.5,666.167 359.5,672.833 359.5,679.5C 386.167,679.5 412.833,679.5 439.5,679.5C 439.5,686.167 439.5,692.833 439.5,699.5C 406.167,699.5 372.833,699.5 339.5,699.5C 339.5,686.167 339.5,672.833 339.5,659.5C 346.167,659.5 352.833,659.5 359.5,659.5 Z"/></g>
<g><path style="opacity:1" fill="#b12dfe" d="M 99.5,679.5 C 99.5,692.833 99.5,706.167 99.5,719.5C 92.8333,719.5 86.1667,719.5 79.5,719.5C 79.5,706.167 79.5,692.833 79.5,679.5C 86.1667,679.5 92.8333,679.5 99.5,679.5 Z"/></g>
<g><path style="opacity:1" fill="#f57eda" d="M 279.5,699.5 C 292.833,699.5 306.167,699.5 319.5,699.5C 319.5,719.5 319.5,739.5 319.5,759.5C 312.833,759.5 306.167,759.5 299.5,759.5C 299.5,752.833 299.5,746.167 299.5,739.5C 292.833,739.5 286.167,739.5 279.5,739.5C 279.5,726.167 279.5,712.833 279.5,699.5 Z"/></g>
<g><path style="opacity:1" fill="#b12dfe" d="M 459.5,699.5 C 466.167,699.5 472.833,699.5 479.5,699.5C 479.5,706.167 479.5,712.833 479.5,719.5C 472.833,719.5 466.167,719.5 459.5,719.5C 459.5,712.833 459.5,706.167 459.5,699.5 Z"/></g>
<g><path style="opacity:1" fill="#b12dfe" d="M 19.5,719.5 C 39.5,719.5 59.5,719.5 79.5,719.5C 79.5,726.167 79.5,732.833 79.5,739.5C 59.5,739.5 39.5,739.5 19.5,739.5C 19.5,732.833 19.5,726.167 19.5,719.5 Z"/></g>
<g><path style="opacity:1" fill="#b12dfe" d="M 479.5,719.5 C 486.167,719.5 492.833,719.5 499.5,719.5C 499.5,732.833 499.5,746.167 499.5,759.5C 492.833,759.5 486.167,759.5 479.5,759.5C 479.5,746.167 479.5,732.833 479.5,719.5 Z"/></g>
<g><path style="opacity:1" fill="#b12dfe" d="M 279.5,739.5 C 286.167,739.5 292.833,739.5 299.5,739.5C 299.5,746.167 299.5,752.833 299.5,759.5C 292.833,759.5 286.167,759.5 279.5,759.5C 279.5,752.833 279.5,746.167 279.5,739.5 Z"/></g>
<g><path style="opacity:1" fill="#b12dfe" d="M 299.5,759.5 C 306.167,759.5 312.833,759.5 319.5,759.5C 319.5,766.167 319.5,772.833 319.5,779.5C 312.833,779.5 306.167,779.5 299.5,779.5C 299.5,772.833 299.5,766.167 299.5,759.5 Z"/></g>
<g><path style="opacity:1" fill="#b12dfe" d="M 499.5,779.5 C 519.5,779.5 539.5,779.5 559.5,779.5C 559.5,786.167 559.5,792.833 559.5,799.5C 539.5,799.5 519.5,799.5 499.5,799.5C 499.5,792.833 499.5,786.167 499.5,779.5 Z"/></g>
</svg>
