<?xml version="1.0" encoding="UTF-8"?>
<svg version="1.1" xmlns="http://www.w3.org/2000/svg" width="640" height="960">
<path d="M0 0 C26.4 0 52.8 0 80 0 C80 6.6 80 13.2 80 20 C86.6 20 93.2 20 100 20 C100 26.6 100 33.2 100 40 C106.6 40 113.2 40 120 40 C120 46.6 120 53.2 120 60 C126.6 60 133.2 60 140 60 C140 66.6 140 73.2 140 80 C146.6 80 153.2 80 160 80 C160 93.2 160 106.4 160 120 C166.6 120 173.2 120 180 120 C180 133.2 180 146.4 180 160 C186.6 160 193.2 160 200 160 C200 259 200 358 200 460 C213.2 460 226.4 460 240 460 C240 466.6 240 473.2 240 480 C246.6 480 253.2 480 260 480 C260 486.6 260 493.2 260 500 C266.6 500 273.2 500 280 500 C280 506.6 280 513.2 280 520 C286.6 520 293.2 520 300 520 C300 533.2 300 546.4 300 560 C306.6 560 313.2 560 320 560 C320 606.2 320 652.4 320 700 C313.4 700 306.8 700 300 700 C300 706.6 300 713.2 300 720 C280.2 720 260.4 720 240 720 C240 713.4 240 706.8 240 700 C233.4 700 226.8 700 220 700 C220 686.8 220 673.6 220 660 C213.4 660 206.8 660 200 660 C200 653.4 200 646.8 200 640 C193.4 640 186.8 640 180 640 C180 646.6 180 653.2 180 660 C147 660 114 660 80 660 C80 673.2 80 686.4 80 700 C73.4 700 66.8 700 60 700 C60 706.6 60 713.2 60 720 C46.8 720 33.6 720 20 720 C20 713.4 20 706.8 20 700 C13.4 700 6.8 700 0 700 C0 686.8 0 673.6 0 660 C-33 660 -66 660 -100 660 C-100 653.4 -100 646.8 -100 640 C-106.6 640 -113.2 640 -120 640 C-120 646.6 -120 653.2 -120 660 C-126.6 660 -133.2 660 -140 660 C-140 673.2 -140 686.4 -140 700 C-146.6 700 -153.2 700 -160 700 C-160 706.6 -160 713.2 -160 720 C-179.8 720 -199.6 720 -220 720 C-220 713.4 -220 706.8 -220 700 C-226.6 700 -233.2 700 -240 700 C-240 653.8 -240 607.6 -240 560 C-233.4 560 -226.8 560 -220 560 C-220 546.8 -220 533.6 -220 520 C-213.4 520 -206.8 520 -200 520 C-200 513.4 -200 506.8 -200 500 C-193.4 500 -186.8 500 -180 500 C-180 493.4 -180 486.8 -180 480 C-173.4 480 -166.8 480 -160 480 C-160 473.4 -160 466.8 -160 460 C-146.8 460 -133.6 460 -120 460 C-120 361 -120 262 -120 160 C-113.4 160 -106.8 160 -100 160 C-100 146.8 -100 133.6 -100 120 C-93.4 120 -86.8 120 -80 120 C-80 106.8 -80 93.6 -80 80 C-73.4 80 -66.8 80 -60 80 C-60 73.4 -60 66.8 -60 60 C-53.4 60 -46.8 60 -40 60 C-40 53.4 -40 46.8 -40 40 C-33.4 40 -26.8 40 -20 40 C-20 33.4 -20 26.8 -20 20 C-13.4 20 -6.8 20 0 20 C0 13.4 0 6.8 0 0 Z " fill="#040351" transform="translate(280,40)"/>
<path d="M0 0 C92.4 0 184.8 0 280 0 C280 118.8 280 237.6 280 360 C247 360 214 360 180 360 C180 346.8 180 333.6 180 320 C173.4 320 166.8 320 160 320 C160 313.4 160 306.8 160 300 C146.8 300 133.6 300 120 300 C120 306.6 120 313.2 120 320 C113.4 320 106.8 320 100 320 C100 333.2 100 346.4 100 360 C67 360 34 360 0 360 C0 241.2 0 122.4 0 0 Z " fill="#F9F2FF" transform="translate(180,220)"/>
<path d="M0 0 C6.6 0 13.2 0 20 0 C20 99 20 198 20 300 C33.2 300 46.4 300 60 300 C60 306.6 60 313.2 60 320 C66.6 320 73.2 320 80 320 C80 326.6 80 333.2 80 340 C86.6 340 93.2 340 100 340 C100 346.6 100 353.2 100 360 C106.6 360 113.2 360 120 360 C120 373.2 120 386.4 120 400 C126.6 400 133.2 400 140 400 C140 446.2 140 492.4 140 540 C133.4 540 126.8 540 120 540 C120 546.6 120 553.2 120 560 C100.2 560 80.4 560 60 560 C60 553.4 60 546.8 60 540 C53.4 540 46.8 540 40 540 C40 526.8 40 513.6 40 500 C33.4 500 26.8 500 20 500 C20 493.4 20 486.8 20 480 C13.4 480 6.8 480 0 480 C0 486.6 0 493.2 0 500 C-33 500 -66 500 -100 500 C-100 513.2 -100 526.4 -100 540 C-106.6 540 -113.2 540 -120 540 C-120 474 -120 408 -120 340 C-113.4 340 -106.8 340 -100 340 C-100 353.2 -100 366.4 -100 380 C-67 380 -34 380 0 380 C0 254.6 0 129.2 0 0 Z " fill="#040351" transform="translate(460,200)"/>
<path d="M0 0 C26.4 0 52.8 0 80 0 C80 6.6 80 13.2 80 20 C86.6 20 93.2 20 100 20 C100 26.6 100 33.2 100 40 C106.6 40 113.2 40 120 40 C120 46.6 120 53.2 120 60 C126.6 60 133.2 60 140 60 C140 66.6 140 73.2 140 80 C146.6 80 153.2 80 160 80 C160 93.2 160 106.4 160 120 C166.6 120 173.2 120 180 120 C180 139.8 180 159.6 180 180 C87.6 180 -4.8 180 -100 180 C-100 160.2 -100 140.4 -100 120 C-93.4 120 -86.8 120 -80 120 C-80 106.8 -80 93.6 -80 80 C-73.4 80 -66.8 80 -60 80 C-60 73.4 -60 66.8 -60 60 C-53.4 60 -46.8 60 -40 60 C-40 53.4 -40 46.8 -40 40 C-33.4 40 -26.8 40 -20 40 C-20 33.4 -20 26.8 -20 20 C-13.4 20 -6.8 20 0 20 C0 13.4 0 6.8 0 0 Z " fill="#EA1E63" transform="translate(280,40)"/>
<path d="M0 0 C19.8 0 39.6 0 60 0 C60 59.4 60 118.8 60 180 C53.4 180 46.8 180 40 180 C40 193.2 40 206.4 40 220 C33.4 220 26.8 220 20 220 C20 226.6 20 233.2 20 240 C0.2 240 -19.6 240 -40 240 C-40 233.4 -40 226.8 -40 220 C-46.6 220 -53.2 220 -60 220 C-60 173.8 -60 127.6 -60 80 C-53.4 80 -46.8 80 -40 80 C-40 66.8 -40 53.6 -40 40 C-33.4 40 -26.8 40 -20 40 C-20 33.4 -20 26.8 -20 20 C-13.4 20 -6.8 20 0 20 C0 13.4 0 6.8 0 0 Z " fill="#A81655" transform="translate(100,520)"/>
<path d="M0 0 C26.4 0 52.8 0 80 0 C80 6.6 80 13.2 80 20 C86.6 20 93.2 20 100 20 C100 26.6 100 33.2 100 40 C106.6 40 113.2 40 120 40 C120 66.4 120 92.8 120 120 C113.4 120 106.8 120 100 120 C100 126.6 100 133.2 100 140 C93.4 140 86.8 140 80 140 C80 146.6 80 153.2 80 160 C53.6 160 27.2 160 0 160 C0 153.4 0 146.8 0 140 C-6.6 140 -13.2 140 -20 140 C-20 133.4 -20 126.8 -20 120 C-26.6 120 -33.2 120 -40 120 C-40 93.6 -40 67.2 -40 40 C-33.4 40 -26.8 40 -20 40 C-20 33.4 -20 26.8 -20 20 C-13.4 20 -6.8 20 0 20 C0 13.4 0 6.8 0 0 Z " fill="#27B5F7" transform="translate(280,260)"/>
<path d="M0 0 C13.2 0 26.4 0 40 0 C40 6.6 40 13.2 40 20 C46.6 20 53.2 20 60 20 C60 26.6 60 33.2 60 40 C66.6 40 73.2 40 80 40 C80 86.2 80 132.4 80 180 C66.8 180 53.6 180 40 180 C40 173.4 40 166.8 40 160 C33.4 160 26.8 160 20 160 C20 153.4 20 146.8 20 140 C13.4 140 6.8 140 0 140 C0 93.8 0 47.6 0 0 Z " fill="#EA1E63" transform="translate(500,520)"/>
<path d="M0 0 C6.6 0 13.2 0 20 0 C20 46.2 20 92.4 20 140 C26.6 140 33.2 140 40 140 C40 146.6 40 153.2 40 160 C46.6 160 53.2 160 60 160 C60 166.6 60 173.2 60 180 C73.2 180 86.4 180 100 180 C100 147 100 114 100 80 C106.6 80 113.2 80 120 80 C120 126.2 120 172.4 120 220 C113.4 220 106.8 220 100 220 C100 226.6 100 233.2 100 240 C80.2 240 60.4 240 40 240 C40 233.4 40 226.8 40 220 C33.4 220 26.8 220 20 220 C20 206.8 20 193.6 20 180 C13.4 180 6.8 180 0 180 C0 120.6 0 61.2 0 0 Z " fill="#A81655" transform="translate(480,520)"/>
<path d="M0 0 C13.2 0 26.4 0 40 0 C40 46.2 40 92.4 40 140 C33.4 140 26.8 140 20 140 C20 146.6 20 153.2 20 160 C13.4 160 6.8 160 0 160 C0 166.6 0 173.2 0 180 C-13.2 180 -26.4 180 -40 180 C-40 133.8 -40 87.6 -40 40 C-33.4 40 -26.8 40 -20 40 C-20 33.4 -20 26.8 -20 20 C-13.4 20 -6.8 20 0 20 C0 13.4 0 6.8 0 0 Z " fill="#EA1E63" transform="translate(100,520)"/>
<path d="M0 0 C26.4 0 52.8 0 80 0 C80 6.6 80 13.2 80 20 C86.6 20 93.2 20 100 20 C100 26.6 100 33.2 100 40 C106.6 40 113.2 40 120 40 C120 46.6 120 53.2 120 60 C126.6 60 133.2 60 140 60 C140 79.8 140 99.6 140 120 C133.4 120 126.8 120 120 120 C120 106.8 120 93.6 120 80 C113.4 80 106.8 80 100 80 C100 73.4 100 66.8 100 60 C93.4 60 86.8 60 80 60 C80 53.4 80 46.8 80 40 C53.6 40 27.2 40 0 40 C0 46.6 0 53.2 0 60 C-6.6 60 -13.2 60 -20 60 C-20 66.6 -20 73.2 -20 80 C-33.2 80 -46.4 80 -60 80 C-60 73.4 -60 66.8 -60 60 C-53.4 60 -46.8 60 -40 60 C-40 53.4 -40 46.8 -40 40 C-33.4 40 -26.8 40 -20 40 C-20 33.4 -20 26.8 -20 20 C-13.4 20 -6.8 20 0 20 C0 13.4 0 6.8 0 0 Z " fill="#F197BA" transform="translate(280,40)"/>
<path d="M0 0 C13.2 0 26.4 0 40 0 C40 59.4 40 118.8 40 180 C26.8 180 13.6 180 0 180 C0 120.6 0 61.2 0 0 Z " fill="#EA1E63" transform="translate(300,520)"/>
<path d="M0 0 C33 0 66 0 100 0 C100 13.2 100 26.4 100 40 C67 40 34 40 0 40 C0 26.8 0 13.6 0 0 Z " fill="#A81655" transform="translate(360,600)"/>
<path d="M0 0 C33 0 66 0 100 0 C100 13.2 100 26.4 100 40 C67 40 34 40 0 40 C0 26.8 0 13.6 0 0 Z " fill="#A81655" transform="translate(180,600)"/>
<path d="M0 0 C6.6 0 13.2 0 20 0 C20 46.2 20 92.4 20 140 C13.4 140 6.8 140 0 140 C0 93.8 0 47.6 0 0 Z " fill="#040351" transform="translate(580,600)"/>
<path d="M0 0 C6.6 0 13.2 0 20 0 C20 46.2 20 92.4 20 140 C13.4 140 6.8 140 0 140 C0 93.8 0 47.6 0 0 Z " fill="#040351" transform="translate(40,600)"/>
<path d="M0 0 C13.2 0 26.4 0 40 0 C40 19.8 40 39.6 40 60 C26.8 60 13.6 60 0 60 C0 40.2 0 20.4 0 0 Z " fill="#A81655" transform="translate(300,700)"/>
<path d="M0 0 C6.6 0 13.2 0 20 0 C20 6.6 20 13.2 20 20 C46.4 20 72.8 20 100 20 C100 26.6 100 33.2 100 40 C67 40 34 40 0 40 C0 26.8 0 13.6 0 0 Z " fill="#BAE0F7" transform="translate(360,540)"/>
<path d="M0 0 C6.6 0 13.2 0 20 0 C20 13.2 20 26.4 20 40 C-13 40 -46 40 -80 40 C-80 33.4 -80 26.8 -80 20 C-53.6 20 -27.2 20 0 20 C0 13.4 0 6.8 0 0 Z " fill="#BAE0F7" transform="translate(260,540)"/>
<path d="M0 0 C33 0 66 0 100 0 C100 6.6 100 13.2 100 20 C67 20 34 20 0 20 C0 13.4 0 6.8 0 0 Z " fill="#354AA5" transform="translate(360,660)"/>
<path d="M0 0 C33 0 66 0 100 0 C100 6.6 100 13.2 100 20 C67 20 34 20 0 20 C0 13.4 0 6.8 0 0 Z " fill="#354AA5" transform="translate(180,660)"/>
<path d="M0 0 C26.4 0 52.8 0 80 0 C80 6.6 80 13.2 80 20 C53.6 20 27.2 20 0 20 C0 13.4 0 6.8 0 0 Z " fill="#EA1E63" transform="translate(380,600)"/>
<path d="M0 0 C26.4 0 52.8 0 80 0 C80 6.6 80 13.2 80 20 C53.6 20 27.2 20 0 20 C0 13.4 0 6.8 0 0 Z " fill="#EA1E63" transform="translate(180,600)"/>
<path d="M0 0 C13.2 0 26.4 0 40 0 C40 13.2 40 26.4 40 40 C26.8 40 13.6 40 0 40 C0 26.8 0 13.6 0 0 Z " fill="#F197BA" transform="translate(60,560)"/>
<path d="M0 0 C13.2 0 26.4 0 40 0 C40 13.2 40 26.4 40 40 C26.8 40 13.6 40 0 40 C0 26.8 0 13.6 0 0 Z " fill="#F197BA" transform="translate(300,520)"/>
<path d="M0 0 C26.4 0 52.8 0 80 0 C80 6.6 80 13.2 80 20 C53.6 20 27.2 20 0 20 C0 13.4 0 6.8 0 0 Z " fill="#040351" transform="translate(280,400)"/>
<path d="M0 0 C6.6 0 13.2 0 20 0 C20 26.4 20 52.8 20 80 C13.4 80 6.8 80 0 80 C0 53.6 0 27.2 0 0 Z " fill="#040351" transform="translate(380,300)"/>
<path d="M0 0 C6.6 0 13.2 0 20 0 C20 26.4 20 52.8 20 80 C13.4 80 6.8 80 0 80 C0 53.6 0 27.2 0 0 Z " fill="#040351" transform="translate(240,300)"/>
<path d="M0 0 C26.4 0 52.8 0 80 0 C80 6.6 80 13.2 80 20 C53.6 20 27.2 20 0 20 C0 13.4 0 6.8 0 0 Z " fill="#040351" transform="translate(280,260)"/>
<path d="M0 0 C26.4 0 52.8 0 80 0 C80 6.6 80 13.2 80 20 C53.6 20 27.2 20 0 20 C0 13.4 0 6.8 0 0 Z " fill="#040351" transform="translate(280,40)"/>
<path d="M0 0 C19.8 0 39.6 0 60 0 C60 6.6 60 13.2 60 20 C40.2 20 20.4 20 0 20 C0 13.4 0 6.8 0 0 Z " fill="#040351" transform="translate(520,740)"/>
<path d="M0 0 C19.8 0 39.6 0 60 0 C60 6.6 60 13.2 60 20 C40.2 20 20.4 20 0 20 C0 13.4 0 6.8 0 0 Z " fill="#040351" transform="translate(60,740)"/>
<path d="M0 0 C13.2 0 26.4 0 40 0 C40 13.2 40 26.4 40 40 C33.4 40 26.8 40 20 40 C20 33.4 20 26.8 20 20 C13.4 20 6.8 20 0 20 C0 13.4 0 6.8 0 0 Z " fill="#BAE0F7" transform="translate(320,300)"/>
<path d="M0 0 C13.2 0 26.4 0 40 0 C40 6.6 40 13.2 40 20 C26.8 20 13.6 20 0 20 C0 13.4 0 6.8 0 0 Z " fill="#040351" transform="translate(300,740)"/>
<path d="M0 0 C6.6 0 13.2 0 20 0 C20 13.2 20 26.4 20 40 C13.4 40 6.8 40 0 40 C0 26.8 0 13.6 0 0 Z " fill="#040351" transform="translate(500,700)"/>
<path d="M0 0 C6.6 0 13.2 0 20 0 C20 13.2 20 26.4 20 40 C13.4 40 6.8 40 0 40 C0 26.8 0 13.6 0 0 Z " fill="#040351" transform="translate(120,700)"/>
<path d="M0 0 C6.6 0 13.2 0 20 0 C20 13.2 20 26.4 20 40 C13.4 40 6.8 40 0 40 C0 26.8 0 13.6 0 0 Z " fill="#F197BA" transform="translate(560,600)"/>
<path d="M0 0 C6.6 0 13.2 0 20 0 C20 13.2 20 26.4 20 40 C13.4 40 6.8 40 0 40 C0 26.8 0 13.6 0 0 Z " fill="#F197BA" transform="translate(60,600)"/>
<path d="M0 0 C6.6 0 13.2 0 20 0 C20 13.2 20 26.4 20 40 C13.4 40 6.8 40 0 40 C0 26.8 0 13.6 0 0 Z " fill="#040351" transform="translate(560,560)"/>
<path d="M0 0 C6.6 0 13.2 0 20 0 C20 13.2 20 26.4 20 40 C13.4 40 6.8 40 0 40 C0 26.8 0 13.6 0 0 Z " fill="#F197BA" transform="translate(540,560)"/>
<path d="M0 0 C6.6 0 13.2 0 20 0 C20 13.2 20 26.4 20 40 C13.4 40 6.8 40 0 40 C0 26.8 0 13.6 0 0 Z " fill="#040351" transform="translate(60,560)"/>
<path d="M0 0 C13.2 0 26.4 0 40 0 C40 6.6 40 13.2 40 20 C26.8 20 13.6 20 0 20 C0 13.4 0 6.8 0 0 Z " fill="#F197BA" transform="translate(80,540)"/>
<path d="M0 0 C13.2 0 26.4 0 40 0 C40 6.6 40 13.2 40 20 C26.8 20 13.6 20 0 20 C0 13.4 0 6.8 0 0 Z " fill="#040351" transform="translate(300,520)"/>
<path d="M0 0 C13.2 0 26.4 0 40 0 C40 6.6 40 13.2 40 20 C26.8 20 13.6 20 0 20 C0 13.4 0 6.8 0 0 Z " fill="#BAE0F7" transform="translate(300,500)"/>
<path d="M0 0 C6.6 0 13.2 0 20 0 C20 13.2 20 26.4 20 40 C13.4 40 6.8 40 0 40 C0 26.8 0 13.6 0 0 Z " fill="#040351" transform="translate(440,160)"/>
<path d="M0 0 C6.6 0 13.2 0 20 0 C20 13.2 20 26.4 20 40 C13.4 40 6.8 40 0 40 C0 26.8 0 13.6 0 0 Z " fill="#040351" transform="translate(180,160)"/>
<path d="M0 0 C6.6 0 13.2 0 20 0 C20 13.2 20 26.4 20 40 C13.4 40 6.8 40 0 40 C0 26.8 0 13.6 0 0 Z " fill="#040351" transform="translate(420,120)"/>
<path d="M0 0 C6.6 0 13.2 0 20 0 C20 13.2 20 26.4 20 40 C13.4 40 6.8 40 0 40 C0 26.8 0 13.6 0 0 Z " fill="#F197BA" transform="translate(400,120)"/>
<path d="M0 0 C6.6 0 13.2 0 20 0 C20 13.2 20 26.4 20 40 C13.4 40 6.8 40 0 40 C0 26.8 0 13.6 0 0 Z " fill="#F197BA" transform="translate(220,120)"/>
<path d="M0 0 C6.6 0 13.2 0 20 0 C20 13.2 20 26.4 20 40 C13.4 40 6.8 40 0 40 C0 26.8 0 13.6 0 0 Z " fill="#040351" transform="translate(200,120)"/>
<path d="M0 0 C6.6 0 13.2 0 20 0 C20 6.6 20 13.2 20 20 C13.4 20 6.8 20 0 20 C0 13.4 0 6.8 0 0 Z " fill="#040351" transform="translate(480,680)"/>
<path d="M0 0 C6.6 0 13.2 0 20 0 C20 6.6 20 13.2 20 20 C13.4 20 6.8 20 0 20 C0 13.4 0 6.8 0 0 Z " fill="#040351" transform="translate(140,680)"/>
<path d="M0 0 C6.6 0 13.2 0 20 0 C20 6.6 20 13.2 20 20 C13.4 20 6.8 20 0 20 C0 13.4 0 6.8 0 0 Z " fill="#040351" transform="translate(540,540)"/>
<path d="M0 0 C6.6 0 13.2 0 20 0 C20 6.6 20 13.2 20 20 C13.4 20 6.8 20 0 20 C0 13.4 0 6.8 0 0 Z " fill="#F197BA" transform="translate(520,540)"/>
<path d="M0 0 C6.6 0 13.2 0 20 0 C20 6.6 20 13.2 20 20 C13.4 20 6.8 20 0 20 C0 13.4 0 6.8 0 0 Z " fill="#040351" transform="translate(80,540)"/>
<path d="M0 0 C6.6 0 13.2 0 20 0 C20 6.6 20 13.2 20 20 C13.4 20 6.8 20 0 20 C0 13.4 0 6.8 0 0 Z " fill="#040351" transform="translate(520,520)"/>
<path d="M0 0 C6.6 0 13.2 0 20 0 C20 6.6 20 13.2 20 20 C13.4 20 6.8 20 0 20 C0 13.4 0 6.8 0 0 Z " fill="#BAE0F7" transform="translate(340,520)"/>
<path d="M0 0 C6.6 0 13.2 0 20 0 C20 6.6 20 13.2 20 20 C13.4 20 6.8 20 0 20 C0 13.4 0 6.8 0 0 Z " fill="#BAE0F7" transform="translate(280,520)"/>
<path d="M0 0 C6.6 0 13.2 0 20 0 C20 6.6 20 13.2 20 20 C13.4 20 6.8 20 0 20 C0 13.4 0 6.8 0 0 Z " fill="#040351" transform="translate(100,520)"/>
<path d="M0 0 C6.6 0 13.2 0 20 0 C20 6.6 20 13.2 20 20 C13.4 20 6.8 20 0 20 C0 13.4 0 6.8 0 0 Z " fill="#040351" transform="translate(360,380)"/>
<path d="M0 0 C6.6 0 13.2 0 20 0 C20 6.6 20 13.2 20 20 C13.4 20 6.8 20 0 20 C0 13.4 0 6.8 0 0 Z " fill="#040351" transform="translate(260,380)"/>
<path d="M0 0 C6.6 0 13.2 0 20 0 C20 6.6 20 13.2 20 20 C13.4 20 6.8 20 0 20 C0 13.4 0 6.8 0 0 Z " fill="#BAE0F7" transform="translate(280,360)"/>
<path d="M0 0 C6.6 0 13.2 0 20 0 C20 6.6 20 13.2 20 20 C13.4 20 6.8 20 0 20 C0 13.4 0 6.8 0 0 Z " fill="#040351" transform="translate(360,280)"/>
<path d="M0 0 C6.6 0 13.2 0 20 0 C20 6.6 20 13.2 20 20 C13.4 20 6.8 20 0 20 C0 13.4 0 6.8 0 0 Z " fill="#040351" transform="translate(260,280)"/>
<path d="M0 0 C6.6 0 13.2 0 20 0 C20 6.6 20 13.2 20 20 C13.4 20 6.8 20 0 20 C0 13.4 0 6.8 0 0 Z " fill="#040351" transform="translate(400,100)"/>
<path d="M0 0 C6.6 0 13.2 0 20 0 C20 6.6 20 13.2 20 20 C13.4 20 6.8 20 0 20 C0 13.4 0 6.8 0 0 Z " fill="#F197BA" transform="translate(380,100)"/>
<path d="M0 0 C6.6 0 13.2 0 20 0 C20 6.6 20 13.2 20 20 C13.4 20 6.8 20 0 20 C0 13.4 0 6.8 0 0 Z " fill="#040351" transform="translate(220,100)"/>
<path d="M0 0 C6.6 0 13.2 0 20 0 C20 6.6 20 13.2 20 20 C13.4 20 6.8 20 0 20 C0 13.4 0 6.8 0 0 Z " fill="#040351" transform="translate(380,80)"/>
<path d="M0 0 C6.6 0 13.2 0 20 0 C20 6.6 20 13.2 20 20 C13.4 20 6.8 20 0 20 C0 13.4 0 6.8 0 0 Z " fill="#F197BA" transform="translate(360,80)"/>
<path d="M0 0 C6.6 0 13.2 0 20 0 C20 6.6 20 13.2 20 20 C13.4 20 6.8 20 0 20 C0 13.4 0 6.8 0 0 Z " fill="#040351" transform="translate(240,80)"/>
<path d="M0 0 C6.6 0 13.2 0 20 0 C20 6.6 20 13.2 20 20 C13.4 20 6.8 20 0 20 C0 13.4 0 6.8 0 0 Z " fill="#040351" transform="translate(360,60)"/>
<path d="M0 0 C6.6 0 13.2 0 20 0 C20 6.6 20 13.2 20 20 C13.4 20 6.8 20 0 20 C0 13.4 0 6.8 0 0 Z " fill="#040351" transform="translate(260,60)"/>
</svg>
