<?xml version="1.0" encoding="UTF-8"?>
<svg version="1.1" xmlns="http://www.w3.org/2000/svg" width="640" height="960">
<path d="M0 0 C6.6 0 13.2 0 20 0 C20 6.6 20 13.2 20 20 C26.6 20 33.2 20 40 20 C40 26.6 40 33.2 40 40 C46.6 40 53.2 40 60 40 C60 46.6 60 53.2 60 60 C66.6 60 73.2 60 80 60 C80 66.6 80 73.2 80 80 C86.6 80 93.2 80 100 80 C100 86.6 100 93.2 100 100 C106.6 100 113.2 100 120 100 C120 113.2 120 126.4 120 140 C126.6 140 133.2 140 140 140 C140 153.2 140 166.4 140 180 C146.6 180 153.2 180 160 180 C160 252.6 160 325.2 160 400 C166.6 400 173.2 400 180 400 C180 406.6 180 413.2 180 420 C193.2 420 206.4 420 220 420 C220 426.6 220 433.2 220 440 C226.6 440 233.2 440 240 440 C240 446.6 240 453.2 240 460 C246.6 460 253.2 460 260 460 C260 473.2 260 486.4 260 500 C266.6 500 273.2 500 280 500 C280 506.6 280 513.2 280 520 C286.6 520 293.2 520 300 520 C300 553 300 586 300 620 C293.4 620 286.8 620 280 620 C280 626.6 280 633.2 280 640 C253.6 640 227.2 640 200 640 C200 626.8 200 613.6 200 600 C193.4 600 186.8 600 180 600 C180 593.4 180 586.8 180 580 C173.4 580 166.8 580 160 580 C160 586.6 160 593.2 160 600 C133.6 600 107.2 600 80 600 C80 613.2 80 626.4 80 640 C73.4 640 66.8 640 60 640 C60 653.2 60 666.4 60 680 C53.4 680 46.8 680 40 680 C40 673.4 40 666.8 40 660 C33.4 660 26.8 660 20 660 C20 646.8 20 633.6 20 620 C-19.6 620 -59.2 620 -100 620 C-100 626.6 -100 633.2 -100 640 C-106.6 640 -113.2 640 -120 640 C-120 659.8 -120 679.6 -120 700 C-139.8 700 -159.6 700 -180 700 C-180 693.4 -180 686.8 -180 680 C-186.6 680 -193.2 680 -200 680 C-200 647 -200 614 -200 580 C-206.6 580 -213.2 580 -220 580 C-220 573.4 -220 566.8 -220 560 C-213.4 560 -206.8 560 -200 560 C-200 546.8 -200 533.6 -200 520 C-193.4 520 -186.8 520 -180 520 C-180 513.4 -180 506.8 -180 500 C-173.4 500 -166.8 500 -160 500 C-160 493.4 -160 486.8 -160 480 C-153.4 480 -146.8 480 -140 480 C-140 473.4 -140 466.8 -140 460 C-133.4 460 -126.8 460 -120 460 C-120 400.6 -120 341.2 -120 280 C-126.6 280 -133.2 280 -140 280 C-140 247 -140 214 -140 180 C-133.4 180 -126.8 180 -120 180 C-120 166.8 -120 153.6 -120 140 C-113.4 140 -106.8 140 -100 140 C-100 120.2 -100 100.4 -100 80 C-93.4 80 -86.8 80 -80 80 C-80 73.4 -80 66.8 -80 60 C-73.4 60 -66.8 60 -60 60 C-60 53.4 -60 46.8 -60 40 C-53.4 40 -46.8 40 -40 40 C-40 33.4 -40 26.8 -40 20 C-26.8 20 -13.6 20 0 20 C0 13.4 0 6.8 0 0 Z " fill="#F9F2FF" transform="translate(300,60)"/>
<path d="M0 0 C6.6 0 13.2 0 20 0 C20 72.6 20 145.2 20 220 C53 220 86 220 120 220 C120 206.8 120 193.6 120 180 C133.2 180 146.4 180 160 180 C160 173.4 160 166.8 160 160 C166.6 160 173.2 160 180 160 C180 173.2 180 186.4 180 200 C213 200 246 200 280 200 C280 167 280 134 280 100 C286.6 100 293.2 100 300 100 C300 106.6 300 113.2 300 120 C313.2 120 326.4 120 340 120 C340 126.6 340 133.2 340 140 C346.6 140 353.2 140 360 140 C360 146.6 360 153.2 360 160 C366.6 160 373.2 160 380 160 C380 173.2 380 186.4 380 200 C386.6 200 393.2 200 400 200 C400 206.6 400 213.2 400 220 C406.6 220 413.2 220 420 220 C420 253 420 286 420 320 C413.4 320 406.8 320 400 320 C400 326.6 400 333.2 400 340 C373.6 340 347.2 340 320 340 C320 326.8 320 313.6 320 300 C313.4 300 306.8 300 300 300 C300 293.4 300 286.8 300 280 C293.4 280 286.8 280 280 280 C280 286.6 280 293.2 280 300 C253.6 300 227.2 300 200 300 C200 313.2 200 326.4 200 340 C193.4 340 186.8 340 180 340 C180 353.2 180 366.4 180 380 C173.4 380 166.8 380 160 380 C160 373.4 160 366.8 160 360 C153.4 360 146.8 360 140 360 C140 346.8 140 333.6 140 320 C100.4 320 60.8 320 20 320 C20 326.6 20 333.2 20 340 C13.4 340 6.8 340 0 340 C0 359.8 0 379.6 0 400 C-19.8 400 -39.6 400 -60 400 C-60 393.4 -60 386.8 -60 380 C-66.6 380 -73.2 380 -80 380 C-80 347 -80 314 -80 280 C-86.6 280 -93.2 280 -100 280 C-100 273.4 -100 266.8 -100 260 C-93.4 260 -86.8 260 -80 260 C-80 246.8 -80 233.6 -80 220 C-73.4 220 -66.8 220 -60 220 C-60 213.4 -60 206.8 -60 200 C-53.4 200 -46.8 200 -40 200 C-40 193.4 -40 186.8 -40 180 C-33.4 180 -26.8 180 -20 180 C-20 173.4 -20 166.8 -20 160 C-13.4 160 -6.8 160 0 160 C0 107.2 0 54.4 0 0 Z " fill="#040351" transform="translate(180,360)"/>
<path d="M0 0 C6.6 0 13.2 0 20 0 C20 6.6 20 13.2 20 20 C26.6 20 33.2 20 40 20 C40 26.6 40 33.2 40 40 C46.6 40 53.2 40 60 40 C60 46.6 60 53.2 60 60 C66.6 60 73.2 60 80 60 C80 66.6 80 73.2 80 80 C86.6 80 93.2 80 100 80 C100 86.6 100 93.2 100 100 C106.6 100 113.2 100 120 100 C120 113.2 120 126.4 120 140 C126.6 140 133.2 140 140 140 C140 146.6 140 153.2 140 160 C107 160 74 160 40 160 C40 166.6 40 173.2 40 180 C-12.8 180 -65.6 180 -120 180 C-120 166.8 -120 153.6 -120 140 C-113.4 140 -106.8 140 -100 140 C-100 120.2 -100 100.4 -100 80 C-93.4 80 -86.8 80 -80 80 C-80 73.4 -80 66.8 -80 60 C-73.4 60 -66.8 60 -60 60 C-60 53.4 -60 46.8 -60 40 C-53.4 40 -46.8 40 -40 40 C-40 33.4 -40 26.8 -40 20 C-26.8 20 -13.6 20 0 20 C0 13.4 0 6.8 0 0 Z " fill="#EA1E63" transform="translate(300,60)"/>
<path d="M0 0 C6.6 0 13.2 0 20 0 C20 112.2 20 224.4 20 340 C13.4 340 6.8 340 0 340 C0 359.8 0 379.6 0 400 C-19.8 400 -39.6 400 -60 400 C-60 393.4 -60 386.8 -60 380 C-66.6 380 -73.2 380 -80 380 C-80 347 -80 314 -80 280 C-86.6 280 -93.2 280 -100 280 C-100 273.4 -100 266.8 -100 260 C-93.4 260 -86.8 260 -80 260 C-80 246.8 -80 233.6 -80 220 C-73.4 220 -66.8 220 -60 220 C-60 213.4 -60 206.8 -60 200 C-53.4 200 -46.8 200 -40 200 C-40 193.4 -40 186.8 -40 180 C-33.4 180 -26.8 180 -20 180 C-20 173.4 -20 166.8 -20 160 C-13.4 160 -6.8 160 0 160 C0 107.2 0 54.4 0 0 Z " fill="#A81655" transform="translate(180,360)"/>
<path d="M0 0 C19.8 0 39.6 0 60 0 C60 6.6 60 13.2 60 20 C66.6 20 73.2 20 80 20 C80 33.2 80 46.4 80 60 C86.6 60 93.2 60 100 60 C100 66.6 100 73.2 100 80 C106.6 80 113.2 80 120 80 C120 113 120 146 120 180 C113.4 180 106.8 180 100 180 C100 186.6 100 193.2 100 200 C73.6 200 47.2 200 20 200 C20 186.8 20 173.6 20 160 C13.4 160 6.8 160 0 160 C0 107.2 0 54.4 0 0 Z " fill="#A81655" transform="translate(480,500)"/>
<path d="M0 0 C6.6 0 13.2 0 20 0 C20 6.6 20 13.2 20 20 C33.2 20 46.4 20 60 20 C60 26.6 60 33.2 60 40 C46.8 40 33.6 40 20 40 C20 86.2 20 132.4 20 180 C13.4 180 6.8 180 0 180 C0 186.6 0 193.2 0 200 C-26.4 200 -52.8 200 -80 200 C-80 213.2 -80 226.4 -80 240 C-86.6 240 -93.2 240 -100 240 C-100 253.2 -100 266.4 -100 280 C-106.6 280 -113.2 280 -120 280 C-120 273.4 -120 266.8 -120 260 C-126.6 260 -133.2 260 -140 260 C-140 246.8 -140 233.6 -140 220 C-126.8 220 -113.6 220 -100 220 C-100 180.4 -100 140.8 -100 100 C-67 100 -34 100 0 100 C0 67 0 34 0 0 Z " fill="#040351" transform="translate(460,460)"/>
<path d="M0 0 C6.6 0 13.2 0 20 0 C20 6.6 20 13.2 20 20 C26.6 20 33.2 20 40 20 C40 26.6 40 33.2 40 40 C46.6 40 53.2 40 60 40 C60 73 60 106 60 140 C53.4 140 46.8 140 40 140 C40 146.6 40 153.2 40 160 C13.6 160 -12.8 160 -40 160 C-40 153.4 -40 146.8 -40 140 C-46.6 140 -53.2 140 -60 140 C-60 133.4 -60 126.8 -60 120 C-66.6 120 -73.2 120 -80 120 C-80 100.2 -80 80.4 -80 60 C-73.4 60 -66.8 60 -60 60 C-60 53.4 -60 46.8 -60 40 C-53.4 40 -46.8 40 -40 40 C-40 33.4 -40 26.8 -40 20 C-26.8 20 -13.6 20 0 20 C0 13.4 0 6.8 0 0 Z " fill="#27B5F7" transform="translate(320,260)"/>
<path d="M0 0 C6.6 0 13.2 0 20 0 C20 46.2 20 92.4 20 140 C13.4 140 6.8 140 0 140 C0 146.6 0 153.2 0 160 C-6.6 160 -13.2 160 -20 160 C-20 166.6 -20 173.2 -20 180 C-26.6 180 -33.2 180 -40 180 C-40 173.4 -40 166.8 -40 160 C-46.6 160 -53.2 160 -60 160 C-60 146.8 -60 133.6 -60 120 C-66.6 120 -73.2 120 -80 120 C-80 113.4 -80 106.8 -80 100 C-73.4 100 -66.8 100 -60 100 C-60 86.8 -60 73.6 -60 60 C-53.4 60 -46.8 60 -40 60 C-40 53.4 -40 46.8 -40 40 C-33.4 40 -26.8 40 -20 40 C-20 33.4 -20 26.8 -20 20 C-13.4 20 -6.8 20 0 20 C0 13.4 0 6.8 0 0 Z " fill="#EA1E63" transform="translate(160,520)"/>
<path d="M0 0 C13.2 0 26.4 0 40 0 C40 6.6 40 13.2 40 20 C46.6 20 53.2 20 60 20 C60 33.2 60 46.4 60 60 C66.6 60 73.2 60 80 60 C80 86.4 80 112.8 80 140 C73.4 140 66.8 140 60 140 C60 146.6 60 153.2 60 160 C53.4 160 46.8 160 40 160 C40 153.4 40 146.8 40 140 C33.4 140 26.8 140 20 140 C20 133.4 20 126.8 20 120 C13.4 120 6.8 120 0 120 C0 80.4 0 40.8 0 0 Z " fill="#EA1E63" transform="translate(500,500)"/>
<path d="M0 0 C6.6 0 13.2 0 20 0 C20 52.8 20 105.6 20 160 C6.8 160 -6.4 160 -20 160 C-20 113.8 -20 67.6 -20 20 C-13.4 20 -6.8 20 0 20 C0 13.4 0 6.8 0 0 Z " fill="#EA1E63" transform="translate(340,520)"/>
<path d="M0 0 C6.6 0 13.2 0 20 0 C20 6.6 20 13.2 20 20 C33.2 20 46.4 20 60 20 C60 26.6 60 33.2 60 40 C46.8 40 33.6 40 20 40 C20 86.2 20 132.4 20 180 C13.4 180 6.8 180 0 180 C0 173.4 0 166.8 0 160 C-13.2 160 -26.4 160 -40 160 C-40 153.4 -40 146.8 -40 140 C-26.8 140 -13.6 140 0 140 C0 93.8 0 47.6 0 0 Z " fill="#040351" transform="translate(460,460)"/>
<path d="M0 0 C6.6 0 13.2 0 20 0 C20 66 20 132 20 200 C13.4 200 6.8 200 0 200 C0 134 0 68 0 0 Z " fill="#040351" transform="translate(180,360)"/>
<path d="M0 0 C6.6 0 13.2 0 20 0 C20 66 20 132 20 200 C13.4 200 6.8 200 0 200 C0 134 0 68 0 0 Z " fill="#040351" transform="translate(440,240)"/>
<path d="M0 0 C26.4 0 52.8 0 80 0 C80 6.6 80 13.2 80 20 C60.2 20 40.4 20 20 20 C20 33.2 20 46.4 20 60 C26.6 60 33.2 60 40 60 C40 66.6 40 73.2 40 80 C33.4 80 26.8 80 20 80 C20 86.6 20 93.2 20 100 C13.4 100 6.8 100 0 100 C0 67 0 34 0 0 Z " fill="#040351" transform="translate(200,580)"/>
<path d="M0 0 C6.6 0 13.2 0 20 0 C20 13.2 20 26.4 20 40 C6.8 40 -6.4 40 -20 40 C-20 46.6 -20 53.2 -20 60 C-33.2 60 -46.4 60 -60 60 C-60 46.8 -60 33.6 -60 20 C-40.2 20 -20.4 20 0 20 C0 13.4 0 6.8 0 0 Z " fill="#A81655" transform="translate(440,560)"/>
<path d="M0 0 C6.6 0 13.2 0 20 0 C20 13.2 20 26.4 20 40 C6.8 40 -6.4 40 -20 40 C-20 46.6 -20 53.2 -20 60 C-33.2 60 -46.4 60 -60 60 C-60 46.8 -60 33.6 -60 20 C-40.2 20 -20.4 20 0 20 C0 13.4 0 6.8 0 0 Z " fill="#A81655" transform="translate(280,580)"/>
<path d="M0 0 C6.6 0 13.2 0 20 0 C20 13.2 20 26.4 20 40 C-13 40 -46 40 -80 40 C-80 33.4 -80 26.8 -80 20 C-53.6 20 -27.2 20 0 20 C0 13.4 0 6.8 0 0 Z " fill="#BAE0F7" transform="translate(280,540)"/>
<path d="M0 0 C6.6 0 13.2 0 20 0 C20 6.6 20 13.2 20 20 C46.4 20 72.8 20 100 20 C100 26.6 100 33.2 100 40 C67 40 34 40 0 40 C0 26.8 0 13.6 0 0 Z " fill="#BAE0F7" transform="translate(360,520)"/>
<path d="M0 0 C6.6 0 13.2 0 20 0 C20 19.8 20 39.6 20 60 C0.2 60 -19.6 60 -40 60 C-40 53.4 -40 46.8 -40 40 C-26.8 40 -13.6 40 0 40 C0 26.8 0 13.6 0 0 Z " fill="#040351" transform="translate(160,700)"/>
<path d="M0 0 C13.2 0 26.4 0 40 0 C40 19.8 40 39.6 40 60 C33.4 60 26.8 60 20 60 C20 53.4 20 46.8 20 40 C13.4 40 6.8 40 0 40 C0 26.8 0 13.6 0 0 Z " fill="#A81655" transform="translate(320,680)"/>
<path d="M0 0 C6.6 0 13.2 0 20 0 C20 6.6 20 13.2 20 20 C39.8 20 59.6 20 80 20 C80 26.6 80 33.2 80 40 C53.6 40 27.2 40 0 40 C0 26.8 0 13.6 0 0 Z " fill="#040351" transform="translate(500,660)"/>
<path d="M0 0 C6.6 0 13.2 0 20 0 C20 33 20 66 20 100 C13.4 100 6.8 100 0 100 C0 67 0 34 0 0 Z " fill="#040351" transform="translate(580,580)"/>
<path d="M0 0 C6.6 0 13.2 0 20 0 C20 6.6 20 13.2 20 20 C26.6 20 33.2 20 40 20 C40 26.6 40 33.2 40 40 C13.6 40 -12.8 40 -40 40 C-40 33.4 -40 26.8 -40 20 C-26.8 20 -13.6 20 0 20 C0 13.4 0 6.8 0 0 Z " fill="#27B5F7" transform="translate(320,260)"/>
<path d="M0 0 C6.6 0 13.2 0 20 0 C20 33 20 66 20 100 C13.4 100 6.8 100 0 100 C0 67 0 34 0 0 Z " fill="#040351" transform="translate(160,240)"/>
<path d="M0 0 C6.6 0 13.2 0 20 0 C20 19.8 20 39.6 20 60 C6.8 60 -6.4 60 -20 60 C-20 53.4 -20 46.8 -20 40 C-13.4 40 -6.8 40 0 40 C0 26.8 0 13.6 0 0 Z " fill="#F197BA" transform="translate(100,580)"/>
<path d="M0 0 C26.4 0 52.8 0 80 0 C80 6.6 80 13.2 80 20 C53.6 20 27.2 20 0 20 C0 13.4 0 6.8 0 0 Z " fill="#040351" transform="translate(280,400)"/>
<path d="M0 0 C13.2 0 26.4 0 40 0 C40 6.6 40 13.2 40 20 C33.4 20 26.8 20 20 20 C20 26.6 20 33.2 20 40 C6.8 40 -6.4 40 -20 40 C-20 33.4 -20 26.8 -20 20 C-13.4 20 -6.8 20 0 20 C0 13.4 0 6.8 0 0 Z " fill="#F197BA" transform="translate(220,120)"/>
<path d="M0 0 C6.6 0 13.2 0 20 0 C20 6.6 20 13.2 20 20 C26.6 20 33.2 20 40 20 C40 26.6 40 33.2 40 40 C20.2 40 0.4 40 -20 40 C-20 33.4 -20 26.8 -20 20 C-13.4 20 -6.8 20 0 20 C0 13.4 0 6.8 0 0 Z " fill="#F197BA" transform="translate(300,60)"/>
<path d="M0 0 C6.6 0 13.2 0 20 0 C20 19.8 20 39.6 20 60 C13.4 60 6.8 60 0 60 C0 40.2 0 20.4 0 0 Z " fill="#040351" transform="translate(100,680)"/>
<path d="M0 0 C19.8 0 39.6 0 60 0 C60 6.6 60 13.2 60 20 C40.2 20 20.4 20 0 20 C0 13.4 0 6.8 0 0 Z " fill="#354AA5" transform="translate(240,640)"/>
<path d="M0 0 C6.6 0 13.2 0 20 0 C20 6.6 20 13.2 20 20 C26.6 20 33.2 20 40 20 C40 26.6 40 33.2 40 40 C26.8 40 13.6 40 0 40 C0 26.8 0 13.6 0 0 Z " fill="#A81655" transform="translate(380,580)"/>
<path d="M0 0 C6.6 0 13.2 0 20 0 C20 19.8 20 39.6 20 60 C13.4 60 6.8 60 0 60 C0 40.2 0 20.4 0 0 Z " fill="#040351" transform="translate(240,320)"/>
<path d="M0 0 C6.6 0 13.2 0 20 0 C20 19.8 20 39.6 20 60 C13.4 60 6.8 60 0 60 C0 40.2 0 20.4 0 0 Z " fill="#040351" transform="translate(360,300)"/>
<path d="M0 0 C13.2 0 26.4 0 40 0 C40 6.6 40 13.2 40 20 C26.8 20 13.6 20 0 20 C0 13.4 0 6.8 0 0 Z " fill="#354AA5" transform="translate(420,620)"/>
<path d="M0 0 C13.2 0 26.4 0 40 0 C40 6.6 40 13.2 40 20 C26.8 20 13.6 20 0 20 C0 13.4 0 6.8 0 0 Z " fill="#A81655" transform="translate(220,620)"/>
<path d="M0 0 C13.2 0 26.4 0 40 0 C40 6.6 40 13.2 40 20 C26.8 20 13.6 20 0 20 C0 13.4 0 6.8 0 0 Z " fill="#EA1E63" transform="translate(220,600)"/>
<path d="M0 0 C13.2 0 26.4 0 40 0 C40 6.6 40 13.2 40 20 C26.8 20 13.6 20 0 20 C0 13.4 0 6.8 0 0 Z " fill="#EA1E63" transform="translate(400,580)"/>
<path d="M0 0 C6.6 0 13.2 0 20 0 C20 13.2 20 26.4 20 40 C13.4 40 6.8 40 0 40 C0 26.8 0 13.6 0 0 Z " fill="#040351" transform="translate(100,580)"/>
<path d="M0 0 C6.6 0 13.2 0 20 0 C20 13.2 20 26.4 20 40 C13.4 40 6.8 40 0 40 C0 26.8 0 13.6 0 0 Z " fill="#F197BA" transform="translate(560,560)"/>
<path d="M0 0 C13.2 0 26.4 0 40 0 C40 6.6 40 13.2 40 20 C26.8 20 13.6 20 0 20 C0 13.4 0 6.8 0 0 Z " fill="#BAE0F7" transform="translate(320,500)"/>
<path d="M0 0 C13.2 0 26.4 0 40 0 C40 6.6 40 13.2 40 20 C26.8 20 13.6 20 0 20 C0 13.4 0 6.8 0 0 Z " fill="#040351" transform="translate(280,280)"/>
<path d="M0 0 C6.6 0 13.2 0 20 0 C20 13.2 20 26.4 20 40 C13.4 40 6.8 40 0 40 C0 26.8 0 13.6 0 0 Z " fill="#040351" transform="translate(180,200)"/>
<path d="M0 0 C6.6 0 13.2 0 20 0 C20 13.2 20 26.4 20 40 C13.4 40 6.8 40 0 40 C0 26.8 0 13.6 0 0 Z " fill="#040351" transform="translate(400,160)"/>
<path d="M0 0 C6.6 0 13.2 0 20 0 C20 6.6 20 13.2 20 20 C13.4 20 6.8 20 0 20 C0 13.4 0 6.8 0 0 Z " fill="#040351" transform="translate(340,720)"/>
<path d="M0 0 C6.6 0 13.2 0 20 0 C20 6.6 20 13.2 20 20 C13.4 20 6.8 20 0 20 C0 13.4 0 6.8 0 0 Z " fill="#040351" transform="translate(320,700)"/>
<path d="M0 0 C6.6 0 13.2 0 20 0 C20 6.6 20 13.2 20 20 C13.4 20 6.8 20 0 20 C0 13.4 0 6.8 0 0 Z " fill="#040351" transform="translate(180,680)"/>
<path d="M0 0 C6.6 0 13.2 0 20 0 C20 6.6 20 13.2 20 20 C13.4 20 6.8 20 0 20 C0 13.4 0 6.8 0 0 Z " fill="#354AA5" transform="translate(220,660)"/>
<path d="M0 0 C6.6 0 13.2 0 20 0 C20 6.6 20 13.2 20 20 C13.4 20 6.8 20 0 20 C0 13.4 0 6.8 0 0 Z " fill="#040351" transform="translate(480,640)"/>
<path d="M0 0 C6.6 0 13.2 0 20 0 C20 6.6 20 13.2 20 20 C13.4 20 6.8 20 0 20 C0 13.4 0 6.8 0 0 Z " fill="#354AA5" transform="translate(380,640)"/>
<path d="M0 0 C6.6 0 13.2 0 20 0 C20 6.6 20 13.2 20 20 C13.4 20 6.8 20 0 20 C0 13.4 0 6.8 0 0 Z " fill="#040351" transform="translate(80,620)"/>
<path d="M0 0 C6.6 0 13.2 0 20 0 C20 6.6 20 13.2 20 20 C13.4 20 6.8 20 0 20 C0 13.4 0 6.8 0 0 Z " fill="#F197BA" transform="translate(120,580)"/>
<path d="M0 0 C6.6 0 13.2 0 20 0 C20 6.6 20 13.2 20 20 C13.4 20 6.8 20 0 20 C0 13.4 0 6.8 0 0 Z " fill="#EA1E63" transform="translate(440,560)"/>
<path d="M0 0 C6.6 0 13.2 0 20 0 C20 6.6 20 13.2 20 20 C13.4 20 6.8 20 0 20 C0 13.4 0 6.8 0 0 Z " fill="#040351" transform="translate(120,560)"/>
<path d="M0 0 C6.6 0 13.2 0 20 0 C20 6.6 20 13.2 20 20 C13.4 20 6.8 20 0 20 C0 13.4 0 6.8 0 0 Z " fill="#F197BA" transform="translate(540,540)"/>
<path d="M0 0 C6.6 0 13.2 0 20 0 C20 6.6 20 13.2 20 20 C13.4 20 6.8 20 0 20 C0 13.4 0 6.8 0 0 Z " fill="#040351" transform="translate(140,540)"/>
<path d="M0 0 C6.6 0 13.2 0 20 0 C20 6.6 20 13.2 20 20 C13.4 20 6.8 20 0 20 C0 13.4 0 6.8 0 0 Z " fill="#040351" transform="translate(540,520)"/>
<path d="M0 0 C6.6 0 13.2 0 20 0 C20 6.6 20 13.2 20 20 C13.4 20 6.8 20 0 20 C0 13.4 0 6.8 0 0 Z " fill="#040351" transform="translate(340,520)"/>
<path d="M0 0 C6.6 0 13.2 0 20 0 C20 6.6 20 13.2 20 20 C13.4 20 6.8 20 0 20 C0 13.4 0 6.8 0 0 Z " fill="#F197BA" transform="translate(320,520)"/>
<path d="M0 0 C6.6 0 13.2 0 20 0 C20 6.6 20 13.2 20 20 C13.4 20 6.8 20 0 20 C0 13.4 0 6.8 0 0 Z " fill="#BAE0F7" transform="translate(300,520)"/>
<path d="M0 0 C6.6 0 13.2 0 20 0 C20 6.6 20 13.2 20 20 C13.4 20 6.8 20 0 20 C0 13.4 0 6.8 0 0 Z " fill="#A81655" transform="translate(160,520)"/>
<path d="M0 0 C6.6 0 13.2 0 20 0 C20 6.6 20 13.2 20 20 C13.4 20 6.8 20 0 20 C0 13.4 0 6.8 0 0 Z " fill="#040351" transform="translate(520,500)"/>
<path d="M0 0 C6.6 0 13.2 0 20 0 C20 6.6 20 13.2 20 20 C13.4 20 6.8 20 0 20 C0 13.4 0 6.8 0 0 Z " fill="#040351" transform="translate(360,380)"/>
<path d="M0 0 C6.6 0 13.2 0 20 0 C20 6.6 20 13.2 20 20 C13.4 20 6.8 20 0 20 C0 13.4 0 6.8 0 0 Z " fill="#040351" transform="translate(260,380)"/>
<path d="M0 0 C6.6 0 13.2 0 20 0 C20 6.6 20 13.2 20 20 C13.4 20 6.8 20 0 20 C0 13.4 0 6.8 0 0 Z " fill="#BAE0F7" transform="translate(280,360)"/>
<path d="M0 0 C6.6 0 13.2 0 20 0 C20 6.6 20 13.2 20 20 C13.4 20 6.8 20 0 20 C0 13.4 0 6.8 0 0 Z " fill="#BAE0F7" transform="translate(320,300)"/>
<path d="M0 0 C6.6 0 13.2 0 20 0 C20 6.6 20 13.2 20 20 C13.4 20 6.8 20 0 20 C0 13.4 0 6.8 0 0 Z " fill="#040351" transform="translate(260,300)"/>
<path d="M0 0 C6.6 0 13.2 0 20 0 C20 6.6 20 13.2 20 20 C13.4 20 6.8 20 0 20 C0 13.4 0 6.8 0 0 Z " fill="#040351" transform="translate(340,280)"/>
<path d="M0 0 C6.6 0 13.2 0 20 0 C20 6.6 20 13.2 20 20 C13.4 20 6.8 20 0 20 C0 13.4 0 6.8 0 0 Z " fill="#040351" transform="translate(320,260)"/>
<path d="M0 0 C6.6 0 13.2 0 20 0 C20 6.6 20 13.2 20 20 C13.4 20 6.8 20 0 20 C0 13.4 0 6.8 0 0 Z " fill="#040351" transform="translate(420,200)"/>
<path d="M0 0 C6.6 0 13.2 0 20 0 C20 6.6 20 13.2 20 20 C13.4 20 6.8 20 0 20 C0 13.4 0 6.8 0 0 Z " fill="#040351" transform="translate(200,180)"/>
<path d="M0 0 C6.6 0 13.2 0 20 0 C20 6.6 20 13.2 20 20 C13.4 20 6.8 20 0 20 C0 13.4 0 6.8 0 0 Z " fill="#F197BA" transform="translate(200,160)"/>
<path d="M0 0 C6.6 0 13.2 0 20 0 C20 6.6 20 13.2 20 20 C13.4 20 6.8 20 0 20 C0 13.4 0 6.8 0 0 Z " fill="#040351" transform="translate(380,140)"/>
<path d="M0 0 C6.6 0 13.2 0 20 0 C20 6.6 20 13.2 20 20 C13.4 20 6.8 20 0 20 C0 13.4 0 6.8 0 0 Z " fill="#F197BA" transform="translate(360,140)"/>
<path d="M0 0 C6.6 0 13.2 0 20 0 C20 6.6 20 13.2 20 20 C13.4 20 6.8 20 0 20 C0 13.4 0 6.8 0 0 Z " fill="#040351" transform="translate(200,140)"/>
<path d="M0 0 C6.6 0 13.2 0 20 0 C20 6.6 20 13.2 20 20 C13.4 20 6.8 20 0 20 C0 13.4 0 6.8 0 0 Z " fill="#040351" transform="translate(360,120)"/>
<path d="M0 0 C6.6 0 13.2 0 20 0 C20 6.6 20 13.2 20 20 C13.4 20 6.8 20 0 20 C0 13.4 0 6.8 0 0 Z " fill="#F197BA" transform="translate(340,120)"/>
<path d="M0 0 C6.6 0 13.2 0 20 0 C20 6.6 20 13.2 20 20 C13.4 20 6.8 20 0 20 C0 13.4 0 6.8 0 0 Z " fill="#040351" transform="translate(220,120)"/>
<path d="M0 0 C6.6 0 13.2 0 20 0 C20 6.6 20 13.2 20 20 C13.4 20 6.8 20 0 20 C0 13.4 0 6.8 0 0 Z " fill="#040351" transform="translate(340,100)"/>
<path d="M0 0 C6.6 0 13.2 0 20 0 C20 6.6 20 13.2 20 20 C13.4 20 6.8 20 0 20 C0 13.4 0 6.8 0 0 Z " fill="#F197BA" transform="translate(320,100)"/>
<path d="M0 0 C6.6 0 13.2 0 20 0 C20 6.6 20 13.2 20 20 C13.4 20 6.8 20 0 20 C0 13.4 0 6.8 0 0 Z " fill="#040351" transform="translate(240,100)"/>
<path d="M0 0 C6.6 0 13.2 0 20 0 C20 6.6 20 13.2 20 20 C13.4 20 6.8 20 0 20 C0 13.4 0 6.8 0 0 Z " fill="#040351" transform="translate(320,80)"/>
<path d="M0 0 C6.6 0 13.2 0 20 0 C20 6.6 20 13.2 20 20 C13.4 20 6.8 20 0 20 C0 13.4 0 6.8 0 0 Z " fill="#040351" transform="translate(260,80)"/>
<path d="M0 0 C6.6 0 13.2 0 20 0 C20 6.6 20 13.2 20 20 C13.4 20 6.8 20 0 20 C0 13.4 0 6.8 0 0 Z " fill="#040351" transform="translate(300,60)"/>
</svg>
