<?xml version="1.0" encoding="UTF-8"?>
<svg version="1.1" xmlns="http://www.w3.org/2000/svg" width="640" height="960">
<path d="M0 0 C19.8 0 39.6 0 60 0 C60 6.6 60 13.2 60 20 C73.2 20 86.4 20 100 20 C100 33.2 100 46.4 100 60 C106.6 60 113.2 60 120 60 C120 66.6 120 73.2 120 80 C126.6 80 133.2 80 140 80 C140 86.6 140 93.2 140 100 C146.6 100 153.2 100 160 100 C160 119.8 160 139.6 160 160 C166.6 160 173.2 160 180 160 C180 173.2 180 186.4 180 200 C186.6 200 193.2 200 200 200 C200 252.8 200 305.6 200 360 C193.4 360 186.8 360 180 360 C180 412.8 180 465.6 180 520 C193.2 520 206.4 520 220 520 C220 526.6 220 533.2 220 540 C226.6 540 233.2 540 240 540 C240 546.6 240 553.2 240 560 C246.6 560 253.2 560 260 560 C260 566.6 260 573.2 260 580 C266.6 580 273.2 580 280 580 C280 599.8 280 619.6 280 640 C286.6 640 293.2 640 300 640 C300 653.2 300 666.4 300 680 C293.4 680 286.8 680 280 680 C280 713 280 746 280 780 C273.4 780 266.8 780 260 780 C260 786.6 260 793.2 260 800 C240.2 800 220.4 800 200 800 C200 786.8 200 773.6 200 760 C193.4 760 186.8 760 180 760 C180 746.8 180 733.6 180 720 C173.4 720 166.8 720 160 720 C160 713.4 160 706.8 160 700 C153.4 700 146.8 700 140 700 C140 706.6 140 713.2 140 720 C107 720 74 720 40 720 C40 733.2 40 746.4 40 760 C33.4 760 26.8 760 20 760 C20 766.6 20 773.2 20 780 C13.4 780 6.8 780 0 780 C0 773.4 0 766.8 0 760 C-6.6 760 -13.2 760 -20 760 C-20 753.4 -20 746.8 -20 740 C-26.6 740 -33.2 740 -40 740 C-40 726.8 -40 713.6 -40 700 C-73 700 -106 700 -140 700 C-140 693.4 -140 686.8 -140 680 C-159.8 680 -179.6 680 -200 680 C-200 693.2 -200 706.4 -200 720 C-206.6 720 -213.2 720 -220 720 C-220 726.6 -220 733.2 -220 740 C-239.8 740 -259.6 740 -280 740 C-280 733.4 -280 726.8 -280 720 C-286.6 720 -293.2 720 -300 720 C-300 687 -300 654 -300 620 C-293.4 620 -286.8 620 -280 620 C-280 606.8 -280 593.6 -280 580 C-273.4 580 -266.8 580 -260 580 C-260 566.8 -260 553.6 -260 540 C-253.4 540 -246.8 540 -240 540 C-240 533.4 -240 526.8 -240 520 C-233.4 520 -226.8 520 -220 520 C-220 513.4 -220 506.8 -220 500 C-213.4 500 -206.8 500 -200 500 C-200 493.4 -200 486.8 -200 480 C-186.8 480 -173.6 480 -160 480 C-160 460.2 -160 440.4 -160 420 C-153.4 420 -146.8 420 -140 420 C-140 340.8 -140 261.6 -140 180 C-133.4 180 -126.8 180 -120 180 C-120 173.4 -120 166.8 -120 160 C-113.4 160 -106.8 160 -100 160 C-100 146.8 -100 133.6 -100 120 C-93.4 120 -86.8 120 -80 120 C-80 106.8 -80 93.6 -80 80 C-73.4 80 -66.8 80 -60 80 C-60 73.4 -60 66.8 -60 60 C-53.4 60 -46.8 60 -40 60 C-40 53.4 -40 46.8 -40 40 C-33.4 40 -26.8 40 -20 40 C-20 33.4 -20 26.8 -20 20 C-13.4 20 -6.8 20 0 20 C0 13.4 0 6.8 0 0 Z " fill="#0D584F" transform="translate(300,0)"/>
<path d="M0 0 C19.8 0 39.6 0 60 0 C60 6.6 60 13.2 60 20 C126 20 192 20 260 20 C260 26.6 260 33.2 260 40 C273.2 40 286.4 40 300 40 C300 79.6 300 119.2 300 160 C293.4 160 286.8 160 280 160 C280 245.8 280 331.6 280 420 C260.2 420 240.4 420 220 420 C220 413.4 220 406.8 220 400 C200.2 400 180.4 400 160 400 C160 386.8 160 373.6 160 360 C153.4 360 146.8 360 140 360 C140 353.4 140 346.8 140 340 C126.8 340 113.6 340 100 340 C100 346.6 100 353.2 100 360 C93.4 360 86.8 360 80 360 C80 373.2 80 386.4 80 400 C60.2 400 40.4 400 20 400 C20 393.4 20 386.8 20 380 C6.8 380 -6.4 380 -20 380 C-20 340.4 -20 300.8 -20 260 C-13.4 260 -6.8 260 0 260 C0 174.2 0 88.4 0 0 Z " fill="#F3FAFF" transform="translate(180,180)"/>
<path d="M0 0 C19.8 0 39.6 0 60 0 C60 6.6 60 13.2 60 20 C73.2 20 86.4 20 100 20 C100 33.2 100 46.4 100 60 C106.6 60 113.2 60 120 60 C120 66.6 120 73.2 120 80 C126.6 80 133.2 80 140 80 C140 86.6 140 93.2 140 100 C146.6 100 153.2 100 160 100 C160 119.8 160 139.6 160 160 C166.6 160 173.2 160 180 160 C180 179.8 180 199.6 180 220 C166.8 220 153.6 220 140 220 C140 213.4 140 206.8 140 200 C74 200 8 200 -60 200 C-60 193.4 -60 186.8 -60 180 C-79.8 180 -99.6 180 -120 180 C-120 173.4 -120 166.8 -120 160 C-113.4 160 -106.8 160 -100 160 C-100 146.8 -100 133.6 -100 120 C-93.4 120 -86.8 120 -80 120 C-80 106.8 -80 93.6 -80 80 C-73.4 80 -66.8 80 -60 80 C-60 73.4 -60 66.8 -60 60 C-53.4 60 -46.8 60 -40 60 C-40 53.4 -40 46.8 -40 40 C-33.4 40 -26.8 40 -20 40 C-20 33.4 -20 26.8 -20 20 C-13.4 20 -6.8 20 0 20 C0 13.4 0 6.8 0 0 Z " fill="#8F27EB" transform="translate(300,0)"/>
<path d="M0 0 C6.6 0 13.2 0 20 0 C20 52.8 20 105.6 20 160 C13.4 160 6.8 160 0 160 C0 212.8 0 265.6 0 320 C13.2 320 26.4 320 40 320 C40 326.6 40 333.2 40 340 C46.6 340 53.2 340 60 340 C60 346.6 60 353.2 60 360 C66.6 360 73.2 360 80 360 C80 366.6 80 373.2 80 380 C86.6 380 93.2 380 100 380 C100 399.8 100 419.6 100 440 C106.6 440 113.2 440 120 440 C120 453.2 120 466.4 120 480 C113.4 480 106.8 480 100 480 C100 513 100 546 100 580 C93.4 580 86.8 580 80 580 C80 586.6 80 593.2 80 600 C60.2 600 40.4 600 20 600 C20 586.8 20 573.6 20 560 C13.4 560 6.8 560 0 560 C0 546.8 0 533.6 0 520 C-6.6 520 -13.2 520 -20 520 C-20 394.6 -20 269.2 -20 140 C-13.4 140 -6.8 140 0 140 C0 93.8 0 47.6 0 0 Z " fill="#5D1FAB" transform="translate(480,200)"/>
<path d="M0 0 C33 0 66 0 100 0 C100 6.6 100 13.2 100 20 C106.6 20 113.2 20 120 20 C120 59.6 120 99.2 120 140 C113.4 140 106.8 140 100 140 C100 146.6 100 153.2 100 160 C93.4 160 86.8 160 80 160 C80 166.6 80 173.2 80 180 C60.2 180 40.4 180 20 180 C20 173.4 20 166.8 20 160 C13.4 160 6.8 160 0 160 C0 153.4 0 146.8 0 140 C-6.6 140 -13.2 140 -20 140 C-20 133.4 -20 126.8 -20 120 C-26.6 120 -33.2 120 -40 120 C-40 93.6 -40 67.2 -40 40 C-33.4 40 -26.8 40 -20 40 C-20 33.4 -20 26.8 -20 20 C-13.4 20 -6.8 20 0 20 C0 13.4 0 6.8 0 0 Z " fill="#30F753" transform="translate(280,240)"/>
<path d="M0 0 C19.8 0 39.6 0 60 0 C60 52.8 60 105.6 60 160 C33.6 160 7.2 160 -20 160 C-20 166.6 -20 173.2 -20 180 C-33.2 180 -46.4 180 -60 180 C-60 147 -60 114 -60 80 C-53.4 80 -46.8 80 -40 80 C-40 66.8 -40 53.6 -40 40 C-33.4 40 -26.8 40 -20 40 C-20 33.4 -20 26.8 -20 20 C-13.4 20 -6.8 20 0 20 C0 13.4 0 6.8 0 0 Z " fill="#8F27EB" transform="translate(80,500)"/>
<path d="M0 0 C13.2 0 26.4 0 40 0 C40 6.6 40 13.2 40 20 C46.6 20 53.2 20 60 20 C60 26.6 60 33.2 60 40 C66.6 40 73.2 40 80 40 C80 66.4 80 92.8 80 120 C73.4 120 66.8 120 60 120 C60 146.4 60 172.8 60 200 C46.8 200 33.6 200 20 200 C20 186.8 20 173.6 20 160 C13.4 160 6.8 160 0 160 C0 153.4 0 146.8 0 140 C-6.6 140 -13.2 140 -20 140 C-20 120.2 -20 100.4 -20 80 C-13.4 80 -6.8 80 0 80 C0 53.6 0 27.2 0 0 Z " fill="#8F27EB" transform="translate(500,540)"/>
<path d="M0 0 C13.2 0 26.4 0 40 0 C40 85.8 40 171.6 40 260 C33.4 260 26.8 260 20 260 C20 253.4 20 246.8 20 240 C13.4 240 6.8 240 0 240 C0 160.8 0 81.6 0 0 Z " fill="#8F27EB" transform="translate(280,520)"/>
<path d="M0 0 C6.6 0 13.2 0 20 0 C20 52.8 20 105.6 20 160 C13.4 160 6.8 160 0 160 C0 212.8 0 265.6 0 320 C13.2 320 26.4 320 40 320 C40 326.6 40 333.2 40 340 C26.8 340 13.6 340 0 340 C0 359.8 0 379.6 0 400 C-6.6 400 -13.2 400 -20 400 C-20 314.2 -20 228.4 -20 140 C-13.4 140 -6.8 140 0 140 C0 93.8 0 47.6 0 0 Z " fill="#0D584F" transform="translate(480,200)"/>
<path d="M0 0 C6.6 0 13.2 0 20 0 C20 19.8 20 39.6 20 60 C33.2 60 46.4 60 60 60 C60 53.4 60 46.8 60 40 C73.2 40 86.4 40 100 40 C100 59.8 100 79.6 100 100 C93.4 100 86.8 100 80 100 C80 106.6 80 113.2 80 120 C60.2 120 40.4 120 20 120 C20 113.4 20 106.8 20 100 C13.4 100 6.8 100 0 100 C0 67 0 34 0 0 Z " fill="#5D1FAB" transform="translate(0,620)"/>
<path d="M0 0 C19.8 0 39.6 0 60 0 C60 6.6 60 13.2 60 20 C73.2 20 86.4 20 100 20 C100 33.2 100 46.4 100 60 C73.6 60 47.2 60 20 60 C20 53.4 20 46.8 20 40 C13.4 40 6.8 40 0 40 C0 46.6 0 53.2 0 60 C-6.6 60 -13.2 60 -20 60 C-20 66.6 -20 73.2 -20 80 C-33.2 80 -46.4 80 -60 80 C-60 73.4 -60 66.8 -60 60 C-53.4 60 -46.8 60 -40 60 C-40 53.4 -40 46.8 -40 40 C-33.4 40 -26.8 40 -20 40 C-20 33.4 -20 26.8 -20 20 C-13.4 20 -6.8 20 0 20 C0 13.4 0 6.8 0 0 Z " fill="#C59BF2" transform="translate(300,0)"/>
<path d="M0 0 C19.8 0 39.6 0 60 0 C60 6.6 60 13.2 60 20 C66.6 20 73.2 20 80 20 C80 26.6 80 33.2 80 40 C86.6 40 93.2 40 100 40 C100 46.6 100 53.2 100 60 C113.2 60 126.4 60 140 60 C140 66.6 140 73.2 140 80 C153.2 80 166.4 80 180 80 C180 86.6 180 93.2 180 100 C160.2 100 140.4 100 120 100 C120 93.4 120 86.8 120 80 C100.2 80 80.4 80 60 80 C60 66.8 60 53.6 60 40 C53.4 40 46.8 40 40 40 C40 33.4 40 26.8 40 20 C26.8 20 13.6 20 0 20 C0 13.4 0 6.8 0 0 Z " fill="#BDF7CB" transform="translate(280,500)"/>
<path d="M0 0 C13.2 0 26.4 0 40 0 C40 6.6 40 13.2 40 20 C59.8 20 79.6 20 100 20 C100 33.2 100 46.4 100 60 C73.6 60 47.2 60 20 60 C20 53.4 20 46.8 20 40 C13.4 40 6.8 40 0 40 C0 26.8 0 13.6 0 0 Z " fill="#5D1FAB" transform="translate(340,600)"/>
<path d="M0 0 C13.2 0 26.4 0 40 0 C40 6.6 40 13.2 40 20 C59.8 20 79.6 20 100 20 C100 33.2 100 46.4 100 60 C73.6 60 47.2 60 20 60 C20 53.4 20 46.8 20 40 C13.4 40 6.8 40 0 40 C0 26.8 0 13.6 0 0 Z " fill="#8F27EB" transform="translate(160,580)"/>
<path d="M0 0 C6.6 0 13.2 0 20 0 C20 52.8 20 105.6 20 160 C6.8 160 -6.4 160 -20 160 C-20 153.4 -20 146.8 -20 140 C-13.4 140 -6.8 140 0 140 C0 93.8 0 47.6 0 0 Z " fill="#5D1FAB" transform="translate(120,500)"/>
<path d="M0 0 C6.6 0 13.2 0 20 0 C20 13.2 20 26.4 20 40 C13.4 40 6.8 40 0 40 C0 73 0 106 0 140 C-6.6 140 -13.2 140 -20 140 C-20 100.4 -20 60.8 -20 20 C-13.4 20 -6.8 20 0 20 C0 13.4 0 6.8 0 0 Z " fill="#0D584F" transform="translate(580,640)"/>
<path d="M0 0 C13.2 0 26.4 0 40 0 C40 26.4 40 52.8 40 80 C33.4 80 26.8 80 20 80 C20 73.4 20 66.8 20 60 C13.4 60 6.8 60 0 60 C0 40.2 0 20.4 0 0 Z " fill="#5D1FAB" transform="translate(280,700)"/>
<path d="M0 0 C19.8 0 39.6 0 60 0 C60 6.6 60 13.2 60 20 C66.6 20 73.2 20 80 20 C80 13.4 80 6.8 80 0 C86.6 0 93.2 0 100 0 C100 13.2 100 26.4 100 40 C80.2 40 60.4 40 40 40 C40 33.4 40 26.8 40 20 C26.8 20 13.6 20 0 20 C0 13.4 0 6.8 0 0 Z " fill="#BDF7CB" transform="translate(160,540)"/>
<path d="M0 0 C19.8 0 39.6 0 60 0 C60 6.6 60 13.2 60 20 C73.2 20 86.4 20 100 20 C100 33.2 100 46.4 100 60 C93.4 60 86.8 60 80 60 C80 53.4 80 46.8 80 40 C66.8 40 53.6 40 40 40 C40 33.4 40 26.8 40 20 C26.8 20 13.6 20 0 20 C0 13.4 0 6.8 0 0 Z " fill="#0D584F" transform="translate(300,0)"/>
<path d="M0 0 C6.6 0 13.2 0 20 0 C20 6.6 20 13.2 20 20 C46.4 20 72.8 20 100 20 C100 26.6 100 33.2 100 40 C67 40 34 40 0 40 C0 26.8 0 13.6 0 0 Z " fill="#3DA986" transform="translate(340,660)"/>
<path d="M0 0 C6.6 0 13.2 0 20 0 C20 39.6 20 79.2 20 120 C13.4 120 6.8 120 0 120 C0 80.4 0 40.8 0 0 Z " fill="#0D584F" transform="translate(380,260)"/>
<path d="M0 0 C33 0 66 0 100 0 C100 6.6 100 13.2 100 20 C67 20 34 20 0 20 C0 13.4 0 6.8 0 0 Z " fill="#3DA986" transform="translate(160,660)"/>
<path d="M0 0 C6.6 0 13.2 0 20 0 C20 33 20 66 20 100 C13.4 100 6.8 100 0 100 C0 67 0 34 0 0 Z " fill="#0D584F" transform="translate(0,620)"/>
<path d="M0 0 C6.6 0 13.2 0 20 0 C20 13.2 20 26.4 20 40 C-6.4 40 -32.8 40 -60 40 C-60 33.4 -60 26.8 -60 20 C-40.2 20 -20.4 20 0 20 C0 13.4 0 6.8 0 0 Z " fill="#5D1FAB" transform="translate(240,600)"/>
<path d="M0 0 C13.2 0 26.4 0 40 0 C40 6.6 40 13.2 40 20 C53.2 20 66.4 20 80 20 C80 26.6 80 33.2 80 40 C60.2 40 40.4 40 20 40 C20 33.4 20 26.8 20 20 C13.4 20 6.8 20 0 20 C0 13.4 0 6.8 0 0 Z " fill="#0D584F" transform="translate(280,380)"/>
<path d="M0 0 C33 0 66 0 100 0 C100 6.6 100 13.2 100 20 C67 20 34 20 0 20 C0 13.4 0 6.8 0 0 Z " fill="#0D584F" transform="translate(280,240)"/>
<path d="M0 0 C13.2 0 26.4 0 40 0 C40 13.2 40 26.4 40 40 C26.8 40 13.6 40 0 40 C0 26.8 0 13.6 0 0 Z " fill="#C59BF2" transform="translate(280,520)"/>
<path d="M0 0 C13.2 0 26.4 0 40 0 C40 13.2 40 26.4 40 40 C26.8 40 13.6 40 0 40 C0 26.8 0 13.6 0 0 Z " fill="#C59BF2" transform="translate(40,540)"/>
<path d="M0 0 C6.6 0 13.2 0 20 0 C20 26.4 20 52.8 20 80 C13.4 80 6.8 80 0 80 C0 53.6 0 27.2 0 0 Z " fill="#0D584F" transform="translate(240,280)"/>
<path d="M0 0 C13.2 0 26.4 0 40 0 C40 6.6 40 13.2 40 20 C33.4 20 26.8 20 20 20 C20 26.6 20 33.2 20 40 C6.8 40 -6.4 40 -20 40 C-20 33.4 -20 26.8 -20 20 C-13.4 20 -6.8 20 0 20 C0 13.4 0 6.8 0 0 Z " fill="#C59BF2" transform="translate(260,40)"/>
<path d="M0 0 C19.8 0 39.6 0 60 0 C60 6.6 60 13.2 60 20 C40.2 20 20.4 20 0 20 C0 13.4 0 6.8 0 0 Z " fill="#0D584F" transform="translate(500,780)"/>
<path d="M0 0 C19.8 0 39.6 0 60 0 C60 6.6 60 13.2 60 20 C40.2 20 20.4 20 0 20 C0 13.4 0 6.8 0 0 Z " fill="#0D584F" transform="translate(20,720)"/>
<path d="M0 0 C19.8 0 39.6 0 60 0 C60 6.6 60 13.2 60 20 C40.2 20 20.4 20 0 20 C0 13.4 0 6.8 0 0 Z " fill="#8F27EB" transform="translate(380,620)"/>
<path d="M0 0 C13.2 0 26.4 0 40 0 C40 13.2 40 26.4 40 40 C33.4 40 26.8 40 20 40 C20 33.4 20 26.8 20 20 C13.4 20 6.8 20 0 20 C0 13.4 0 6.8 0 0 Z " fill="#BDF7CB" transform="translate(320,280)"/>
<path d="M0 0 C6.6 0 13.2 0 20 0 C20 13.2 20 26.4 20 40 C13.4 40 6.8 40 0 40 C0 26.8 0 13.6 0 0 Z " fill="#0D584F" transform="translate(480,720)"/>
<path d="M0 0 C6.6 0 13.2 0 20 0 C20 13.2 20 26.4 20 40 C13.4 40 6.8 40 0 40 C0 26.8 0 13.6 0 0 Z " fill="#0D584F" transform="translate(80,680)"/>
<path d="M0 0 C6.6 0 13.2 0 20 0 C20 13.2 20 26.4 20 40 C13.4 40 6.8 40 0 40 C0 26.8 0 13.6 0 0 Z " fill="#C59BF2" transform="translate(560,620)"/>
<path d="M0 0 C6.6 0 13.2 0 20 0 C20 13.2 20 26.4 20 40 C13.4 40 6.8 40 0 40 C0 26.8 0 13.6 0 0 Z " fill="#0D584F" transform="translate(560,580)"/>
<path d="M0 0 C6.6 0 13.2 0 20 0 C20 13.2 20 26.4 20 40 C13.4 40 6.8 40 0 40 C0 26.8 0 13.6 0 0 Z " fill="#C59BF2" transform="translate(540,580)"/>
<path d="M0 0 C6.6 0 13.2 0 20 0 C20 13.2 20 26.4 20 40 C13.4 40 6.8 40 0 40 C0 26.8 0 13.6 0 0 Z " fill="#C59BF2" transform="translate(40,580)"/>
<path d="M0 0 C6.6 0 13.2 0 20 0 C20 13.2 20 26.4 20 40 C13.4 40 6.8 40 0 40 C0 26.8 0 13.6 0 0 Z " fill="#0D584F" transform="translate(20,580)"/>
<path d="M0 0 C6.6 0 13.2 0 20 0 C20 13.2 20 26.4 20 40 C13.4 40 6.8 40 0 40 C0 26.8 0 13.6 0 0 Z " fill="#0D584F" transform="translate(40,540)"/>
<path d="M0 0 C13.2 0 26.4 0 40 0 C40 6.6 40 13.2 40 20 C26.8 20 13.6 20 0 20 C0 13.4 0 6.8 0 0 Z " fill="#0D584F" transform="translate(280,520)"/>
<path d="M0 0 C13.2 0 26.4 0 40 0 C40 6.6 40 13.2 40 20 C26.8 20 13.6 20 0 20 C0 13.4 0 6.8 0 0 Z " fill="#C59BF2" transform="translate(60,520)"/>
<path d="M0 0 C6.6 0 13.2 0 20 0 C20 13.2 20 26.4 20 40 C13.4 40 6.8 40 0 40 C0 26.8 0 13.6 0 0 Z " fill="#0D584F" transform="translate(460,160)"/>
<path d="M0 0 C6.6 0 13.2 0 20 0 C20 13.2 20 26.4 20 40 C13.4 40 6.8 40 0 40 C0 26.8 0 13.6 0 0 Z " fill="#0D584F" transform="translate(200,120)"/>
<path d="M0 0 C6.6 0 13.2 0 20 0 C20 13.2 20 26.4 20 40 C13.4 40 6.8 40 0 40 C0 26.8 0 13.6 0 0 Z " fill="#0D584F" transform="translate(440,100)"/>
<path d="M0 0 C6.6 0 13.2 0 20 0 C20 13.2 20 26.4 20 40 C13.4 40 6.8 40 0 40 C0 26.8 0 13.6 0 0 Z " fill="#C59BF2" transform="translate(420,100)"/>
<path d="M0 0 C6.6 0 13.2 0 20 0 C20 13.2 20 26.4 20 40 C13.4 40 6.8 40 0 40 C0 26.8 0 13.6 0 0 Z " fill="#C59BF2" transform="translate(240,80)"/>
<path d="M0 0 C6.6 0 13.2 0 20 0 C20 13.2 20 26.4 20 40 C13.4 40 6.8 40 0 40 C0 26.8 0 13.6 0 0 Z " fill="#0D584F" transform="translate(220,80)"/>
<path d="M0 0 C6.6 0 13.2 0 20 0 C20 6.6 20 13.2 20 20 C13.4 20 6.8 20 0 20 C0 13.4 0 6.8 0 0 Z " fill="#0D584F" transform="translate(300,760)"/>
<path d="M0 0 C6.6 0 13.2 0 20 0 C20 6.6 20 13.2 20 20 C13.4 20 6.8 20 0 20 C0 13.4 0 6.8 0 0 Z " fill="#0D584F" transform="translate(280,740)"/>
<path d="M0 0 C6.6 0 13.2 0 20 0 C20 6.6 20 13.2 20 20 C13.4 20 6.8 20 0 20 C0 13.4 0 6.8 0 0 Z " fill="#0D584F" transform="translate(460,700)"/>
<path d="M0 0 C6.6 0 13.2 0 20 0 C20 6.6 20 13.2 20 20 C13.4 20 6.8 20 0 20 C0 13.4 0 6.8 0 0 Z " fill="#8F27EB" transform="translate(360,600)"/>
<path d="M0 0 C6.6 0 13.2 0 20 0 C20 6.6 20 13.2 20 20 C13.4 20 6.8 20 0 20 C0 13.4 0 6.8 0 0 Z " fill="#5D1FAB" transform="translate(160,600)"/>
<path d="M0 0 C6.6 0 13.2 0 20 0 C20 6.6 20 13.2 20 20 C13.4 20 6.8 20 0 20 C0 13.4 0 6.8 0 0 Z " fill="#0D584F" transform="translate(540,560)"/>
<path d="M0 0 C6.6 0 13.2 0 20 0 C20 6.6 20 13.2 20 20 C13.4 20 6.8 20 0 20 C0 13.4 0 6.8 0 0 Z " fill="#C59BF2" transform="translate(520,560)"/>
<path d="M0 0 C6.6 0 13.2 0 20 0 C20 6.6 20 13.2 20 20 C13.4 20 6.8 20 0 20 C0 13.4 0 6.8 0 0 Z " fill="#0D584F" transform="translate(520,540)"/>
<path d="M0 0 C6.6 0 13.2 0 20 0 C20 6.6 20 13.2 20 20 C13.4 20 6.8 20 0 20 C0 13.4 0 6.8 0 0 Z " fill="#BDF7CB" transform="translate(260,520)"/>
<path d="M0 0 C6.6 0 13.2 0 20 0 C20 6.6 20 13.2 20 20 C13.4 20 6.8 20 0 20 C0 13.4 0 6.8 0 0 Z " fill="#0D584F" transform="translate(60,520)"/>
<path d="M0 0 C6.6 0 13.2 0 20 0 C20 6.6 20 13.2 20 20 C13.4 20 6.8 20 0 20 C0 13.4 0 6.8 0 0 Z " fill="#0D584F" transform="translate(80,500)"/>
<path d="M0 0 C6.6 0 13.2 0 20 0 C20 6.6 20 13.2 20 20 C13.4 20 6.8 20 0 20 C0 13.4 0 6.8 0 0 Z " fill="#0D584F" transform="translate(360,380)"/>
<path d="M0 0 C6.6 0 13.2 0 20 0 C20 6.6 20 13.2 20 20 C13.4 20 6.8 20 0 20 C0 13.4 0 6.8 0 0 Z " fill="#0D584F" transform="translate(260,360)"/>
<path d="M0 0 C6.6 0 13.2 0 20 0 C20 6.6 20 13.2 20 20 C13.4 20 6.8 20 0 20 C0 13.4 0 6.8 0 0 Z " fill="#BDF7CB" transform="translate(280,340)"/>
<path d="M0 0 C6.6 0 13.2 0 20 0 C20 6.6 20 13.2 20 20 C13.4 20 6.8 20 0 20 C0 13.4 0 6.8 0 0 Z " fill="#0D584F" transform="translate(260,260)"/>
<path d="M0 0 C6.6 0 13.2 0 20 0 C20 6.6 20 13.2 20 20 C13.4 20 6.8 20 0 20 C0 13.4 0 6.8 0 0 Z " fill="#0D584F" transform="translate(180,160)"/>
<path d="M0 0 C6.6 0 13.2 0 20 0 C20 6.6 20 13.2 20 20 C13.4 20 6.8 20 0 20 C0 13.4 0 6.8 0 0 Z " fill="#0D584F" transform="translate(420,80)"/>
<path d="M0 0 C6.6 0 13.2 0 20 0 C20 6.6 20 13.2 20 20 C13.4 20 6.8 20 0 20 C0 13.4 0 6.8 0 0 Z " fill="#C59BF2" transform="translate(400,80)"/>
<path d="M0 0 C6.6 0 13.2 0 20 0 C20 6.6 20 13.2 20 20 C13.4 20 6.8 20 0 20 C0 13.4 0 6.8 0 0 Z " fill="#0D584F" transform="translate(400,60)"/>
<path d="M0 0 C6.6 0 13.2 0 20 0 C20 6.6 20 13.2 20 20 C13.4 20 6.8 20 0 20 C0 13.4 0 6.8 0 0 Z " fill="#C59BF2" transform="translate(380,60)"/>
<path d="M0 0 C6.6 0 13.2 0 20 0 C20 6.6 20 13.2 20 20 C13.4 20 6.8 20 0 20 C0 13.4 0 6.8 0 0 Z " fill="#0D584F" transform="translate(240,60)"/>
<path d="M0 0 C6.6 0 13.2 0 20 0 C20 6.6 20 13.2 20 20 C13.4 20 6.8 20 0 20 C0 13.4 0 6.8 0 0 Z " fill="#0D584F" transform="translate(260,40)"/>
<path d="M0 0 C6.6 0 13.2 0 20 0 C20 6.6 20 13.2 20 20 C13.4 20 6.8 20 0 20 C0 13.4 0 6.8 0 0 Z " fill="#0D584F" transform="translate(280,20)"/>
</svg>
