<?xml version="1.0" encoding="UTF-8"?>
<!DOCTYPE svg PUBLIC "-//W3C//DTD SVG 1.1//EN" "http://www.w3.org/Graphics/SVG/1.1/DTD/svg11.dtd">
<svg xmlns="http://www.w3.org/2000/svg" version="1.1" width="640px" height="960px" style="shape-rendering:geometricPrecision; text-rendering:geometricPrecision; image-rendering:optimizeQuality; fill-rule:evenodd; clip-rule:evenodd" xmlns:xlink="http://www.w3.org/1999/xlink">
<g><path style="opacity:1" fill="#016a00" d="M 319.5,79.5 C 312.833,79.5 306.167,79.5 299.5,79.5C 299.5,72.8333 299.5,66.1667 299.5,59.5C 306.167,59.5 312.833,59.5 319.5,59.5C 319.5,66.1667 319.5,72.8333 319.5,79.5 Z"/></g>
<g><path style="opacity:1" fill="#016a00" d="M 279.5,79.5 C 279.5,86.1667 279.5,92.8333 279.5,99.5C 272.833,99.5 266.167,99.5 259.5,99.5C 259.5,92.8333 259.5,86.1667 259.5,79.5C 266.167,79.5 272.833,79.5 279.5,79.5 Z"/></g>
<g><path style="opacity:1" fill="#81912c" d="M 279.5,79.5 C 286.167,79.5 292.833,79.5 299.5,79.5C 306.167,79.5 312.833,79.5 319.5,79.5C 319.5,86.1667 319.5,92.8333 319.5,99.5C 306.167,99.5 292.833,99.5 279.5,99.5C 279.5,92.8333 279.5,86.1667 279.5,79.5 Z"/></g>
<g><path style="opacity:1" fill="#016a00" d="M 319.5,79.5 C 326.167,79.5 332.833,79.5 339.5,79.5C 339.5,86.1667 339.5,92.8333 339.5,99.5C 332.833,99.5 326.167,99.5 319.5,99.5C 319.5,92.8333 319.5,86.1667 319.5,79.5 Z"/></g>
<g><path style="opacity:1" fill="#016a00" d="M 259.5,99.5 C 259.5,106.167 259.5,112.833 259.5,119.5C 252.833,119.5 246.167,119.5 239.5,119.5C 239.5,112.833 239.5,106.167 239.5,99.5C 246.167,99.5 252.833,99.5 259.5,99.5 Z"/></g>
<g><path style="opacity:1" fill="#05e978" d="M 259.5,99.5 C 266.167,99.5 272.833,99.5 279.5,99.5C 292.833,99.5 306.167,99.5 319.5,99.5C 319.5,106.167 319.5,112.833 319.5,119.5C 326.167,119.5 332.833,119.5 339.5,119.5C 339.5,126.167 339.5,132.833 339.5,139.5C 346.167,139.5 352.833,139.5 359.5,139.5C 359.5,146.167 359.5,152.833 359.5,159.5C 366.167,159.5 372.833,159.5 379.5,159.5C 386.167,159.5 392.833,159.5 399.5,159.5C 399.5,172.833 399.5,186.167 399.5,199.5C 406.167,199.5 412.833,199.5 419.5,199.5C 419.5,206.167 419.5,212.833 419.5,219.5C 392.833,219.5 366.167,219.5 339.5,219.5C 339.5,226.167 339.5,232.833 339.5,239.5C 292.833,239.5 246.167,239.5 199.5,239.5C 199.5,226.167 199.5,212.833 199.5,199.5C 206.167,199.5 212.833,199.5 219.5,199.5C 219.5,192.833 219.5,186.167 219.5,179.5C 219.5,172.833 219.5,166.167 219.5,159.5C 226.167,159.5 232.833,159.5 239.5,159.5C 239.5,152.833 239.5,146.167 239.5,139.5C 246.167,139.5 252.833,139.5 259.5,139.5C 259.5,132.833 259.5,126.167 259.5,119.5C 259.5,112.833 259.5,106.167 259.5,99.5 Z"/></g>
<g><path style="opacity:1" fill="#81912c" d="M 319.5,99.5 C 326.167,99.5 332.833,99.5 339.5,99.5C 339.5,106.167 339.5,112.833 339.5,119.5C 332.833,119.5 326.167,119.5 319.5,119.5C 319.5,112.833 319.5,106.167 319.5,99.5 Z"/></g>
<g><path style="opacity:1" fill="#016a00" d="M 339.5,99.5 C 346.167,99.5 352.833,99.5 359.5,99.5C 359.5,106.167 359.5,112.833 359.5,119.5C 352.833,119.5 346.167,119.5 339.5,119.5C 339.5,112.833 339.5,106.167 339.5,99.5 Z"/></g>
<g><path style="opacity:1" fill="#016a00" d="M 239.5,119.5 C 239.5,126.167 239.5,132.833 239.5,139.5C 232.833,139.5 226.167,139.5 219.5,139.5C 219.5,132.833 219.5,126.167 219.5,119.5C 226.167,119.5 232.833,119.5 239.5,119.5 Z"/></g>
<g><path style="opacity:1" fill="#81912c" d="M 239.5,119.5 C 246.167,119.5 252.833,119.5 259.5,119.5C 259.5,126.167 259.5,132.833 259.5,139.5C 252.833,139.5 246.167,139.5 239.5,139.5C 239.5,132.833 239.5,126.167 239.5,119.5 Z"/></g>
<g><path style="opacity:1" fill="#81912c" d="M 339.5,119.5 C 346.167,119.5 352.833,119.5 359.5,119.5C 359.5,126.167 359.5,132.833 359.5,139.5C 352.833,139.5 346.167,139.5 339.5,139.5C 339.5,132.833 339.5,126.167 339.5,119.5 Z"/></g>
<g><path style="opacity:1" fill="#016a00" d="M 359.5,119.5 C 366.167,119.5 372.833,119.5 379.5,119.5C 379.5,126.167 379.5,132.833 379.5,139.5C 372.833,139.5 366.167,139.5 359.5,139.5C 359.5,132.833 359.5,126.167 359.5,119.5 Z"/></g>
<g><path style="opacity:1" fill="#016a00" d="M 219.5,139.5 C 219.5,146.167 219.5,152.833 219.5,159.5C 212.833,159.5 206.167,159.5 199.5,159.5C 199.5,152.833 199.5,146.167 199.5,139.5C 206.167,139.5 212.833,139.5 219.5,139.5 Z"/></g>
<g><path style="opacity:1" fill="#81912c" d="M 219.5,139.5 C 226.167,139.5 232.833,139.5 239.5,139.5C 239.5,146.167 239.5,152.833 239.5,159.5C 232.833,159.5 226.167,159.5 219.5,159.5C 219.5,152.833 219.5,146.167 219.5,139.5 Z"/></g>
<g><path style="opacity:1" fill="#81912c" d="M 359.5,139.5 C 366.167,139.5 372.833,139.5 379.5,139.5C 379.5,146.167 379.5,152.833 379.5,159.5C 372.833,159.5 366.167,159.5 359.5,159.5C 359.5,152.833 359.5,146.167 359.5,139.5 Z"/></g>
<g><path style="opacity:1" fill="#016a00" d="M 379.5,139.5 C 386.167,139.5 392.833,139.5 399.5,139.5C 399.5,146.167 399.5,152.833 399.5,159.5C 392.833,159.5 386.167,159.5 379.5,159.5C 379.5,152.833 379.5,146.167 379.5,139.5 Z"/></g>
<g><path style="opacity:1" fill="#81912c" d="M 199.5,159.5 C 206.167,159.5 212.833,159.5 219.5,159.5C 219.5,166.167 219.5,172.833 219.5,179.5C 212.833,179.5 206.167,179.5 199.5,179.5C 199.5,172.833 199.5,166.167 199.5,159.5 Z"/></g>
<g><path style="opacity:1" fill="#016a00" d="M 399.5,159.5 C 406.167,159.5 412.833,159.5 419.5,159.5C 419.5,172.833 419.5,186.167 419.5,199.5C 412.833,199.5 406.167,199.5 399.5,199.5C 399.5,186.167 399.5,172.833 399.5,159.5 Z"/></g>
<g><path style="opacity:1" fill="#016a00" d="M 199.5,179.5 C 206.167,179.5 212.833,179.5 219.5,179.5C 219.5,186.167 219.5,192.833 219.5,199.5C 212.833,199.5 206.167,199.5 199.5,199.5C 199.5,192.833 199.5,186.167 199.5,179.5 Z"/></g>
<g><path style="opacity:1" fill="#016a00" d="M 199.5,199.5 C 199.5,212.833 199.5,226.167 199.5,239.5C 192.833,239.5 186.167,239.5 179.5,239.5C 179.5,226.167 179.5,212.833 179.5,199.5C 186.167,199.5 192.833,199.5 199.5,199.5 Z"/></g>
<g><path style="opacity:1" fill="#016a00" d="M 419.5,199.5 C 426.167,199.5 432.833,199.5 439.5,199.5C 439.5,206.167 439.5,212.833 439.5,219.5C 432.833,219.5 426.167,219.5 419.5,219.5C 419.5,212.833 419.5,206.167 419.5,199.5 Z"/></g>
<g><path style="opacity:1" fill="#6300d9" d="M 419.5,219.5 C 426.167,219.5 432.833,219.5 439.5,219.5C 439.5,226.167 439.5,232.833 439.5,239.5C 439.5,306.167 439.5,372.833 439.5,439.5C 446.167,439.5 452.833,439.5 459.5,439.5C 459.5,446.167 459.5,452.833 459.5,459.5C 459.5,486.167 459.5,512.833 459.5,539.5C 432.833,539.5 406.167,539.5 379.5,539.5C 379.5,532.833 379.5,526.167 379.5,519.5C 372.833,519.5 366.167,519.5 359.5,519.5C 359.5,512.833 359.5,506.167 359.5,499.5C 346.167,499.5 332.833,499.5 319.5,499.5C 319.5,506.167 319.5,512.833 319.5,519.5C 312.833,519.5 306.167,519.5 299.5,519.5C 299.5,526.167 299.5,532.833 299.5,539.5C 292.833,539.5 286.167,539.5 279.5,539.5C 279.5,546.167 279.5,552.833 279.5,559.5C 252.833,559.5 226.167,559.5 199.5,559.5C 199.5,492.833 199.5,426.167 199.5,359.5C 192.833,359.5 186.167,359.5 179.5,359.5C 179.5,352.833 179.5,346.167 179.5,339.5C 179.5,306.167 179.5,272.833 179.5,239.5C 186.167,239.5 192.833,239.5 199.5,239.5C 246.167,239.5 292.833,239.5 339.5,239.5C 339.5,232.833 339.5,226.167 339.5,219.5C 366.167,219.5 392.833,219.5 419.5,219.5 Z"/></g>
<g><path style="opacity:1" fill="#016a00" d="M 179.5,239.5 C 179.5,272.833 179.5,306.167 179.5,339.5C 172.833,339.5 166.167,339.5 159.5,339.5C 159.5,306.167 159.5,272.833 159.5,239.5C 166.167,239.5 172.833,239.5 179.5,239.5 Z"/></g>
<g><path style="opacity:1" fill="#016a00" d="M 439.5,239.5 C 446.167,239.5 452.833,239.5 459.5,239.5C 459.5,306.167 459.5,372.833 459.5,439.5C 452.833,439.5 446.167,439.5 439.5,439.5C 439.5,372.833 439.5,306.167 439.5,239.5 Z"/></g>
<g><path style="opacity:1" fill="#016a00" d="M 339.5,279.5 C 332.833,279.5 326.167,279.5 319.5,279.5C 319.5,272.833 319.5,266.167 319.5,259.5C 326.167,259.5 332.833,259.5 339.5,259.5C 339.5,266.167 339.5,272.833 339.5,279.5 Z"/></g>
<g><path style="opacity:1" fill="#016a00" d="M 319.5,279.5 C 319.5,286.167 319.5,292.833 319.5,299.5C 306.167,299.5 292.833,299.5 279.5,299.5C 279.5,292.833 279.5,286.167 279.5,279.5C 292.833,279.5 306.167,279.5 319.5,279.5 Z"/></g>
<g><path style="opacity:1" fill="#d37ae5" d="M 319.5,279.5 C 326.167,279.5 332.833,279.5 339.5,279.5C 339.5,286.167 339.5,292.833 339.5,299.5C 332.833,299.5 326.167,299.5 319.5,299.5C 319.5,292.833 319.5,286.167 319.5,279.5 Z"/></g>
<g><path style="opacity:1" fill="#016a00" d="M 339.5,279.5 C 346.167,279.5 352.833,279.5 359.5,279.5C 359.5,286.167 359.5,292.833 359.5,299.5C 352.833,299.5 346.167,299.5 339.5,299.5C 339.5,292.833 339.5,286.167 339.5,279.5 Z"/></g>
<g><path style="opacity:1" fill="#016a00" d="M 279.5,299.5 C 279.5,306.167 279.5,312.833 279.5,319.5C 272.833,319.5 266.167,319.5 259.5,319.5C 259.5,312.833 259.5,306.167 259.5,299.5C 266.167,299.5 272.833,299.5 279.5,299.5 Z"/></g>
<g><path style="opacity:1" fill="#d37ae5" d="M 279.5,299.5 C 292.833,299.5 306.167,299.5 319.5,299.5C 319.5,306.167 319.5,312.833 319.5,319.5C 326.167,319.5 332.833,319.5 339.5,319.5C 339.5,312.833 339.5,306.167 339.5,299.5C 346.167,299.5 352.833,299.5 359.5,299.5C 359.5,319.5 359.5,339.5 359.5,359.5C 366.167,359.5 372.833,359.5 379.5,359.5C 379.5,366.167 379.5,372.833 379.5,379.5C 372.833,379.5 366.167,379.5 359.5,379.5C 359.5,386.167 359.5,392.833 359.5,399.5C 332.833,399.5 306.167,399.5 279.5,399.5C 279.5,392.833 279.5,386.167 279.5,379.5C 272.833,379.5 266.167,379.5 259.5,379.5C 259.5,359.5 259.5,339.5 259.5,319.5C 266.167,319.5 272.833,319.5 279.5,319.5C 279.5,312.833 279.5,306.167 279.5,299.5 Z"/></g>
<g><path style="opacity:1" fill="#004b7d" d="M 319.5,299.5 C 326.167,299.5 332.833,299.5 339.5,299.5C 339.5,306.167 339.5,312.833 339.5,319.5C 332.833,319.5 326.167,319.5 319.5,319.5C 319.5,312.833 319.5,306.167 319.5,299.5 Z"/></g>
<g><path style="opacity:1" fill="#016a00" d="M 359.5,299.5 C 366.167,299.5 372.833,299.5 379.5,299.5C 379.5,319.5 379.5,339.5 379.5,359.5C 372.833,359.5 366.167,359.5 359.5,359.5C 359.5,339.5 359.5,319.5 359.5,299.5 Z"/></g>
<g><path style="opacity:1" fill="#016a00" d="M 259.5,319.5 C 259.5,339.5 259.5,359.5 259.5,379.5C 252.833,379.5 246.167,379.5 239.5,379.5C 239.5,359.5 239.5,339.5 239.5,319.5C 246.167,319.5 252.833,319.5 259.5,319.5 Z"/></g>
<g><path style="opacity:1" fill="#016a00" d="M 179.5,359.5 C 186.167,359.5 192.833,359.5 199.5,359.5C 199.5,426.167 199.5,492.833 199.5,559.5C 192.833,559.5 186.167,559.5 179.5,559.5C 179.5,552.833 179.5,546.167 179.5,539.5C 179.5,532.833 179.5,526.167 179.5,519.5C 179.5,466.167 179.5,412.833 179.5,359.5 Z"/></g>
<g><path style="opacity:1" fill="#004b7d" d="M 279.5,379.5 C 279.5,372.833 279.5,366.167 279.5,359.5C 286.167,359.5 292.833,359.5 299.5,359.5C 299.5,366.167 299.5,372.833 299.5,379.5C 292.833,379.5 286.167,379.5 279.5,379.5 Z"/></g>
<g><path style="opacity:1" fill="#016a00" d="M 259.5,379.5 C 266.167,379.5 272.833,379.5 279.5,379.5C 279.5,386.167 279.5,392.833 279.5,399.5C 272.833,399.5 266.167,399.5 259.5,399.5C 259.5,392.833 259.5,386.167 259.5,379.5 Z"/></g>
<g><path style="opacity:1" fill="#016a00" d="M 379.5,379.5 C 379.5,386.167 379.5,392.833 379.5,399.5C 372.833,399.5 366.167,399.5 359.5,399.5C 359.5,392.833 359.5,386.167 359.5,379.5C 366.167,379.5 372.833,379.5 379.5,379.5 Z"/></g>
<g><path style="opacity:1" fill="#016a00" d="M 279.5,399.5 C 306.167,399.5 332.833,399.5 359.5,399.5C 359.5,406.167 359.5,412.833 359.5,419.5C 332.833,419.5 306.167,419.5 279.5,419.5C 279.5,412.833 279.5,406.167 279.5,399.5 Z"/></g>
<g><path style="opacity:1" fill="#016a00" d="M 459.5,459.5 C 466.167,459.5 472.833,459.5 479.5,459.5C 479.5,466.167 479.5,472.833 479.5,479.5C 492.833,479.5 506.167,479.5 519.5,479.5C 519.5,486.167 519.5,492.833 519.5,499.5C 512.833,499.5 506.167,499.5 499.5,499.5C 492.833,499.5 486.167,499.5 479.5,499.5C 479.5,546.167 479.5,592.833 479.5,639.5C 472.833,639.5 466.167,639.5 459.5,639.5C 459.5,632.833 459.5,626.167 459.5,619.5C 446.167,619.5 432.833,619.5 419.5,619.5C 419.5,612.833 419.5,606.167 419.5,599.5C 426.167,599.5 432.833,599.5 439.5,599.5C 446.167,599.5 452.833,599.5 459.5,599.5C 459.5,592.833 459.5,586.167 459.5,579.5C 459.5,572.833 459.5,566.167 459.5,559.5C 459.5,552.833 459.5,546.167 459.5,539.5C 459.5,512.833 459.5,486.167 459.5,459.5 Z"/></g>
<g><path style="opacity:1" fill="#004b7d" d="M 359.5,519.5 C 352.833,519.5 346.167,519.5 339.5,519.5C 332.833,519.5 326.167,519.5 319.5,519.5C 319.5,512.833 319.5,506.167 319.5,499.5C 332.833,499.5 346.167,499.5 359.5,499.5C 359.5,506.167 359.5,512.833 359.5,519.5 Z"/></g>
<g><path style="opacity:1" fill="#01b584" d="M 499.5,499.5 C 499.5,539.5 499.5,579.5 499.5,619.5C 506.167,619.5 512.833,619.5 519.5,619.5C 519.5,626.167 519.5,632.833 519.5,639.5C 526.167,639.5 532.833,639.5 539.5,639.5C 539.5,646.167 539.5,652.833 539.5,659.5C 546.167,659.5 552.833,659.5 559.5,659.5C 559.5,652.833 559.5,646.167 559.5,639.5C 566.167,639.5 572.833,639.5 579.5,639.5C 579.5,652.833 579.5,666.167 579.5,679.5C 559.5,679.5 539.5,679.5 519.5,679.5C 519.5,672.833 519.5,666.167 519.5,659.5C 512.833,659.5 506.167,659.5 499.5,659.5C 499.5,652.833 499.5,646.167 499.5,639.5C 492.833,639.5 486.167,639.5 479.5,639.5C 479.5,592.833 479.5,546.167 479.5,499.5C 486.167,499.5 492.833,499.5 499.5,499.5 Z"/></g>
<g><path style="opacity:1" fill="#05e978" d="M 499.5,499.5 C 506.167,499.5 512.833,499.5 519.5,499.5C 519.5,506.167 519.5,512.833 519.5,519.5C 526.167,519.5 532.833,519.5 539.5,519.5C 539.5,526.167 539.5,532.833 539.5,539.5C 539.5,546.167 539.5,552.833 539.5,559.5C 546.167,559.5 552.833,559.5 559.5,559.5C 559.5,572.833 559.5,586.167 559.5,599.5C 566.167,599.5 572.833,599.5 579.5,599.5C 579.5,612.833 579.5,626.167 579.5,639.5C 572.833,639.5 566.167,639.5 559.5,639.5C 559.5,646.167 559.5,652.833 559.5,659.5C 552.833,659.5 546.167,659.5 539.5,659.5C 539.5,652.833 539.5,646.167 539.5,639.5C 532.833,639.5 526.167,639.5 519.5,639.5C 519.5,632.833 519.5,626.167 519.5,619.5C 512.833,619.5 506.167,619.5 499.5,619.5C 499.5,579.5 499.5,539.5 499.5,499.5 Z"/></g>
<g><path style="opacity:1" fill="#016a00" d="M 519.5,499.5 C 526.167,499.5 532.833,499.5 539.5,499.5C 539.5,506.167 539.5,512.833 539.5,519.5C 539.5,512.833 539.5,506.167 539.5,499.5C 532.833,499.5 526.167,499.5 519.5,499.5 Z"/></g>
<g><path style="opacity:1" fill="#01b584" d="M 179.5,519.5 C 179.5,526.167 179.5,532.833 179.5,539.5C 172.833,539.5 166.167,539.5 159.5,539.5C 159.5,532.833 159.5,526.167 159.5,519.5C 166.167,519.5 172.833,519.5 179.5,519.5 Z"/></g>
<g><path style="opacity:1" fill="#004b7d" d="M 319.5,519.5 C 319.5,526.167 319.5,532.833 319.5,539.5C 312.833,539.5 306.167,539.5 299.5,539.5C 299.5,532.833 299.5,526.167 299.5,519.5C 306.167,519.5 312.833,519.5 319.5,519.5 Z"/></g>
<g><path style="opacity:1" fill="#81912c" d="M 319.5,519.5 C 326.167,519.5 332.833,519.5 339.5,519.5C 339.5,526.167 339.5,532.833 339.5,539.5C 332.833,539.5 326.167,539.5 319.5,539.5C 319.5,532.833 319.5,526.167 319.5,519.5 Z"/></g>
<g><path style="opacity:1" fill="#016a00" d="M 339.5,519.5 C 346.167,519.5 352.833,519.5 359.5,519.5C 359.5,526.167 359.5,532.833 359.5,539.5C 352.833,539.5 346.167,539.5 339.5,539.5C 339.5,532.833 339.5,526.167 339.5,519.5 Z"/></g>
<g><path style="opacity:1" fill="#004b7d" d="M 359.5,519.5 C 366.167,519.5 372.833,519.5 379.5,519.5C 379.5,526.167 379.5,532.833 379.5,539.5C 406.167,539.5 432.833,539.5 459.5,539.5C 459.5,546.167 459.5,552.833 459.5,559.5C 452.833,559.5 446.167,559.5 439.5,559.5C 412.833,559.5 386.167,559.5 359.5,559.5C 359.5,552.833 359.5,546.167 359.5,539.5C 359.5,532.833 359.5,526.167 359.5,519.5 Z"/></g>
<g><path style="opacity:1" fill="#016a00" d="M 539.5,519.5 C 546.167,519.5 552.833,519.5 559.5,519.5C 559.5,526.167 559.5,532.833 559.5,539.5C 552.833,539.5 546.167,539.5 539.5,539.5C 539.5,532.833 539.5,526.167 539.5,519.5 Z"/></g>
<g><path style="opacity:1" fill="#016a00" d="M 159.5,539.5 C 159.5,546.167 159.5,552.833 159.5,559.5C 152.833,559.5 146.167,559.5 139.5,559.5C 139.5,552.833 139.5,546.167 139.5,539.5C 146.167,539.5 152.833,539.5 159.5,539.5 Z"/></g>
<g><path style="opacity:1" fill="#05e978" d="M 159.5,539.5 C 166.167,539.5 172.833,539.5 179.5,539.5C 179.5,546.167 179.5,552.833 179.5,559.5C 179.5,592.833 179.5,626.167 179.5,659.5C 172.833,659.5 166.167,659.5 159.5,659.5C 159.5,666.167 159.5,672.833 159.5,679.5C 152.833,679.5 146.167,679.5 139.5,679.5C 139.5,686.167 139.5,692.833 139.5,699.5C 132.833,699.5 126.167,699.5 119.5,699.5C 119.5,692.833 119.5,686.167 119.5,679.5C 112.833,679.5 106.167,679.5 99.5,679.5C 99.5,666.167 99.5,652.833 99.5,639.5C 106.167,639.5 112.833,639.5 119.5,639.5C 119.5,632.833 119.5,626.167 119.5,619.5C 119.5,612.833 119.5,606.167 119.5,599.5C 126.167,599.5 132.833,599.5 139.5,599.5C 139.5,592.833 139.5,586.167 139.5,579.5C 139.5,572.833 139.5,566.167 139.5,559.5C 146.167,559.5 152.833,559.5 159.5,559.5C 159.5,552.833 159.5,546.167 159.5,539.5 Z"/></g>
<g><path style="opacity:1" fill="#004b7d" d="M 299.5,539.5 C 299.5,552.833 299.5,566.167 299.5,579.5C 292.833,579.5 286.167,579.5 279.5,579.5C 252.833,579.5 226.167,579.5 199.5,579.5C 199.5,572.833 199.5,566.167 199.5,559.5C 226.167,559.5 252.833,559.5 279.5,559.5C 279.5,552.833 279.5,546.167 279.5,539.5C 286.167,539.5 292.833,539.5 299.5,539.5 Z"/></g>
<g><path style="opacity:1" fill="#016a00" d="M 299.5,539.5 C 306.167,539.5 312.833,539.5 319.5,539.5C 319.5,586.167 319.5,632.833 319.5,679.5C 292.833,679.5 266.167,679.5 239.5,679.5C 239.5,672.833 239.5,666.167 239.5,659.5C 259.5,659.5 279.5,659.5 299.5,659.5C 299.5,652.833 299.5,646.167 299.5,639.5C 286.167,639.5 272.833,639.5 259.5,639.5C 259.5,632.833 259.5,626.167 259.5,619.5C 272.833,619.5 286.167,619.5 299.5,619.5C 299.5,606.167 299.5,592.833 299.5,579.5C 299.5,566.167 299.5,552.833 299.5,539.5 Z"/></g>
<g><path style="opacity:1" fill="#05e978" d="M 319.5,539.5 C 326.167,539.5 332.833,539.5 339.5,539.5C 346.167,539.5 352.833,539.5 359.5,539.5C 359.5,546.167 359.5,552.833 359.5,559.5C 359.5,599.5 359.5,639.5 359.5,679.5C 346.167,679.5 332.833,679.5 319.5,679.5C 319.5,632.833 319.5,586.167 319.5,539.5 Z"/></g>
<g><path style="opacity:1" fill="#81912c" d="M 539.5,539.5 C 546.167,539.5 552.833,539.5 559.5,539.5C 559.5,546.167 559.5,552.833 559.5,559.5C 552.833,559.5 546.167,559.5 539.5,559.5C 539.5,552.833 539.5,546.167 539.5,539.5 Z"/></g>
<g><path style="opacity:1" fill="#016a00" d="M 139.5,559.5 C 139.5,566.167 139.5,572.833 139.5,579.5C 132.833,579.5 126.167,579.5 119.5,579.5C 119.5,572.833 119.5,566.167 119.5,559.5C 126.167,559.5 132.833,559.5 139.5,559.5 Z"/></g>
<g><path style="opacity:1" fill="#01b584" d="M 179.5,559.5 C 186.167,559.5 192.833,559.5 199.5,559.5C 199.5,566.167 199.5,572.833 199.5,579.5C 199.5,612.833 199.5,646.167 199.5,679.5C 192.833,679.5 186.167,679.5 179.5,679.5C 179.5,686.167 179.5,692.833 179.5,699.5C 172.833,699.5 166.167,699.5 159.5,699.5C 159.5,712.833 159.5,726.167 159.5,739.5C 146.167,739.5 132.833,739.5 119.5,739.5C 119.5,726.167 119.5,712.833 119.5,699.5C 126.167,699.5 132.833,699.5 139.5,699.5C 139.5,692.833 139.5,686.167 139.5,679.5C 146.167,679.5 152.833,679.5 159.5,679.5C 159.5,672.833 159.5,666.167 159.5,659.5C 166.167,659.5 172.833,659.5 179.5,659.5C 179.5,626.167 179.5,592.833 179.5,559.5 Z"/></g>
<g><path style="opacity:1" fill="#016a00" d="M 359.5,559.5 C 386.167,559.5 412.833,559.5 439.5,559.5C 439.5,566.167 439.5,572.833 439.5,579.5C 426.167,579.5 412.833,579.5 399.5,579.5C 392.833,579.5 386.167,579.5 379.5,579.5C 379.5,592.833 379.5,606.167 379.5,619.5C 392.833,619.5 406.167,619.5 419.5,619.5C 419.5,626.167 419.5,632.833 419.5,639.5C 432.833,639.5 446.167,639.5 459.5,639.5C 459.5,646.167 459.5,652.833 459.5,659.5C 439.5,659.5 419.5,659.5 399.5,659.5C 399.5,652.833 399.5,646.167 399.5,639.5C 392.833,639.5 386.167,639.5 379.5,639.5C 379.5,646.167 379.5,652.833 379.5,659.5C 379.5,672.833 379.5,686.167 379.5,699.5C 372.833,699.5 366.167,699.5 359.5,699.5C 359.5,692.833 359.5,686.167 359.5,679.5C 359.5,639.5 359.5,599.5 359.5,559.5 Z"/></g>
<g><path style="opacity:1" fill="#05e978" d="M 439.5,559.5 C 446.167,559.5 452.833,559.5 459.5,559.5C 459.5,566.167 459.5,572.833 459.5,579.5C 452.833,579.5 446.167,579.5 439.5,579.5C 439.5,572.833 439.5,566.167 439.5,559.5 Z"/></g>
<g><path style="opacity:1" fill="#81912c" d="M 559.5,559.5 C 566.167,559.5 572.833,559.5 579.5,559.5C 579.5,566.167 579.5,572.833 579.5,579.5C 579.5,586.167 579.5,592.833 579.5,599.5C 572.833,599.5 566.167,599.5 559.5,599.5C 559.5,586.167 559.5,572.833 559.5,559.5 Z"/></g>
<g><path style="opacity:1" fill="#016a00" d="M 119.5,579.5 C 119.5,586.167 119.5,592.833 119.5,599.5C 119.5,606.167 119.5,612.833 119.5,619.5C 112.833,619.5 106.167,619.5 99.5,619.5C 99.5,606.167 99.5,592.833 99.5,579.5C 106.167,579.5 112.833,579.5 119.5,579.5 Z"/></g>
<g><path style="opacity:1" fill="#81912c" d="M 119.5,579.5 C 126.167,579.5 132.833,579.5 139.5,579.5C 139.5,586.167 139.5,592.833 139.5,599.5C 132.833,599.5 126.167,599.5 119.5,599.5C 119.5,592.833 119.5,586.167 119.5,579.5 Z"/></g>
<g><path style="opacity:1" fill="#016a00" d="M 199.5,579.5 C 226.167,579.5 252.833,579.5 279.5,579.5C 279.5,586.167 279.5,592.833 279.5,599.5C 272.833,599.5 266.167,599.5 259.5,599.5C 246.167,599.5 232.833,599.5 219.5,599.5C 219.5,606.167 219.5,612.833 219.5,619.5C 219.5,626.167 219.5,632.833 219.5,639.5C 226.167,639.5 232.833,639.5 239.5,639.5C 239.5,646.167 239.5,652.833 239.5,659.5C 232.833,659.5 226.167,659.5 219.5,659.5C 219.5,666.167 219.5,672.833 219.5,679.5C 212.833,679.5 206.167,679.5 199.5,679.5C 199.5,646.167 199.5,612.833 199.5,579.5 Z"/></g>
<g><path style="opacity:1" fill="#01b584" d="M 279.5,579.5 C 286.167,579.5 292.833,579.5 299.5,579.5C 299.5,592.833 299.5,606.167 299.5,619.5C 286.167,619.5 272.833,619.5 259.5,619.5C 259.5,612.833 259.5,606.167 259.5,599.5C 266.167,599.5 272.833,599.5 279.5,599.5C 279.5,592.833 279.5,586.167 279.5,579.5 Z"/></g>
<g><path style="opacity:1" fill="#01b584" d="M 399.5,579.5 C 399.5,586.167 399.5,592.833 399.5,599.5C 406.167,599.5 412.833,599.5 419.5,599.5C 419.5,606.167 419.5,612.833 419.5,619.5C 406.167,619.5 392.833,619.5 379.5,619.5C 379.5,606.167 379.5,592.833 379.5,579.5C 386.167,579.5 392.833,579.5 399.5,579.5 Z"/></g>
<g><path style="opacity:1" fill="#05e978" d="M 399.5,579.5 C 412.833,579.5 426.167,579.5 439.5,579.5C 439.5,586.167 439.5,592.833 439.5,599.5C 432.833,599.5 426.167,599.5 419.5,599.5C 412.833,599.5 406.167,599.5 399.5,599.5C 399.5,592.833 399.5,586.167 399.5,579.5 Z"/></g>
<g><path style="opacity:1" fill="#01b584" d="M 439.5,579.5 C 446.167,579.5 452.833,579.5 459.5,579.5C 459.5,586.167 459.5,592.833 459.5,599.5C 452.833,599.5 446.167,599.5 439.5,599.5C 439.5,592.833 439.5,586.167 439.5,579.5 Z"/></g>
<g><path style="opacity:1" fill="#016a00" d="M 579.5,579.5 C 586.167,579.5 592.833,579.5 599.5,579.5C 599.5,612.833 599.5,646.167 599.5,679.5C 592.833,679.5 586.167,679.5 579.5,679.5C 579.5,666.167 579.5,652.833 579.5,639.5C 579.5,626.167 579.5,612.833 579.5,599.5C 579.5,592.833 579.5,586.167 579.5,579.5 Z"/></g>
<g><path style="opacity:1" fill="#05e978" d="M 259.5,599.5 C 259.5,606.167 259.5,612.833 259.5,619.5C 246.167,619.5 232.833,619.5 219.5,619.5C 219.5,612.833 219.5,606.167 219.5,599.5C 232.833,599.5 246.167,599.5 259.5,599.5 Z"/></g>
<g><path style="opacity:1" fill="#016a00" d="M 99.5,619.5 C 99.5,626.167 99.5,632.833 99.5,639.5C 92.8333,639.5 86.1667,639.5 79.5,639.5C 79.5,632.833 79.5,626.167 79.5,619.5C 86.1667,619.5 92.8333,619.5 99.5,619.5 Z"/></g>
<g><path style="opacity:1" fill="#81912c" d="M 99.5,619.5 C 106.167,619.5 112.833,619.5 119.5,619.5C 119.5,626.167 119.5,632.833 119.5,639.5C 112.833,639.5 106.167,639.5 99.5,639.5C 99.5,632.833 99.5,626.167 99.5,619.5 Z"/></g>
<g><path style="opacity:1" fill="#01b584" d="M 219.5,619.5 C 232.833,619.5 246.167,619.5 259.5,619.5C 259.5,626.167 259.5,632.833 259.5,639.5C 252.833,639.5 246.167,639.5 239.5,639.5C 232.833,639.5 226.167,639.5 219.5,639.5C 219.5,632.833 219.5,626.167 219.5,619.5 Z"/></g>
<g><path style="opacity:1" fill="#00391c" d="M 419.5,619.5 C 432.833,619.5 446.167,619.5 459.5,619.5C 459.5,626.167 459.5,632.833 459.5,639.5C 446.167,639.5 432.833,639.5 419.5,639.5C 419.5,632.833 419.5,626.167 419.5,619.5 Z"/></g>
<g><path style="opacity:1" fill="#00391c" d="M 239.5,639.5 C 246.167,639.5 252.833,639.5 259.5,639.5C 272.833,639.5 286.167,639.5 299.5,639.5C 299.5,646.167 299.5,652.833 299.5,659.5C 279.5,659.5 259.5,659.5 239.5,659.5C 239.5,652.833 239.5,646.167 239.5,639.5 Z"/></g>
<g><path style="opacity:1" fill="#00391c" d="M 399.5,659.5 C 392.833,659.5 386.167,659.5 379.5,659.5C 379.5,652.833 379.5,646.167 379.5,639.5C 386.167,639.5 392.833,639.5 399.5,639.5C 399.5,646.167 399.5,652.833 399.5,659.5 Z"/></g>
<g><path style="opacity:1" fill="#016a00" d="M 479.5,639.5 C 486.167,639.5 492.833,639.5 499.5,639.5C 499.5,646.167 499.5,652.833 499.5,659.5C 492.833,659.5 486.167,659.5 479.5,659.5C 479.5,652.833 479.5,646.167 479.5,639.5 Z"/></g>
<g><path style="opacity:1" fill="#00391c" d="M 239.5,659.5 C 239.5,666.167 239.5,672.833 239.5,679.5C 232.833,679.5 226.167,679.5 219.5,679.5C 219.5,672.833 219.5,666.167 219.5,659.5C 226.167,659.5 232.833,659.5 239.5,659.5 Z"/></g>
<g><path style="opacity:1" fill="#016a00" d="M 499.5,659.5 C 506.167,659.5 512.833,659.5 519.5,659.5C 519.5,666.167 519.5,672.833 519.5,679.5C 539.5,679.5 559.5,679.5 579.5,679.5C 579.5,686.167 579.5,692.833 579.5,699.5C 552.833,699.5 526.167,699.5 499.5,699.5C 499.5,686.167 499.5,672.833 499.5,659.5 Z"/></g>
<g><path style="opacity:1" fill="#016a00" d="M 99.5,679.5 C 106.167,679.5 112.833,679.5 119.5,679.5C 119.5,686.167 119.5,692.833 119.5,699.5C 119.5,712.833 119.5,726.167 119.5,739.5C 112.833,739.5 106.167,739.5 99.5,739.5C 99.5,719.5 99.5,699.5 99.5,679.5 Z"/></g>
<g><path style="opacity:1" fill="#016a00" d="M 199.5,679.5 C 199.5,686.167 199.5,692.833 199.5,699.5C 192.833,699.5 186.167,699.5 179.5,699.5C 179.5,692.833 179.5,686.167 179.5,679.5C 186.167,679.5 192.833,679.5 199.5,679.5 Z"/></g>
<g><path style="opacity:1" fill="#01b584" d="M 319.5,679.5 C 332.833,679.5 346.167,679.5 359.5,679.5C 359.5,686.167 359.5,692.833 359.5,699.5C 359.5,706.167 359.5,712.833 359.5,719.5C 352.833,719.5 346.167,719.5 339.5,719.5C 339.5,712.833 339.5,706.167 339.5,699.5C 332.833,699.5 326.167,699.5 319.5,699.5C 319.5,692.833 319.5,686.167 319.5,679.5 Z"/></g>
<g><path style="opacity:1" fill="#016a00" d="M 179.5,699.5 C 179.5,719.5 179.5,739.5 179.5,759.5C 159.5,759.5 139.5,759.5 119.5,759.5C 119.5,752.833 119.5,746.167 119.5,739.5C 132.833,739.5 146.167,739.5 159.5,739.5C 159.5,726.167 159.5,712.833 159.5,699.5C 166.167,699.5 172.833,699.5 179.5,699.5 Z"/></g>
<g><path style="opacity:1" fill="#016a00" d="M 319.5,699.5 C 326.167,699.5 332.833,699.5 339.5,699.5C 339.5,706.167 339.5,712.833 339.5,719.5C 332.833,719.5 326.167,719.5 319.5,719.5C 319.5,712.833 319.5,706.167 319.5,699.5 Z"/></g>
<g><path style="opacity:1" fill="#016a00" d="M 339.5,719.5 C 346.167,719.5 352.833,719.5 359.5,719.5C 359.5,726.167 359.5,732.833 359.5,739.5C 352.833,739.5 346.167,739.5 339.5,739.5C 339.5,732.833 339.5,726.167 339.5,719.5 Z"/></g>
</svg>
